<?xml version="1.0" encoding="UTF-8" standalone="no"?>
<!-- Created with Inkscape (http://www.inkscape.org/) -->

<svg
   width="1024"
   height="87"
   viewBox="0 0 270.93338 23.018748"
   version="1.1"
   id="svg5"
   inkscape:export-filename="../../tablet/background/tablet-about-background.svg"
   inkscape:export-xdpi="96"
   inkscape:export-ydpi="96"
   sodipodi:docname="tablet-titles-background.svg"
   inkscape:version="1.2.2 (b0a84865, 2022-12-01)"
   xmlns:inkscape="http://www.inkscape.org/namespaces/inkscape"
   xmlns:sodipodi="http://sodipodi.sourceforge.net/DTD/sodipodi-0.dtd"
   xmlns="http://www.w3.org/2000/svg"
   xmlns:svg="http://www.w3.org/2000/svg">
  <sodipodi:namedview
     id="namedview7"
     pagecolor="#ffffff"
     bordercolor="#000000"
     borderopacity="0.25"
     inkscape:showpageshadow="2"
     inkscape:pageopacity="0.0"
     inkscape:pagecheckerboard="0"
     inkscape:deskcolor="#d1d1d1"
     inkscape:document-units="mm"
     showgrid="false"
     inkscape:zoom="0.6499081"
     inkscape:cx="645.47588"
     inkscape:cy="54.623108"
     inkscape:window-width="1440"
     inkscape:window-height="757"
     inkscape:window-x="0"
     inkscape:window-y="25"
     inkscape:window-maximized="0"
     inkscape:current-layer="layer14" />
  <defs
     id="defs2" />
  <g
     inkscape:label="about"
     inkscape:groupmode="layer"
     id="layer1"
     style="display:none">
    <path
       id="rect483"
       style="fill:#fafafa;stroke:#85b044;stroke-width:0.1;stroke-linecap:round;stroke-opacity:0"
       d="M -4.8183105,-3.5331177 V 26.018567 H 274.95996 V -3.5331177 Z M 115.3325,2.6546183 h 4.88497 v 6.0378744 c 0.48335,-0.5071183 1.03008,-0.8874565 1.64021,-1.1410156 0.61805,-0.2535592 1.29949,-0.3803386 2.04432,-0.3803386 1.5372,0 2.80896,0.55466 3.81527,1.6639811 1.00631,1.1013974 1.50947,2.6861404 1.50947,4.7542314 0,1.378728 -0.22979,2.595018 -0.68937,3.648873 -0.45957,1.045932 -1.09743,1.830379 -1.91357,2.353345 -0.80822,0.515042 -1.70757,0.772563 -2.69803,0.772563 -0.84784,0 -1.62436,-0.182246 -2.32957,-0.546737 -0.53089,-0.285254 -1.10933,-0.820105 -1.7353,-1.604553 v 1.866036 h -4.5284 z m 54.51915,0 v 4.8017741 h 2.66237 V 10.98641 h -2.66237 v 4.480863 c 0,0.538813 0.0515,0.89538 0.15451,1.069702 0.15847,0.269407 0.4358,0.40411 0.83199,0.40411 0.35657,0 0.85576,-0.103008 1.49758,-0.309025 l 0.35657,3.339848 c -1.19648,0.261482 -2.31372,0.392224 -3.35173,0.392224 -1.20441,0 -2.09186,-0.154513 -2.66237,-0.463538 -0.57051,-0.309025 -0.99443,-0.776524 -1.27176,-1.402498 -0.26941,-0.633898 -0.40411,-1.656057 -0.40411,-3.06648 V 10.98641 h -1.78284 V 7.4563924 h 1.78284 v -2.317688 z m -64.7051,4.5165202 c 1.45004,0 2.61483,0.083199 3.49436,0.2495972 0.87954,0.1584744 1.61248,0.4952323 2.19884,1.0102742 0.41203,0.3565675 0.7369,0.8636852 0.97461,1.5213542 0.23772,0.6497449 0.35657,1.2717569 0.35657,1.8660359 v 5.574337 c 0,0.594279 0.0357,1.061778 0.10697,1.402498 0.0792,0.332797 0.24564,0.760677 0.4992,1.283643 h -4.5403 c -0.18224,-0.324873 -0.3011,-0.570508 -0.35656,-0.736906 -0.0555,-0.174322 -0.11094,-0.443728 -0.1664,-0.80822 -0.6339,0.610127 -1.26383,1.045931 -1.88981,1.307414 -0.85576,0.348644 -1.85019,0.522966 -2.98328,0.522966 -1.50551,0 -2.65048,-0.348644 -3.434931,-1.045931 -0.776525,-0.697288 -1.164787,-1.557011 -1.164787,-2.579171 0,-0.95877 0.281292,-1.74718 0.843876,-2.36523 0.562584,-0.618051 1.600592,-1.077626 3.114022,-1.378728 1.81453,-0.364491 2.9912,-0.61805 3.53002,-0.760677 0.53881,-0.15055 1.10932,-0.344681 1.71152,-0.582393 0,-0.594279 -0.12282,-1.010274 -0.36845,-1.247986 -0.24564,-0.237712 -0.67748,-0.356567 -1.29553,-0.356567 -0.79237,0 -1.38665,0.126779 -1.78284,0.380338 -0.30902,0.198093 -0.55862,0.570508 -0.74879,1.117245 l -4.62349,-0.487309 c 0.174322,-0.80822 0.423919,-1.4421168 0.748792,-1.9016927 0.332796,-0.4674996 0.808218,-0.8716091 1.426268,-1.2123291 0.44373,-0.2456354 1.05386,-0.4358046 1.83038,-0.5705078 0.77653,-0.1347033 1.61644,-0.2020549 2.51974,-0.2020549 z m 33.01814,0 c 2.52767,0 4.43729,0.7329436 5.72885,2.1988322 1.03801,1.1806343 1.55701,2.6346363 1.55701,4.3620073 0,1.941312 -0.64578,3.533979 -1.93735,4.778003 -1.28364,1.236101 -3.06251,1.854151 -5.33662,1.854151 -2.02847,0 -3.66868,-0.515042 -4.92063,-1.545126 -1.5372,-1.275719 -2.3058,-2.947623 -2.3058,-5.015714 0,-1.925465 0.64974,-3.510208 1.94923,-4.7542319 1.29949,-1.2519482 3.05459,-1.8779216 5.26531,-1.8779216 z m 9.56789,0.2852539 h 4.86121 v 6.9411786 c 0,0.792372 0.14659,1.354956 0.43976,1.687752 0.29318,0.332796 0.70521,0.499194 1.2361,0.499194 0.57844,0 1.0499,-0.221864 1.41439,-0.665592 0.37241,-0.443728 0.55862,-1.240062 0.55862,-2.389001 V 7.4563924 h 4.83743 V 20.078878 h -4.51652 v -2.04432 c -0.67352,0.839915 -1.35496,1.438155 -2.04432,1.794723 -0.68144,0.356567 -1.52135,0.534851 -2.51974,0.534851 -1.33119,0 -2.37712,-0.396186 -3.1378,-1.188558 -0.75275,-0.800296 -1.12913,-2.028472 -1.12913,-3.68453 z m -9.49657,3.0427086 c -0.70521,0 -1.28761,0.273368 -1.74718,0.820105 -0.45958,0.538813 -0.68937,1.362879 -0.68937,2.4722 0,1.125169 0.22583,1.957159 0.67748,2.495972 0.45958,0.538813 1.03405,0.808219 1.72341,0.808219 0.69729,0 1.26779,-0.265444 1.71152,-0.796333 0.45166,-0.53089 0.67748,-1.382689 0.67748,-2.5554 0,-1.093474 -0.22582,-1.905654 -0.67748,-2.436544 -0.45165,-0.538813 -1.01027,-0.808219 -1.67586,-0.808219 z m -15.81971,0.285254 c -0.65767,0 -1.19648,0.245635 -1.61644,0.736906 -0.41203,0.483347 -0.61805,1.220252 -0.61805,2.210717 0,1.08555 0.20206,1.87396 0.60617,2.365231 0.41203,0.483347 0.93103,0.72502 1.55701,0.72502 0.57843,0 1.06178,-0.237711 1.45004,-0.713135 0.39618,-0.483347 0.59428,-1.291566 0.59428,-2.424658 0,-0.998389 -0.19413,-1.731333 -0.5824,-2.198832 -0.38034,-0.4675 -0.84387,-0.701249 -1.39061,-0.701249 z m -14.97583,3.304191 c -0.66559,0.237711 -1.35892,0.44769 -2.07998,0.629935 -0.98254,0.261483 -1.60455,0.519004 -1.86603,0.772563 -0.26941,0.261483 -0.40411,0.558622 -0.40411,0.891419 0,0.380338 0.13074,0.693325 0.39222,0.93896 0.26941,0.237712 0.66163,0.356568 1.17667,0.356568 0.53882,0 1.03801,-0.130742 1.49759,-0.392224 0.4675,-0.261483 0.79633,-0.578432 0.9865,-0.950847 0.19809,-0.380338 0.29714,-0.871609 0.29714,-1.473812 z" />
  </g>
  <g
     inkscape:groupmode="layer"
     id="layer14"
     inkscape:label="projects"
     style="display:inline">
    <path
       id="rect297"
       style="display:inline;fill:#f1f3f4;fill-opacity:1;stroke:#85b044;stroke-width:0.1;stroke-linecap:round;stroke-opacity:0"
       inkscape:label="rect616"
       d="M -4.8183105,-3.5331177 V 26.018567 H 274.95996 V -3.5331177 Z M 125.50655,0.23564453 h 4.84932 V 3.5636068 h -4.84932 z m 46.22302,0 V 5.0374186 h 2.66237 v 3.5300171 h -2.66237 v 4.4813803 c 0,0.538813 0.0515,0.89538 0.15451,1.069702 0.15848,0.269407 0.43581,0.40411 0.83199,0.40411 0.35657,0 0.85576,-0.103009 1.49759,-0.309025 l 0.35656,3.339848 c -1.19648,0.261482 -2.31372,0.392224 -3.35173,0.392224 -1.20441,0 -2.09186,-0.154513 -2.66237,-0.463538 -0.57051,-0.309025 -0.99443,-0.776524 -1.27176,-1.402498 -0.2694,-0.633898 -0.40411,-1.656057 -0.40411,-3.06648 V 8.5674357 h -1.78283 V 5.0374186 h 1.78283 V 2.7197306 Z M 90.265808,4.7521647 c 1.687753,0 2.991204,0.6457827 3.910356,1.9373495 0.927075,1.2915667 1.390613,2.8887119 1.390613,4.7904048 0,2.099787 -0.503156,3.704339 -1.509469,4.81366 -1.006313,1.101398 -2.278069,1.652096 -3.815271,1.652096 -0.74483,0 -1.426269,-0.12678 -2.04432,-0.380339 -0.610126,-0.253559 -1.156863,-0.629935 -1.64021,-1.12913 v 6.025989 H 81.672534 V 5.0374186 h 4.528406 v 1.866036 C 86.826914,6.1190061 87.401383,5.5881172 87.924349,5.3107869 88.62956,4.938372 89.410046,4.7521647 90.265808,4.7521647 Z m 15.261082,0 c 0.71314,0 1.49362,0.221864 2.34146,0.6655925 l -1.49758,3.446818 c -0.57051,-0.2377117 -1.02216,-0.3565674 -1.35496,-0.3565674 -0.6339,0 -1.12517,0.2614826 -1.47381,0.7844483 -0.49919,0.7369059 -0.74879,2.1161489 -0.74879,4.1366979 v 4.231267 H 97.932007 V 5.0374186 h 4.528403 v 2.0680908 c 0.43581,-0.8953806 0.8835,-1.5094684 1.34307,-1.8422648 0.4675,-0.34072 1.04197,-0.5110799 1.72341,-0.5110799 z m 10.17406,0 c 2.52767,0 4.43728,0.7329436 5.72885,2.1988322 1.038,1.1806346 1.55701,2.6351529 1.55701,4.3625241 0,1.941312 -0.64578,3.533979 -1.93735,4.778003 -1.28364,1.236101 -3.06252,1.854151 -5.33663,1.854151 -2.02847,0 -3.66868,-0.515042 -4.92063,-1.545126 -1.5372,-1.275719 -2.3058,-2.947623 -2.3058,-5.015714 0,-1.9254647 0.64975,-3.5107243 1.94924,-4.7547487 1.29949,-1.2519482 3.05459,-1.8779216 5.26531,-1.8779216 z m 24.24658,0 c 1.80661,0 3.23288,0.2733681 4.27881,0.820105 1.04593,0.5467368 1.84226,1.3391082 2.389,2.3771159 0.54674,1.0380076 0.82011,2.3895174 0.82011,4.0534994 v 0.546737 h -9.69864 c 0.0872,0.776524 0.29714,1.354956 0.62994,1.735294 0.4675,0.546737 1.07762,0.820105 1.83038,0.820105 0.47542,0 0.92707,-0.118856 1.35495,-0.356567 0.26149,-0.150551 0.54278,-0.415995 0.84388,-0.796334 l 4.76612,0.439766 c -0.72899,1.267796 -1.60852,2.179023 -2.6386,2.733684 -1.03009,0.546737 -2.50786,0.820105 -4.43332,0.820105 -1.67191,0 -2.98724,-0.23375 -3.94602,-0.70125 -0.95877,-0.475423 -1.7551,-1.224214 -2.389,-2.246374 -0.62597,-1.030084 -0.93896,-2.23845 -0.93896,-3.625102 0,-1.9730067 0.62994,-3.5701518 1.88981,-4.7904051 1.2678,-1.2202532 3.01497,-1.8303792 5.24154,-1.8303792 z m 16.4853,0 c 2.06017,0 3.62906,0.3684527 4.70669,1.1053589 1.08555,0.7369062 1.84622,1.8145313 2.28203,3.2328776 l -4.55218,0.6061646 c -0.14262,-0.5388132 -0.40411,-0.9429226 -0.78445,-1.2123291 -0.37241,-0.2773303 -0.87557,-0.4159953 -1.50946,-0.4159953 -0.8003,0 -1.45004,0.2892155 -1.94924,0.8676473 -0.49127,0.570508 -0.73691,1.4386713 -0.73691,2.6034583 0,1.038008 0.24564,1.826418 0.73691,2.365231 0.49127,0.538813 1.11724,0.808219 1.87792,0.808219 0.6339,0 1.16479,-0.162436 1.59267,-0.487309 0.4358,-0.324872 0.76068,-0.824066 0.97462,-1.497583 l 4.59972,0.522966 c -0.25356,0.95877 -0.66956,1.79076 -1.24799,2.495971 -0.57843,0.697288 -1.3193,1.240062 -2.2226,1.628325 -0.89538,0.388262 -2.0364,0.582393 -3.42305,0.582393 -1.33911,0 -2.45635,-0.122817 -3.35173,-0.368453 -0.88746,-0.253559 -1.6521,-0.657668 -2.29392,-1.212329 -0.64182,-0.562584 -1.14498,-1.220252 -1.50947,-1.973006 -0.36449,-0.752754 -0.54673,-1.751142 -0.54673,-2.995166 0,-1.299491 0.22186,-2.3815942 0.66559,-3.24528 0.32487,-0.6338978 0.7686,-1.2004433 1.33118,-1.6996378 0.56259,-0.5071183 1.14102,-0.8834947 1.7353,-1.1291301 0.94292,-0.3882624 2.15129,-0.5823934 3.6251,-0.5823934 z m 26.07696,0 c 1.50551,0 2.61483,0.1148939 3.32796,0.3446818 0.72106,0.229788 1.3193,0.5863551 1.79472,1.0697022 0.48335,0.483347 0.8835,1.1370534 1.20045,1.9611206 l -4.58784,0.451652 c -0.11885,-0.4041099 -0.31694,-0.7012491 -0.59427,-0.8914185 -0.38034,-0.2535591 -0.83992,-0.3803385 -1.37873,-0.3803385 -0.54674,0 -0.94689,0.099046 -1.20045,0.2971395 -0.24563,0.1901693 -0.36845,0.4239189 -0.36845,0.7012492 0,0.3090251 0.15848,0.5427747 0.47543,0.7012491 0.31694,0.1584745 1.00631,0.3011013 2.06809,0.4278809 1.60851,0.1822456 2.80499,0.4358045 3.58944,0.760677 0.78445,0.324873 1.38269,0.788927 1.79472,1.39113 0.41996,0.602203 0.62994,1.263833 0.62994,1.984891 0,0.728983 -0.22186,1.438155 -0.66559,2.127519 -0.43581,0.689364 -1.12913,1.240062 -2.07998,1.652096 -0.94292,0.40411 -2.23053,0.606164 -3.86281,0.606164 -2.30581,0 -3.94998,-0.328834 -4.93252,-0.986503 -0.97462,-0.657669 -1.60059,-1.592667 -1.87792,-2.804997 l 4.80177,-0.451652 c 0.1981,0.570508 0.47543,0.97858 0.83199,1.224215 0.35657,0.245635 0.83199,0.368453 1.42627,0.368453 0.64975,0 1.15291,-0.138665 1.50947,-0.415995 0.27733,-0.206017 0.416,-0.463538 0.416,-0.772563 0,-0.348644 -0.18225,-0.61805 -0.54674,-0.808219 -0.26148,-0.134704 -0.95481,-0.301102 -2.07998,-0.499195 -1.67982,-0.293177 -2.84857,-0.562584 -3.50624,-0.808219 -0.64975,-0.253559 -1.20044,-0.677995 -1.6521,-1.272274 -0.44372,-0.594279 -0.66559,-1.2717566 -0.66559,-2.0324339 0,-0.8319909 0.24167,-1.549087 0.72502,-2.1512899 0.48335,-0.6022029 1.14894,-1.0498927 1.99678,-1.3430705 0.84784,-0.3011014 1.98489,-0.451652 3.41116,-0.451652 z m -57.00324,0.2852539 h 4.84932 V 17.280082 c 0,1.560974 -0.1149,2.666332 -0.34468,3.316077 -0.22187,0.649745 -0.63786,1.176672 -1.24799,1.580782 -0.61013,0.40411 -1.48174,0.606164 -2.61483,0.606164 -0.935,0 -2.09582,-0.138665 -3.48247,-0.415995 l 0.72502,-3.518131 c 0.38826,0.07924 0.67351,0.118855 0.85576,0.118855 0.41203,0 0.72502,-0.142626 0.93896,-0.42788 0.21394,-0.277331 0.32091,-0.835953 0.32091,-1.675867 z m 14.64303,2.5791708 c -0.7686,0 -1.38268,0.3050629 -1.84226,0.9151896 -0.29318,0.3803386 -0.47938,0.9468842 -0.55862,1.699638 h 4.76612 c -0.0951,-0.9349994 -0.34865,-1.6045533 -0.76068,-2.0086631 -0.40411,-0.4041098 -0.93896,-0.6061645 -1.60456,-0.6061645 z M 115.77226,8.080127 c -0.70521,0 -1.2876,0.2733681 -1.74718,0.8201049 -0.45957,0.5388132 -0.68936,1.3633961 -0.68936,2.4727171 0,1.125169 0.22582,1.957159 0.67748,2.495972 0.45957,0.538813 1.03404,0.808219 1.7234,0.808219 0.69729,0 1.2678,-0.265444 1.71153,-0.796334 0.45165,-0.530889 0.67748,-1.382688 0.67748,-2.555399 0,-1.093474 -0.22583,-1.9061712 -0.67748,-2.4370606 C 116.99648,8.3495332 116.43785,8.080127 115.77226,8.080127 Z M 88.685026,8.305953 c -0.61805,0 -1.133092,0.2416732 -1.545125,0.7250203 -0.412034,0.4833471 -0.61805,1.2683117 -0.61805,2.3538617 0,0.998389 0.209978,1.739256 0.629935,2.222603 0.419958,0.483347 0.950846,0.72502 1.592668,0.72502 0.562584,0 1.034045,-0.229787 1.414384,-0.689363 0.380339,-0.4675 0.570508,-1.255909 0.570508,-2.36523 0,-1.022161 -0.198093,-1.7714683 -0.594279,-2.2468917 C 89.738881,8.5476262 89.255534,8.305953 88.685026,8.305953 Z" />
  </g>
  <g
     inkscape:groupmode="layer"
     id="layer3"
     inkscape:label="contact"
     style="display:none">
    <rect
       style="display:inline;fill:#fafafa;stroke:#85b044;stroke-width:0.1;stroke-linecap:round;stroke-opacity:0"
       id="rect616"
       width="279.77805"
       height="29.551754"
       x="-4.8182206"
       y="-3.5333619"
       inkscape:label="rect616" />
  </g>
  <g
     inkscape:groupmode="layer"
     id="layer12"
     inkscape:label="about text"
     style="display:none">
    <text
       xml:space="preserve"
       style="font-weight:bold;font-size:24.3417px;font-family:'Arial Black';-inkscape-font-specification:'Arial Black,  Bold';display:inline;fill:#cbcbcb;fill-opacity:1;stroke:#85b044;stroke-width:0.1;stroke-linecap:round;stroke-opacity:0"
       x="97.373337"
       y="20.07889"
       id="text17768"
       inkscape:label="text17768"><tspan
         sodipodi:role="line"
         id="tspan17766"
         style="font-size:24.3417px;stroke:#85b044;stroke-width:0.1;stroke-opacity:0"
         x="97.373337"
         y="20.07889">about</tspan></text>
  </g>
  <g
     inkscape:groupmode="layer"
     id="layer13"
     inkscape:label="projects text"
     style="display:none">
    <text
       xml:space="preserve"
       style="font-weight:bold;font-size:24.3417px;font-family:'Arial Black';-inkscape-font-specification:'Arial Black,  Bold';display:inline;fill:#fafafa;stroke:#85b044;stroke-width:0.1;stroke-linecap:round;stroke-opacity:0"
       x="80.186768"
       y="17.660172"
       id="text17247"><tspan
         sodipodi:role="line"
         id="tspan17245"
         style="font-size:24.3417px;fill:#cbcbcb;fill-opacity:1;stroke-width:0.1"
         x="80.186768"
         y="17.660172">projects</tspan></text>
  </g>
  <g
     inkscape:groupmode="layer"
     id="layer2"
     inkscape:label="contact text"
     style="display:none">
    <text
       xml:space="preserve"
       style="font-weight:bold;font-size:24.3417px;font-family:'Arial Black';-inkscape-font-specification:'Arial Black,  Bold';display:inline;fill:#cbcbcb;fill-opacity:1;stroke:#85b044;stroke-width:0.1;stroke-linecap:round;stroke-opacity:0"
       x="83.966385"
       y="20.072947"
       id="text317"
       inkscape:label="text17768"><tspan
         sodipodi:role="line"
         id="tspan315"
         style="font-size:24.3417px;stroke:#85b044;stroke-width:0.1;stroke-opacity:0"
         x="83.966385"
         y="20.072947">contact</tspan></text>
  </g>
</svg>
