<?xml version="1.0" encoding="UTF-8" standalone="no"?>
<!-- Created with Inkscape (http://www.inkscape.org/) -->

<svg
   width="1023.9999"
   height="450"
   viewBox="0 0 270.93333 119.06249"
   version="1.1"
   id="svg5"
   inkscape:export-filename="mobile-make-it-happen-background.svg"
   inkscape:export-xdpi="96"
   inkscape:export-ydpi="96"
   inkscape:version="1.2.2 (b0a84865, 2022-12-01)"
   sodipodi:docname="tablet-make-it-happen-background.svg"
   xmlns:inkscape="http://www.inkscape.org/namespaces/inkscape"
   xmlns:sodipodi="http://sodipodi.sourceforge.net/DTD/sodipodi-0.dtd"
   xmlns="http://www.w3.org/2000/svg"
   xmlns:svg="http://www.w3.org/2000/svg">
  <sodipodi:namedview
     id="namedview7"
     pagecolor="#ffffff"
     bordercolor="#000000"
     borderopacity="0.25"
     inkscape:showpageshadow="2"
     inkscape:pageopacity="0.0"
     inkscape:pagecheckerboard="0"
     inkscape:deskcolor="#d1d1d1"
     inkscape:document-units="mm"
     showgrid="false"
     inkscape:zoom="0.35483637"
     inkscape:cx="505.86697"
     inkscape:cy="493.18507"
     inkscape:window-width="1440"
     inkscape:window-height="756"
     inkscape:window-x="0"
     inkscape:window-y="25"
     inkscape:window-maximized="0"
     inkscape:current-layer="layer1" />
  <defs
     id="defs2">
    <inkscape:path-effect
       effect="spiro"
       id="path-effect1264"
       is_visible="true"
       lpeversion="1" />
  </defs>
  <g
     inkscape:label="make it happen background"
     inkscape:groupmode="layer"
     id="layer1">
    <path
       id="rect372"
       style="fill:#fafafa;stroke:#85b044;stroke-width:0.1;stroke-linecap:round;stroke-opacity:0"
       inkscape:label="rect372"
       d="M -6.7107015,-3.7284546 V 128.2516 H 277.38152 V -3.7284546 Z M 126.82895,4.4586426 c 2.70693,-0.016623 5.39106,0.5023893 8.00881,1.1916585 5.23551,1.3785384 10.40336,3.4623245 15.81713,3.4168457 3.81227,-0.032025 7.53251,-1.125495 11.32437,-1.5208374 1.89593,-0.1976712 3.82518,-0.2190174 5.69474,0.1529622 1.86956,0.3719797 3.68302,1.1537529 5.10512,2.4231084 1.58262,1.412643 2.61298,3.367583 3.18637,5.410005 0.57339,2.042422 0.7166,4.180699 0.74104,6.301941 0.0244,2.121242 -0.0666,4.24481 0.0512,6.362919 0.1178,2.11811 0.45187,4.249504 1.28932,6.198588 1.48044,3.445557 4.38159,6.030611 6.96082,8.752954 1.28961,1.361172 2.52395,2.792373 3.47472,4.408517 0.95078,1.616144 1.61208,3.433865 1.68052,5.307686 0.0802,2.19656 -0.65881,4.364666 -1.77354,6.25905 -1.11472,1.894384 -2.59396,3.545463 -4.10982,5.137154 -1.51586,1.591691 -3.08402,3.143555 -4.41575,4.892208 -1.33174,1.748652 -2.43075,3.721018 -2.87063,5.874577 -0.39677,1.942533 -0.24325,3.962093 0.14625,5.906099 0.38949,1.944006 1.01053,3.83253 1.55597,5.738668 0.54544,1.906137 1.01865,3.849709 1.10071,5.830652 0.0821,1.980942 -0.24759,4.016506 -1.22266,5.742802 -0.68896,1.219752 -1.6846,2.25527 -2.83756,3.05098 -1.15295,0.79571 -2.4607,1.35574 -3.81578,1.711 -2.71017,0.71053 -5.56925,0.60591 -8.34937,0.25838 -2.78012,-0.34752 -5.52996,-0.93234 -8.32145,-1.17202 -2.79149,-0.23967 -5.6726,-0.11905 -8.28218,0.90072 -3.5177,1.37465 -6.20488,4.22374 -9.02116,6.74016 -1.40814,1.25821 -2.88604,2.45804 -4.54339,3.3631 -1.65735,0.90507 -3.51078,1.50845 -5.39915,1.50585 -2.91235,-0.004 -5.68077,-1.45775 -7.79591,-3.45973 -2.11514,-2.00199 -3.65938,-4.52387 -5.07721,-7.06779 -1.41783,-2.54392 -2.74489,-5.157115 -4.52169,-7.464659 -1.7768,-2.307544 -4.06805,-4.324372 -6.83731,-5.226038 -3.27597,-1.066651 -6.822064,-0.481097 -10.259835,-0.254248 -1.718886,0.113425 -3.458793,0.132813 -5.150073,-0.194303 -1.69128,-0.327117 -3.342578,-1.020655 -4.607471,-2.190047 -1.672293,-1.546034 -2.545907,-3.824038 -2.714563,-6.095236 -0.168657,-2.271197 0.313444,-4.546519 1.019576,-6.711735 0.706132,-2.165216 1.635928,-4.250558 2.402954,-6.394958 0.767026,-2.144401 1.375141,-4.377053 1.399398,-6.654374 0.04679,-4.392704 -2.047746,-8.475101 -3.559473,-12.599748 -0.755863,-2.062324 -1.378116,-4.196885 -1.512052,-6.389274 -0.133937,-2.192389 0.248104,-4.460159 1.383895,-6.340182 0.996935,-1.650181 2.529633,-2.930796 4.222998,-3.852478 1.693364,-0.921681 3.549638,-1.505193 5.418274,-1.979724 3.737271,-0.949062 7.691832,-1.531688 10.903212,-3.665926 1.90656,-1.267077 3.44678,-3.02427 4.71754,-4.928381 1.27076,-1.904112 2.28836,-3.963125 3.31556,-6.008936 1.02719,-2.045811 2.07281,-4.093332 3.39307,-5.96346 1.32027,-1.8701278 2.9332,-3.5692361 4.90358,-4.7345948 2.32997,-1.3780312 5.07399,-1.9532823 7.78092,-1.9699056 z" />
    <path
       style="display:none;fill:#ababab;fill-opacity:1;stroke:#85b044;stroke-width:0.0707078;stroke-linecap:round;stroke-opacity:0"
       d="m 85.861207,62.891109 c 0.04679,-4.392708 -2.047281,-8.475063 -3.55901,-12.599715 -0.755864,-2.062325 -1.378147,-4.196998 -1.512084,-6.389389 -0.133937,-2.192391 0.247869,-4.459873 1.383661,-6.339898 0.996936,-1.650183 2.52982,-2.930784 4.223186,-3.852467 1.693366,-0.921682 3.549586,-1.505014 5.418224,-1.979546 3.737275,-0.949063 7.691485,-1.532121 10.902866,-3.666361 1.90657,-1.267078 3.44717,-3.024209 4.71793,-4.928322 1.27076,-1.904114 2.28827,-3.963145 3.31547,-6.008958 1.02719,-2.045813 2.07269,-4.093061 3.39296,-5.963191 1.32026,-1.8701293 2.93331,-3.5693596 4.9037,-4.7347195 2.32997,-1.3780325 5.07409,-1.9535253 7.78102,-1.9701487 2.70693,-0.016623 5.39112,0.502448 8.00888,1.1917179 5.23551,1.3785398 10.4029,3.4623463 15.81667,3.4168675 3.81228,-0.032025 7.53253,-1.1254994 11.3244,-1.5208422 1.89593,-0.1976714 3.82532,-0.2187855 5.69488,0.1531945 1.86956,0.37198 3.68322,1.1536671 5.10532,2.4230235 1.58263,1.412645 2.61266,3.367539 3.18605,5.409963 0.57339,2.042424 0.71667,4.18086 0.74111,6.302104 0.0244,2.121244 -0.0668,4.244909 0.051,6.363021 0.11781,2.118111 0.45211,4.249453 1.28957,6.198539 1.48044,3.44556 4.38163,6.030526 6.96086,8.752873 1.28961,1.361173 2.52372,2.792091 3.4745,4.408236 0.95077,1.616145 1.61206,3.434131 1.6805,5.307954 0.0802,2.196562 -0.65867,4.364381 -1.7734,6.258767 -1.11473,1.894386 -2.59405,3.54578 -4.10992,5.137473 -1.51586,1.591692 -3.08373,3.14365 -4.41546,4.892304 -1.33174,1.748654 -2.43075,3.720767 -2.87063,5.874328 -0.39678,1.942536 -0.24346,3.962283 0.14604,5.906291 0.3895,1.944007 1.01038,3.832586 1.55583,5.738726 0.54544,1.90614 1.01872,3.849621 1.10078,5.830566 0.0821,1.980944 -0.24725,4.016378 -1.22233,5.742676 -0.68896,1.219753 -1.6849,2.255374 -2.83786,3.051084 -1.15295,0.79571 -2.46043,1.35544 -3.81551,1.71071 -2.71017,0.71053 -5.56945,0.60628 -8.34958,0.25876 -2.78012,-0.34753 -5.53006,-0.93269 -8.32155,-1.17236 -2.79149,-0.23968 -5.67249,-0.11878 -8.28207,0.90099 -3.5177,1.37464 -6.2048,4.22387 -9.02108,6.74029 -1.40814,1.25822 -2.88584,2.45786 -4.5432,3.36292 -1.65735,0.90507 -3.51129,1.50852 -5.39966,1.50592 -2.91235,-0.004 -5.68059,-1.4578 -7.79573,-3.45979 -2.11515,-2.00199 -3.65916,-4.52369 -5.07699,-7.06762 -1.41783,-2.54393 -2.7451,-5.157589 -4.5219,-7.465136 -1.7768,-2.307547 -4.06782,-4.324044 -6.83708,-5.22571 -3.27597,-1.066652 -6.822422,-0.481304 -10.260197,-0.254454 -1.718888,0.113424 -3.458411,0.132855 -5.149692,-0.194262 -1.691282,-0.327117 -3.342715,-1.020321 -4.607609,-2.189715 -1.672294,-1.546035 -2.545969,-3.824184 -2.714625,-6.095383 -0.168657,-2.2712 0.313271,-4.546475 1.019404,-6.711693 0.706132,-2.165218 1.636162,-4.250459 2.403189,-6.394861 0.767027,-2.144403 1.374881,-4.377433 1.399137,-6.654757 z"
       id="path1262"
       inkscape:path-effect="#path-effect1264"
       inkscape:original-d="m 85.861207,62.891109 c -0.351371,-6.860125 -2.458102,-16.885815 -3.687433,-25.329002 -1.229331,-8.443186 13.696368,-6.332062 20.544276,-9.498374 6.8479,-3.166314 10.88689,-14.423276 16.33006,-21.6351905 5.44316,-7.21191822 21.07123,1.7591453 31.60657,2.6384367 10.53534,0.879293 13.34518,1.0555628 22.1246,1.0553758 8.77943,-1.87e-4 4.91676,15.830813 5.26776,24.273627 0.351,8.442814 8.07743,12.312896 12.11586,18.469063 4.03843,6.156173 -8.77942,14.775444 -13.16941,22.162872 -4.38999,7.38744 1.05374,15.479029 1.58032,23.218259 0.5266,7.739224 -21.07086,3.166314 -31.60657,4.749184 -10.5357,1.58288 -12.64244,7.7396 -18.96394,11.60913 -6.3215,3.86952 -16.15428,-15.478641 -24.2317,-23.218256 -8.077424,-7.739608 -14.398364,1.95e-4 -20.017498,-2.638431 -5.619132,-2.638624 2.458477,-18.996568 2.107105,-25.856694 z"
       sodipodi:nodetypes="sssssssssssssss"
       inkscape:label="path1262" />
  </g>
</svg>
