<?xml version="1.0" encoding="UTF-8" standalone="no"?>
<!-- Created with Inkscape (http://www.inkscape.org/) -->

<svg
   width="1024"
   height="87"
   viewBox="0 0 270.93338 23.018748"
   version="1.1"
   id="svg5"
   inkscape:export-filename="../../tablet/background/tablet-about-background.svg"
   inkscape:export-xdpi="96"
   inkscape:export-ydpi="96"
   sodipodi:docname="tablet-contact-background.svg"
   inkscape:version="1.2.2 (b0a84865, 2022-12-01)"
   xmlns:inkscape="http://www.inkscape.org/namespaces/inkscape"
   xmlns:sodipodi="http://sodipodi.sourceforge.net/DTD/sodipodi-0.dtd"
   xmlns="http://www.w3.org/2000/svg"
   xmlns:svg="http://www.w3.org/2000/svg">
  <sodipodi:namedview
     id="namedview7"
     pagecolor="#ffffff"
     bordercolor="#000000"
     borderopacity="0.25"
     inkscape:showpageshadow="2"
     inkscape:pageopacity="0.0"
     inkscape:pagecheckerboard="0"
     inkscape:deskcolor="#d1d1d1"
     inkscape:document-units="mm"
     showgrid="false"
     inkscape:zoom="0.6499081"
     inkscape:cx="510.07212"
     inkscape:cy="56.161787"
     inkscape:window-width="1440"
     inkscape:window-height="757"
     inkscape:window-x="0"
     inkscape:window-y="25"
     inkscape:window-maximized="0"
     inkscape:current-layer="svg5" />
  <defs
     id="defs2" />
  <g
     inkscape:groupmode="layer"
     id="layer3"
     inkscape:label="contact"
     style="display:inline">
    <path
       id="rect616"
       style="display:inline;fill:#fafafa;stroke:#85b044;stroke-width:0.1;stroke-linecap:round;stroke-opacity:0"
       inkscape:label="rect616"
       d="M -4.8183105,-3.5331177 V 26.018567 H 274.95996 V -3.5331177 Z M 139.9713,2.6484172 v 4.801774 h 2.66237 v 3.5300168 h -2.66237 v 4.481381 c 0,0.538813 0.0515,0.89538 0.15451,1.069702 0.15848,0.269406 0.43581,0.404109 0.83199,0.404109 0.35657,0 0.85577,-0.103008 1.49759,-0.309025 l 0.35656,3.339848 c -1.19648,0.261483 -2.31372,0.392224 -3.35173,0.392224 -1.2044,0 -2.09186,-0.154512 -2.66237,-0.463537 -0.57051,-0.309026 -0.99443,-0.776525 -1.27176,-1.402499 -0.2694,-0.633897 -0.40411,-1.656057 -0.40411,-3.066479 v -4.445724 h -1.78283 V 7.4501912 h 1.78283 V 5.1325033 Z m 43.2754,0 v 4.801774 h 2.66237 v 3.5300168 h -2.66237 v 4.481381 c 0,0.538813 0.0515,0.89538 0.15451,1.069702 0.15847,0.269406 0.4358,0.404109 0.83199,0.404109 0.35657,0 0.85576,-0.103008 1.49758,-0.309025 l 0.35657,3.339848 c -1.19648,0.261483 -2.31373,0.392224 -3.35173,0.392224 -1.20441,0 -2.09187,-0.154512 -2.66237,-0.463537 -0.57051,-0.309026 -0.99443,-0.776525 -1.27176,-1.402499 -0.26941,-0.633897 -0.40411,-1.656057 -0.40411,-3.066479 v -4.445724 h -1.78284 V 7.4501912 h 1.78284 V 5.1325033 Z M 92.203158,7.1649373 c 2.060167,0 3.629063,0.3684527 4.706689,1.1053589 1.08555,0.7369062 1.846227,1.8145318 2.282031,3.2328778 l -4.552177,0.606681 c -0.142627,-0.538813 -0.404109,-0.943439 -0.784448,-1.212846 -0.372415,-0.27733 -0.875571,-0.415995 -1.509468,-0.415995 -0.800296,0 -1.450041,0.289216 -1.949236,0.867647 -0.49127,0.570508 -0.736905,1.438672 -0.736905,2.603459 0,1.038008 0.245635,1.826417 0.736905,2.36523 0.491271,0.538813 1.117245,0.80822 1.877922,0.80822 0.633898,0 1.164787,-0.162436 1.592668,-0.487309 0.435804,-0.324873 0.760677,-0.824067 0.974617,-1.497583 l 4.599719,0.522965 c -0.253559,0.958771 -0.669554,1.790761 -1.247985,2.495972 -0.578432,0.697288 -1.319299,1.240062 -2.222604,1.628324 -0.89538,0.388263 -2.036395,0.582394 -3.423047,0.582394 -1.339109,0 -2.456352,-0.122818 -3.351733,-0.368453 -0.887457,-0.253559 -1.652095,-0.657669 -2.293917,-1.212329 -0.641821,-0.562585 -1.144977,-1.220253 -1.509468,-1.973006 -0.364492,-0.752754 -0.546737,-1.751142 -0.546737,-2.995166 0,-1.299491 0.221864,-2.381595 0.665592,-3.24528 0.324873,-0.6338982 0.768601,-1.2004437 1.331185,-1.6996382 0.562585,-0.5071183 1.141016,-0.8834947 1.735295,-1.1291301 0.942923,-0.3882624 2.151289,-0.5823934 3.625102,-0.5823934 z m 16.081192,0 c 2.52766,0 4.43728,0.7329436 5.72885,2.1988322 1.038,1.1806345 1.55701,2.6351525 1.55701,4.3625245 0,1.941312 -0.64579,3.533978 -1.93735,4.778003 -1.28365,1.236101 -3.06252,1.85415 -5.33663,1.85415 -2.02847,0 -3.66868,-0.515041 -4.92063,-1.545125 -1.5372,-1.275719 -2.3058,-2.947623 -2.3058,-5.015715 0,-1.925464 0.64974,-3.510724 1.94923,-4.7547481 1.2995,-1.2519482 3.0546,-1.8779216 5.26532,-1.8779216 z m 18.68413,0 c 1.33911,0 2.38504,0.4001476 3.13779,1.2004436 0.76068,0.7923722 1.14102,2.0210651 1.14102,3.6850461 v 8.022766 h -4.86121 v -6.941178 c 0,-0.792372 -0.14658,-1.351511 -0.43976,-1.676383 -0.29318,-0.332797 -0.70521,-0.499195 -1.2361,-0.499195 -0.58636,0 -1.06178,0.222381 -1.42627,0.666109 -0.36449,0.443729 -0.54674,1.240062 -0.54674,2.389002 v 6.061645 h -4.83743 V 7.4501912 h 4.50463 v 2.0562053 c 0.67352,-0.8399146 1.35496,-1.438155 2.04432,-1.7947225 0.68937,-0.3644912 1.52928,-0.5467367 2.51975,-0.5467367 z m 24.28224,0 c 1.45004,0 2.61482,0.083199 3.49436,0.2495972 0.87953,0.1584745 1.61247,0.4952323 2.19883,1.0102743 0.41203,0.3565675 0.7369,0.8636852 0.97462,1.5213541 0.23771,0.6497451 0.35656,1.2722731 0.35656,1.8665531 v 5.574336 c 0,0.59428 0.0357,1.061779 0.10697,1.402499 0.0792,0.332796 0.24564,0.760677 0.4992,1.283642 h -4.54029 c -0.18225,-0.324872 -0.3011,-0.570507 -0.35657,-0.736906 -0.0555,-0.174321 -0.11093,-0.443728 -0.1664,-0.808219 -0.6339,0.610127 -1.26383,1.045931 -1.88981,1.307414 -0.85576,0.348644 -1.85018,0.522965 -2.98328,0.522965 -1.5055,0 -2.65048,-0.348643 -3.43493,-1.045931 -0.77652,-0.697287 -1.16479,-1.55701 -1.16479,-2.57917 0,-0.958771 0.2813,-1.74718 0.84388,-2.365231 0.56258,-0.61805 1.60059,-1.077626 3.11402,-1.378727 1.81453,-0.364491 2.99121,-0.61805 3.53002,-0.760677 0.53881,-0.150551 1.10932,-0.344682 1.71152,-0.582393 0,-0.59428 -0.12281,-1.010791 -0.36845,-1.248503 -0.24564,-0.237712 -0.67748,-0.356567 -1.29553,-0.356567 -0.79237,0 -1.38665,0.126779 -1.78284,0.380338 -0.30902,0.198093 -0.55862,0.571024 -0.74879,1.117761 l -4.62349,-0.487825 c 0.17432,-0.80822 0.42392,-1.442117 0.74879,-1.9016929 0.3328,-0.4674996 0.80822,-0.871609 1.42627,-1.2123291 0.44373,-0.2456354 1.05386,-0.4358045 1.83038,-0.5705078 0.77653,-0.1347033 1.61644,-0.2020549 2.51975,-0.2020549 z m 16.69924,0 c 2.06016,0 3.62906,0.3684527 4.70668,1.1053589 1.08555,0.7369062 1.84623,1.8145318 2.28204,3.2328778 l -4.55218,0.606681 c -0.14263,-0.538813 -0.40411,-0.943439 -0.78445,-1.212846 -0.37241,-0.27733 -0.87557,-0.415995 -1.50947,-0.415995 -0.80029,0 -1.45004,0.289216 -1.94923,0.867647 -0.49127,0.570508 -0.73691,1.438672 -0.73691,2.603459 0,1.038008 0.24564,1.826417 0.73691,2.36523 0.49127,0.538813 1.11724,0.80822 1.87792,0.80822 0.6339,0 1.16479,-0.162436 1.59267,-0.487309 0.4358,-0.324873 0.76067,-0.824067 0.97461,-1.497583 l 4.59972,0.522965 c -0.25356,0.958771 -0.66955,1.790761 -1.24798,2.495972 -0.57843,0.697288 -1.3193,1.240062 -2.22261,1.628324 -0.89538,0.388263 -2.03639,0.582394 -3.42304,0.582394 -1.33911,0 -2.45636,-0.122818 -3.35174,-0.368453 -0.88745,-0.253559 -1.65209,-0.657669 -2.29391,-1.212329 -0.64182,-0.562585 -1.14498,-1.220253 -1.50947,-1.973006 -0.36449,-0.752754 -0.54674,-1.751142 -0.54674,-2.995166 0,-1.299491 0.22187,-2.381595 0.66559,-3.24528 0.32488,-0.6338982 0.7686,-1.2004437 1.33119,-1.6996382 0.56258,-0.5071183 1.14101,-0.8834947 1.73529,-1.1291301 0.94293,-0.3882624 2.15129,-0.5823934 3.62511,-0.5823934 z M 108.35566,10.4929 c -0.70521,0 -1.2876,0.273368 -1.74718,0.820105 -0.45958,0.538813 -0.68936,1.363396 -0.68936,2.472717 0,1.125168 0.22582,1.957158 0.67747,2.495972 0.45958,0.538813 1.03405,0.808219 1.72341,0.808219 0.69729,0 1.2678,-0.265444 1.71153,-0.796334 0.45165,-0.530889 0.67747,-1.382689 0.67747,-2.555399 0,-1.093474 -0.22582,-1.906172 -0.67747,-2.437061 -0.45166,-0.538813 -1.01028,-0.808219 -1.67587,-0.808219 z m 45.18897,3.589961 c -0.66559,0.237712 -1.35891,0.44769 -2.07997,0.629936 -0.98255,0.261483 -1.60456,0.519004 -1.86604,0.772563 -0.26941,0.261483 -0.40411,0.558622 -0.40411,0.891418 0,0.380339 0.13074,0.693326 0.39223,0.938961 0.2694,0.237712 0.66163,0.356567 1.17667,0.356567 0.53881,0 1.038,-0.130741 1.49758,-0.392224 0.4675,-0.261483 0.79633,-0.578431 0.9865,-0.950846 0.1981,-0.380339 0.29714,-0.871609 0.29714,-1.473812 z" />
  </g>
  <g
     inkscape:groupmode="layer"
     id="layer2"
     inkscape:label="contact text"
     style="display:none">
    <text
       xml:space="preserve"
       style="font-weight:bold;font-size:24.3417px;font-family:'Arial Black';-inkscape-font-specification:'Arial Black,  Bold';display:inline;fill:#cbcbcb;fill-opacity:1;stroke:#85b044;stroke-width:0.1;stroke-linecap:round;stroke-opacity:0"
       x="83.966385"
       y="20.072947"
       id="text317"
       inkscape:label="text17768"><tspan
         sodipodi:role="line"
         id="tspan315"
         style="font-size:24.3417px;stroke:#85b044;stroke-width:0.1;stroke-opacity:0"
         x="83.966385"
         y="20.072947">contact</tspan></text>
  </g>
</svg>
