<?xml version="1.0" encoding="UTF-8" standalone="no"?>
<!-- Created with Inkscape (http://www.inkscape.org/) -->

<svg
   width="1024"
   height="87"
   viewBox="0 0 270.93338 23.018748"
   version="1.1"
   id="svg5"
   inkscape:export-filename="../../tablet/background/tablet-about-background.svg"
   inkscape:export-xdpi="96"
   inkscape:export-ydpi="96"
   sodipodi:docname="tablet-about-background.svg"
   inkscape:version="1.2.2 (b0a84865, 2022-12-01)"
   xmlns:inkscape="http://www.inkscape.org/namespaces/inkscape"
   xmlns:sodipodi="http://sodipodi.sourceforge.net/DTD/sodipodi-0.dtd"
   xmlns="http://www.w3.org/2000/svg"
   xmlns:svg="http://www.w3.org/2000/svg">
  <sodipodi:namedview
     id="namedview7"
     pagecolor="#ffffff"
     bordercolor="#000000"
     borderopacity="0.25"
     inkscape:showpageshadow="2"
     inkscape:pageopacity="0.0"
     inkscape:pagecheckerboard="0"
     inkscape:deskcolor="#d1d1d1"
     inkscape:document-units="mm"
     showgrid="false"
     inkscape:zoom="0.67376716"
     inkscape:cx="431.15785"
     inkscape:cy="-60.109786"
     inkscape:window-width="1440"
     inkscape:window-height="757"
     inkscape:window-x="0"
     inkscape:window-y="25"
     inkscape:window-maximized="0"
     inkscape:current-layer="svg5" />
  <defs
     id="defs2" />
  <g
     inkscape:label="about"
     inkscape:groupmode="layer"
     id="layer1">
    <path
       id="rect483"
       style="fill:#fafafa;stroke:#85b044;stroke-width:0.1;stroke-linecap:round;stroke-opacity:0"
       d="M -4.8183105,-3.5331177 V 26.018567 H 274.95996 V -3.5331177 Z M 115.3325,2.6546183 h 4.88497 v 6.0378744 c 0.48335,-0.5071183 1.03008,-0.8874565 1.64021,-1.1410156 0.61805,-0.2535592 1.29949,-0.3803386 2.04432,-0.3803386 1.5372,0 2.80896,0.55466 3.81527,1.6639811 1.00631,1.1013974 1.50947,2.6861404 1.50947,4.7542314 0,1.378728 -0.22979,2.595018 -0.68937,3.648873 -0.45957,1.045932 -1.09743,1.830379 -1.91357,2.353345 -0.80822,0.515042 -1.70757,0.772563 -2.69803,0.772563 -0.84784,0 -1.62436,-0.182246 -2.32957,-0.546737 -0.53089,-0.285254 -1.10933,-0.820105 -1.7353,-1.604553 v 1.866036 h -4.5284 z m 54.51915,0 v 4.8017741 h 2.66237 V 10.98641 h -2.66237 v 4.480863 c 0,0.538813 0.0515,0.89538 0.15451,1.069702 0.15847,0.269407 0.4358,0.40411 0.83199,0.40411 0.35657,0 0.85576,-0.103008 1.49758,-0.309025 l 0.35657,3.339848 c -1.19648,0.261482 -2.31372,0.392224 -3.35173,0.392224 -1.20441,0 -2.09186,-0.154513 -2.66237,-0.463538 -0.57051,-0.309025 -0.99443,-0.776524 -1.27176,-1.402498 -0.26941,-0.633898 -0.40411,-1.656057 -0.40411,-3.06648 V 10.98641 h -1.78284 V 7.4563924 h 1.78284 v -2.317688 z m -64.7051,4.5165202 c 1.45004,0 2.61483,0.083199 3.49436,0.2495972 0.87954,0.1584744 1.61248,0.4952323 2.19884,1.0102742 0.41203,0.3565675 0.7369,0.8636852 0.97461,1.5213542 0.23772,0.6497449 0.35657,1.2717569 0.35657,1.8660359 v 5.574337 c 0,0.594279 0.0357,1.061778 0.10697,1.402498 0.0792,0.332797 0.24564,0.760677 0.4992,1.283643 h -4.5403 c -0.18224,-0.324873 -0.3011,-0.570508 -0.35656,-0.736906 -0.0555,-0.174322 -0.11094,-0.443728 -0.1664,-0.80822 -0.6339,0.610127 -1.26383,1.045931 -1.88981,1.307414 -0.85576,0.348644 -1.85019,0.522966 -2.98328,0.522966 -1.50551,0 -2.65048,-0.348644 -3.434931,-1.045931 -0.776525,-0.697288 -1.164787,-1.557011 -1.164787,-2.579171 0,-0.95877 0.281292,-1.74718 0.843876,-2.36523 0.562584,-0.618051 1.600592,-1.077626 3.114022,-1.378728 1.81453,-0.364491 2.9912,-0.61805 3.53002,-0.760677 0.53881,-0.15055 1.10932,-0.344681 1.71152,-0.582393 0,-0.594279 -0.12282,-1.010274 -0.36845,-1.247986 -0.24564,-0.237712 -0.67748,-0.356567 -1.29553,-0.356567 -0.79237,0 -1.38665,0.126779 -1.78284,0.380338 -0.30902,0.198093 -0.55862,0.570508 -0.74879,1.117245 l -4.62349,-0.487309 c 0.174322,-0.80822 0.423919,-1.4421168 0.748792,-1.9016927 0.332796,-0.4674996 0.808218,-0.8716091 1.426268,-1.2123291 0.44373,-0.2456354 1.05386,-0.4358046 1.83038,-0.5705078 0.77653,-0.1347033 1.61644,-0.2020549 2.51974,-0.2020549 z m 33.01814,0 c 2.52767,0 4.43729,0.7329436 5.72885,2.1988322 1.03801,1.1806343 1.55701,2.6346363 1.55701,4.3620073 0,1.941312 -0.64578,3.533979 -1.93735,4.778003 -1.28364,1.236101 -3.06251,1.854151 -5.33662,1.854151 -2.02847,0 -3.66868,-0.515042 -4.92063,-1.545126 -1.5372,-1.275719 -2.3058,-2.947623 -2.3058,-5.015714 0,-1.925465 0.64974,-3.510208 1.94923,-4.7542319 1.29949,-1.2519482 3.05459,-1.8779216 5.26531,-1.8779216 z m 9.56789,0.2852539 h 4.86121 v 6.9411786 c 0,0.792372 0.14659,1.354956 0.43976,1.687752 0.29318,0.332796 0.70521,0.499194 1.2361,0.499194 0.57844,0 1.0499,-0.221864 1.41439,-0.665592 0.37241,-0.443728 0.55862,-1.240062 0.55862,-2.389001 V 7.4563924 h 4.83743 V 20.078878 h -4.51652 v -2.04432 c -0.67352,0.839915 -1.35496,1.438155 -2.04432,1.794723 -0.68144,0.356567 -1.52135,0.534851 -2.51974,0.534851 -1.33119,0 -2.37712,-0.396186 -3.1378,-1.188558 -0.75275,-0.800296 -1.12913,-2.028472 -1.12913,-3.68453 z m -9.49657,3.0427086 c -0.70521,0 -1.28761,0.273368 -1.74718,0.820105 -0.45958,0.538813 -0.68937,1.362879 -0.68937,2.4722 0,1.125169 0.22583,1.957159 0.67748,2.495972 0.45958,0.538813 1.03405,0.808219 1.72341,0.808219 0.69729,0 1.26779,-0.265444 1.71152,-0.796333 0.45166,-0.53089 0.67748,-1.382689 0.67748,-2.5554 0,-1.093474 -0.22582,-1.905654 -0.67748,-2.436544 -0.45165,-0.538813 -1.01027,-0.808219 -1.67586,-0.808219 z m -15.81971,0.285254 c -0.65767,0 -1.19648,0.245635 -1.61644,0.736906 -0.41203,0.483347 -0.61805,1.220252 -0.61805,2.210717 0,1.08555 0.20206,1.87396 0.60617,2.365231 0.41203,0.483347 0.93103,0.72502 1.55701,0.72502 0.57843,0 1.06178,-0.237711 1.45004,-0.713135 0.39618,-0.483347 0.59428,-1.291566 0.59428,-2.424658 0,-0.998389 -0.19413,-1.731333 -0.5824,-2.198832 -0.38034,-0.4675 -0.84387,-0.701249 -1.39061,-0.701249 z m -14.97583,3.304191 c -0.66559,0.237711 -1.35892,0.44769 -2.07998,0.629935 -0.98254,0.261483 -1.60455,0.519004 -1.86603,0.772563 -0.26941,0.261483 -0.40411,0.558622 -0.40411,0.891419 0,0.380338 0.13074,0.693325 0.39222,0.93896 0.26941,0.237712 0.66163,0.356568 1.17667,0.356568 0.53882,0 1.03801,-0.130742 1.49759,-0.392224 0.4675,-0.261483 0.79633,-0.578432 0.9865,-0.950847 0.19809,-0.380338 0.29714,-0.871609 0.29714,-1.473812 z" />
  </g>
  <g
     inkscape:groupmode="layer"
     id="layer12"
     inkscape:label="about text"
     style="display:none">
    <text
       xml:space="preserve"
       style="font-weight:bold;font-size:24.3417px;font-family:'Arial Black';-inkscape-font-specification:'Arial Black,  Bold';display:inline;fill:#cbcbcb;fill-opacity:1;stroke:#85b044;stroke-width:0.1;stroke-linecap:round;stroke-opacity:0"
       x="97.373337"
       y="20.07889"
       id="text17768"
       inkscape:label="text17768"><tspan
         sodipodi:role="line"
         id="tspan17766"
         style="font-size:24.3417px;stroke:#85b044;stroke-width:0.1;stroke-opacity:0"
         x="97.373337"
         y="20.07889">about</tspan></text>
  </g>
</svg>
