<?xml version="1.0" encoding="UTF-8" standalone="no"?>
<!-- Created with Inkscape (http://www.inkscape.org/) -->

<svg
   width="1920"
   height="206"
   viewBox="0 0 508.00009 54.504162"
   version="1.1"
   id="svg5"
   inkscape:export-filename="../../miliverse-portfolio/assets/desktop/background/desktop-about-background.svg"
   inkscape:export-xdpi="96"
   inkscape:export-ydpi="96"
   sodipodi:docname="desktop-contact-background.svg"
   inkscape:version="1.2.2 (b0a84865, 2022-12-01)"
   xmlns:inkscape="http://www.inkscape.org/namespaces/inkscape"
   xmlns:sodipodi="http://sodipodi.sourceforge.net/DTD/sodipodi-0.dtd"
   xmlns="http://www.w3.org/2000/svg"
   xmlns:svg="http://www.w3.org/2000/svg">
  <sodipodi:namedview
     id="namedview7"
     pagecolor="#ffffff"
     bordercolor="#000000"
     borderopacity="0.25"
     inkscape:showpageshadow="2"
     inkscape:pageopacity="0.0"
     inkscape:pagecheckerboard="0"
     inkscape:deskcolor="#d1d1d1"
     inkscape:document-units="mm"
     showgrid="false"
     inkscape:zoom="0.39652308"
     inkscape:cx="982.28834"
     inkscape:cy="-200.49274"
     inkscape:window-width="1440"
     inkscape:window-height="757"
     inkscape:window-x="0"
     inkscape:window-y="25"
     inkscape:window-maximized="0"
     inkscape:current-layer="svg5" />
  <defs
     id="defs2" />
  <g
     inkscape:groupmode="layer"
     id="layer3"
     inkscape:label="contact"
     style="display:inline">
    <path
       id="rect846"
       style="display:inline;fill:#fafafa;stroke:#85b044;stroke-width:0.1;stroke-linecap:round;stroke-opacity:0"
       inkscape:label="rect846"
       d="M -21.244181,-13.117029 V 67.621195 H 529.24418 V -13.117029 Z M 264.70684,6.1918701 V 17.60461 h 6.32778 v 8.390186 h -6.32778 v 10.650512 c 0,1.280657 0.12207,2.128151 0.3669,2.542481 0.37667,0.640328 1.036,0.960148 1.97766,0.960148 0.84749,0 2.03398,-0.244659 3.55947,-0.734322 l 0.8475,7.938017 c -2.84381,0.621495 -5.4993,0.932243 -7.96644,0.932243 -2.86265,0 -4.97179,-0.367248 -6.32778,-1.101742 -1.35599,-0.734494 -2.36391,-1.845308 -3.02307,-3.33313 -0.64033,-1.506655 -0.96015,-3.936137 -0.96015,-7.288444 V 25.994796 h -4.23747 V 17.60461 h 4.23747 v -5.508707 z m 102.85729,0 V 17.60461 h 6.32829 v 8.390186 h -6.32829 v 10.650512 c 0,1.280657 0.12259,2.128151 0.36742,2.542481 0.37666,0.640328 1.03599,0.960148 1.97765,0.960148 0.8475,0 2.03399,-0.244659 3.55948,-0.734322 l 0.84749,7.938017 c -2.84381,0.621495 -5.49929,0.932243 -7.96644,0.932243 -2.86264,0 -4.97231,-0.367248 -6.32829,-1.101742 -1.35599,-0.734494 -2.3634,-1.845308 -3.02256,-3.33313 -0.64033,-1.506655 -0.96066,-3.936137 -0.96066,-7.288444 V 25.994796 h -4.23747 V 17.60461 h 4.23747 V 12.095903 Z M 151.17062,16.926615 c 4.89663,0 8.6256,0.875744 11.18691,2.62723 2.58015,1.751486 4.38813,4.313146 5.42396,7.684286 L 156.962,28.67887 c -0.339,-1.280657 -0.9605,-2.24115 -1.86449,-2.881478 -0.88516,-0.659162 -2.08124,-0.989087 -3.58789,-0.989087 -1.90216,0 -3.44631,0.687584 -4.6328,2.062406 -1.16765,1.355989 -1.75131,3.418225 -1.75131,6.186703 0,2.467147 0.58366,4.341222 1.75131,5.621879 1.16766,1.280656 2.65531,1.920813 4.4633,1.920813 1.50665,0 2.76882,-0.385909 3.78581,-1.158069 1.03583,-0.772161 1.80764,-1.958652 2.31614,-3.559473 l 10.93267,1.242818 c -0.60267,2.278816 -1.59141,4.256302 -2.96623,5.932455 -1.37482,1.65732 -3.13538,2.947222 -5.28237,3.870048 -2.12815,0.922826 -4.84013,1.384412 -8.13593,1.384412 -3.18281,0 -5.83829,-0.292087 -7.96644,-0.875916 -2.10932,-0.602662 -3.9269,-1.563155 -5.45238,-2.881478 -1.52549,-1.337156 -2.72157,-2.899967 -3.5879,-4.689119 -0.86632,-1.789153 -1.29966,-4.162136 -1.29966,-7.118946 0,-3.088642 0.52767,-5.659373 1.58233,-7.71219 0.77216,-1.506655 1.82648,-2.853573 3.16363,-4.040064 1.33716,-1.205324 2.71233,-2.099728 4.12482,-2.683557 2.24114,-0.922826 5.11304,-1.384412 8.61601,-1.384412 z m 38.22195,0 c 6.00779,0 10.54694,1.742416 13.61674,5.226555 2.46715,2.806144 3.70055,6.261692 3.70055,10.367326 0,4.61413 -1.53507,8.399603 -4.60488,11.356412 -3.05098,2.937977 -7.27886,4.406967 -12.68398,4.406967 -4.8213,0 -8.71977,-1.223814 -11.69541,-3.672128 -3.65364,-3.032142 -5.48029,-7.006292 -5.48029,-11.921753 0,-4.576463 1.54415,-8.342759 4.63279,-11.299568 3.08864,-2.975643 7.26003,-4.463811 12.51448,-4.463811 z m 44.40866,0 c 3.18281,0 5.66879,0.951421 7.45795,2.853573 1.80798,1.883318 2.71197,4.80212 2.71197,8.757088 V 47.60588 H 232.41734 V 31.108179 c 0,-1.883319 -0.34859,-3.211059 -1.04542,-3.98322 -0.69682,-0.790993 -1.67598,-1.186491 -2.9378,-1.186491 -1.39366,0 -2.52365,0.527158 -3.38998,1.581816 -0.86632,1.054658 -1.29966,2.947395 -1.29966,5.678206 V 47.60588 H 212.24699 V 17.60461 h 10.70633 v 4.887557 c 1.60082,-1.996317 3.22064,-3.418396 4.85913,-4.265889 1.63849,-0.866327 3.63463,-1.299663 5.98878,-1.299663 z m 57.71431,0 c 3.44647,0 6.21495,0.197749 8.30544,0.593246 2.09048,0.376664 3.83289,1.177247 5.22655,2.401404 0.97933,0.847493 1.75114,2.052645 2.31614,3.6158 0.56499,1.544321 0.84749,3.022899 0.84749,4.435388 v 13.24932 c 0,1.412489 0.0847,2.523303 0.25425,3.33313 0.18833,0.790994 0.58383,1.807987 1.18649,3.050977 h -10.79107 c -0.43317,-0.772161 -0.71566,-1.355818 -0.8475,-1.751315 -0.13183,-0.41433 -0.26401,-1.054486 -0.39584,-1.920813 -1.50665,1.450156 -3.00389,2.485809 -4.49171,3.107304 -2.03399,0.82866 -4.39738,1.242819 -7.09053,1.242819 -3.5783,0 -6.29987,-0.828317 -8.16436,-2.485637 -1.84565,-1.65732 -2.7683,-3.700894 -2.7683,-6.130375 0,-2.278815 0.6684,-4.152891 2.00556,-5.621879 1.33716,-1.468988 3.80448,-2.561142 7.40162,-3.276803 4.31279,-0.866326 7.10952,-1.469161 8.39018,-1.808158 1.28066,-0.357831 2.63665,-0.818899 4.06797,-1.383895 0,-1.412489 -0.29209,-2.401232 -0.87592,-2.966227 -0.58382,-0.564996 -1.60989,-0.847494 -3.07888,-0.847494 -1.88332,0 -3.29581,0.301159 -4.23746,0.903821 -0.7345,0.47083 -1.32774,1.356162 -1.77974,2.655652 l -10.98951,-1.158586 c 0.41433,-1.920984 1.00757,-3.427296 1.77974,-4.51962 0.79099,-1.111158 1.92098,-2.071651 3.38997,-2.881478 1.05466,-0.583829 2.50499,-1.035826 4.35064,-1.35599 1.84565,-0.320164 3.8418,-0.480591 5.98878,-0.480591 z m 39.69112,0 c 4.89662,0 8.6256,0.875744 11.18691,2.62723 2.58015,1.751486 4.38813,4.313146 5.42396,7.684286 l -10.8195,1.440739 c -0.33899,-1.280657 -0.96049,-2.24115 -1.86448,-2.881478 -0.88516,-0.659162 -2.08124,-0.989087 -3.5879,-0.989087 -1.90215,0 -3.4463,0.687584 -4.63279,2.062406 -1.16766,1.355989 -1.75183,3.418225 -1.75183,6.186703 0,2.467147 0.58417,4.341222 1.75183,5.621879 1.16766,1.280656 2.65531,1.920813 4.4633,1.920813 1.50665,0 2.7683,-0.385909 3.78529,-1.158069 1.03583,-0.772161 1.80816,-1.958652 2.31666,-3.559473 l 10.93266,1.242818 c -0.60266,2.278816 -1.5914,4.256302 -2.96622,5.932455 -1.37482,1.65732 -3.1359,2.947222 -5.28288,3.870048 -2.12815,0.922826 -4.84013,1.384412 -8.13594,1.384412 -3.18281,0 -5.83829,-0.292087 -7.96644,-0.875916 -2.10932,-0.602662 -3.92638,-1.563155 -5.45186,-2.881478 -1.52549,-1.337156 -2.72157,-2.899967 -3.5879,-4.689119 -0.86633,-1.789153 -1.29966,-4.162136 -1.29966,-7.118946 0,-3.088642 0.52767,-5.659373 1.58233,-7.71219 0.77216,-1.506655 1.82648,-2.853573 3.16363,-4.040064 1.33716,-1.205324 2.71233,-2.099728 4.12482,-2.683557 2.24114,-0.922826 5.11303,-1.384412 8.61601,-1.384412 z m -141.64459,7.910112 c -1.67615,0 -3.06039,0.649745 -4.15272,1.949235 -1.09232,1.280656 -1.63814,3.239481 -1.63814,5.876127 0,2.674312 0.53675,4.651798 1.61024,5.932454 1.09232,1.280657 2.45739,1.920813 4.09587,1.920813 1.65732,0 3.01331,-0.631084 4.06797,-1.892907 1.07349,-1.261824 1.61024,-3.28622 1.61024,-6.073531 0,-2.59898 -0.53675,-4.529555 -1.61024,-5.791378 -1.07349,-1.280657 -2.40123,-1.920813 -3.98322,-1.920813 z m 107.40585,8.531262 c -1.58199,0.564996 -3.23006,1.06442 -4.94388,1.497583 -2.33532,0.621495 -3.81338,1.233402 -4.43488,1.836064 -0.64032,0.621495 -0.96066,1.32774 -0.96066,2.118733 0,0.903993 0.31075,1.648077 0.93224,2.231906 0.64033,0.564995 1.57257,0.847493 2.79673,0.847493 1.28066,0 2.46715,-0.310748 3.55947,-0.932243 1.11116,-0.621495 1.89257,-1.375167 2.34456,-2.260327 0.47083,-0.903993 0.70642,-2.071307 0.70642,-3.502629 z" />
  </g>
  <g
     inkscape:groupmode="layer"
     id="layer2"
     inkscape:label="contact text"
     style="display:none">
    <text
       xml:space="preserve"
       style="font-weight:bold;font-size:57.8556px;font-family:'Arial Black';-inkscape-font-specification:'Arial Black,  Bold';display:inline;fill:#cbcbcb;fill-opacity:1;stroke:#85b044;stroke-width:0.1;stroke-linecap:round;stroke-opacity:0"
       x="131.5936"
       y="47.606068"
       id="text317"
       inkscape:label="text17768"><tspan
         sodipodi:role="line"
         id="tspan315"
         style="font-size:57.8556px;stroke:#85b044;stroke-width:0.1;stroke-opacity:0"
         x="131.5936"
         y="47.606068">contact</tspan></text>
  </g>
</svg>
