<?xml version="1.0" encoding="UTF-8" standalone="no"?>
<!-- Created with Inkscape (http://www.inkscape.org/) -->

<svg
   width="1920"
   height="206"
   viewBox="0 0 508.00009 54.504162"
   version="1.1"
   id="svg5"
   inkscape:export-filename="../../miliverse-portfolio/assets/desktop/background/desktop-about-background.svg"
   inkscape:export-xdpi="96"
   inkscape:export-ydpi="96"
   sodipodi:docname="desktop-titles-background.svg"
   inkscape:version="1.2.2 (b0a84865, 2022-12-01)"
   xmlns:inkscape="http://www.inkscape.org/namespaces/inkscape"
   xmlns:sodipodi="http://sodipodi.sourceforge.net/DTD/sodipodi-0.dtd"
   xmlns="http://www.w3.org/2000/svg"
   xmlns:svg="http://www.w3.org/2000/svg">
  <sodipodi:namedview
     id="namedview7"
     pagecolor="#ffffff"
     bordercolor="#000000"
     borderopacity="0.25"
     inkscape:showpageshadow="2"
     inkscape:pageopacity="0.0"
     inkscape:pagecheckerboard="0"
     inkscape:deskcolor="#d1d1d1"
     inkscape:document-units="mm"
     showgrid="false"
     inkscape:zoom="0.39652308"
     inkscape:cx="921.76223"
     inkscape:cy="-200.49274"
     inkscape:window-width="1440"
     inkscape:window-height="757"
     inkscape:window-x="0"
     inkscape:window-y="25"
     inkscape:window-maximized="0"
     inkscape:current-layer="layer14" />
  <defs
     id="defs2" />
  <g
     inkscape:label="about"
     inkscape:groupmode="layer"
     id="layer1"
     style="display:none">
    <path
       id="rect823"
       style="fill:#fafafa;stroke:#85b044;stroke-width:0.1;stroke-linecap:round;stroke-opacity:0"
       d="M -21.244181,-13.117029 V 67.621195 H 529.24418 V -13.117029 Z M 206.14504,6.2058228 H 217.7557 V 20.556885 c 1.14882,-1.205324 2.44832,-2.109318 3.89847,-2.711979 1.46899,-0.602662 3.0883,-0.903821 4.85862,-0.903821 3.65364,0 6.67636,1.318151 9.06818,3.954797 2.39181,2.617813 3.58789,6.384625 3.58789,11.300086 0,3.276974 -0.54633,6.167525 -1.63866,8.672338 -1.09232,2.485981 -2.60822,4.350467 -4.54804,5.593458 -1.92098,1.224156 -4.05838,1.83658 -6.41253,1.83658 -2.01515,0 -3.86097,-0.433336 -5.53713,-1.299662 -1.26182,-0.677995 -2.63647,-1.949236 -4.12429,-3.813721 v 4.435388 h -10.76317 z m 129.58175,0 V 17.61908 h 6.32778 v 8.390185 h -6.32778 v 10.649996 c 0,1.280657 0.12208,2.12815 0.36691,2.542481 0.37666,0.640328 1.03599,0.960664 1.97765,0.960664 0.8475,0 2.03399,-0.245176 3.55948,-0.734838 l 0.84749,7.938533 c -2.84381,0.621495 -5.49929,0.932243 -7.96644,0.932243 -2.86264,0 -4.97179,-0.367247 -6.32778,-1.101742 -1.35599,-0.734494 -2.36391,-1.845825 -3.02307,-3.333646 -0.64033,-1.506655 -0.96015,-3.936138 -0.96015,-7.288444 V 26.009265 h -4.23746 V 17.61908 h 4.23746 V 12.110372 Z M 181.93463,16.941085 c 3.44647,0 6.21495,0.197748 8.30544,0.593245 2.09048,0.376664 3.8329,1.17673 5.22655,2.400887 0.97933,0.847494 1.75114,2.053163 2.31614,3.616317 0.565,1.544321 0.84749,3.022383 0.84749,4.434871 v 13.249321 c 0,1.412489 0.0848,2.52382 0.25425,3.333647 0.18833,0.790993 0.58383,1.807986 1.18649,3.050976 h -10.79107 c -0.43316,-0.77216 -0.71566,-1.356334 -0.84749,-1.751831 -0.13184,-0.41433 -0.26401,-1.054486 -0.39585,-1.920813 -1.50665,1.450155 -3.00389,2.485809 -4.49171,3.107304 -2.03398,0.82866 -4.39738,1.243335 -7.09052,1.243335 -3.57831,0 -6.29988,-0.828833 -8.16436,-2.486153 -1.84566,-1.65732 -2.76831,-3.700895 -2.76831,-6.130375 0,-2.278816 0.66841,-4.152374 2.00556,-5.621363 1.33716,-1.468988 3.80448,-2.561658 7.40162,-3.277319 4.3128,-0.866327 7.10953,-1.468644 8.39018,-1.807642 1.28066,-0.35783 2.63665,-0.819416 4.06797,-1.384411 0,-1.412489 -0.29209,-2.401232 -0.87591,-2.966227 -0.58383,-0.564996 -1.6099,-0.847494 -3.07889,-0.847494 -1.88331,0 -3.2958,0.301159 -4.23746,0.903821 -0.7345,0.470829 -1.32774,1.356162 -1.77974,2.655652 L 166.4255,26.178764 c 0.41433,-1.920985 1.00758,-3.427813 1.77974,-4.520138 0.79099,-1.111158 1.92098,-2.071651 3.38997,-2.881478 1.05466,-0.583828 2.50499,-1.035825 4.35064,-1.355989 1.84565,-0.320164 3.8418,-0.480074 5.98878,-0.480074 z m 78.4779,0 c 6.00778,0 10.54693,1.741898 13.61674,5.226037 2.46715,2.806145 3.70055,6.262209 3.70055,10.367843 0,4.61413 -1.53508,8.399603 -4.60489,11.356413 -3.05097,2.937976 -7.27886,4.406966 -12.68398,4.406966 -4.82129,0 -8.71977,-1.22433 -11.69541,-3.672644 -3.65364,-3.032143 -5.48029,-7.005775 -5.48029,-11.921236 0,-4.576464 1.54415,-8.343276 4.6328,-11.300086 3.08864,-2.975643 7.26002,-4.463293 12.51448,-4.463293 z m 22.74125,0.677995 h 11.55433 v 16.497701 c 0,1.883318 0.34807,3.220647 1.0449,4.011641 0.69682,0.790994 1.6765,1.186491 2.93832,1.186491 1.37482,0 2.49522,-0.527674 3.36155,-1.582332 0.88516,-1.054659 1.32757,-2.947395 1.32757,-5.678207 V 17.61908 h 11.498 v 30.001269 h -10.73526 v -4.859135 c -1.60082,1.996318 -3.22013,3.418396 -4.85862,4.26589 -1.61965,0.847493 -3.61631,1.27124 -5.98929,1.27124 -3.16398,0 -5.64996,-0.941832 -7.45795,-2.825151 -1.78915,-1.902151 -2.68355,-4.821469 -2.68355,-8.757605 z m -22.57175,7.2316 c -1.67616,0 -3.0604,0.649745 -4.15272,1.949235 -1.09233,1.280656 -1.63814,3.239481 -1.63814,5.876127 0,2.674312 0.53674,4.651798 1.61023,5.932454 1.09233,1.280657 2.45739,1.920813 4.09588,1.920813 1.65732,0 3.01331,-0.630568 4.06797,-1.892391 1.07349,-1.261823 1.61023,-3.286737 1.61023,-6.074048 0,-2.598979 -0.53674,-4.529037 -1.61023,-5.790861 -1.07349,-1.280656 -2.40124,-1.921329 -3.98322,-1.921329 z m -37.60029,0.677994 c -1.56316,0 -2.84399,0.584174 -3.84214,1.751831 -0.97933,1.148825 -1.46865,2.900312 -1.46865,5.25446 0,2.580146 0.48025,4.453705 1.44074,5.621362 0.97933,1.148825 2.21273,1.723409 3.70055,1.723409 1.37482,0 2.52347,-0.564996 3.4463,-1.694987 0.94166,-1.148824 1.41283,-3.06981 1.41283,-5.762955 0,-2.372982 -0.46158,-4.11488 -1.38441,-5.226038 -0.90399,-1.111158 -2.00573,-1.667082 -3.30522,-1.667082 z m -35.59473,7.853784 c -1.58199,0.564996 -3.23006,1.063904 -4.94388,1.497067 -2.33532,0.621495 -3.81338,1.233401 -4.43487,1.836063 -0.64033,0.621495 -0.96067,1.32774 -0.96067,2.118734 0,0.903993 0.31075,1.648077 0.93224,2.231905 0.64033,0.564996 1.57258,0.847494 2.79673,0.847494 1.28066,0 2.46715,-0.310748 3.55948,-0.932243 1.11115,-0.621495 1.89256,-1.374651 2.34455,-2.259811 0.47083,-0.903992 0.70642,-2.071823 0.70642,-3.503145 z" />
  </g>
  <g
     inkscape:groupmode="layer"
     id="layer14"
     inkscape:label="projects"
     style="display:inline">
    <path
       id="rect317"
       style="display:inline;fill:#f1f3f4;fill-opacity:1;stroke:#85b044;stroke-width:0.1;stroke-linecap:round;stroke-opacity:0"
       inkscape:label="rect846"
       d="M -21.244181,-13.117029 V 67.621195 H 529.24418 V -13.117029 Z M 230.32651,0.45733643 h 11.52591 V 8.3669312 h -11.52591 z m 109.86358,0 V 11.870076 h 6.32778 v 8.390186 h -6.32778 v 10.649996 c 0,1.280656 0.12259,2.12815 0.36742,2.54248 0.37666,0.640329 1.03548,0.960665 1.97714,0.960665 0.84749,0 2.03398,-0.244659 3.55947,-0.734322 l 0.84749,7.938017 c -2.84381,0.621495 -5.49929,0.932243 -7.96644,0.932243 -2.86264,0 -4.97178,-0.367248 -6.32777,-1.101742 -1.35599,-0.734494 -2.3634,-1.845825 -3.02256,-3.333646 -0.64033,-1.506655 -0.96066,-3.936138 -0.96066,-7.288444 V 20.260262 h -4.23747 v -8.390186 h 4.23747 V 6.3613688 Z M 146.56625,11.192082 c 4.01147,0 7.10935,1.535078 9.294,4.604887 2.20349,3.069809 3.30523,6.864354 3.30523,11.384318 0,4.990793 -1.19608,8.804516 -3.5879,11.441162 -2.39181,2.617812 -5.41454,3.926892 -9.06818,3.926892 -1.77032,0 -3.38963,-0.301159 -4.85861,-0.903821 -1.45016,-0.602662 -2.75017,-1.497583 -3.89899,-2.684074 v 14.32264 h -11.61066 v -41.41401 h 10.76317 v 4.435389 c 1.48782,-1.864486 2.8534,-3.126654 4.09639,-3.785816 1.67615,-0.885159 3.53156,-1.327567 5.56555,-1.327567 z m 36.27272,0 c 1.69499,0 3.54988,0.527157 5.56503,1.581815 l -3.55947,8.192782 c -1.35599,-0.564996 -2.42948,-0.847494 -3.22047,-0.847494 -1.50666,0 -2.67449,0.621496 -3.50315,1.864486 -1.18649,1.751486 -1.77974,5.028463 -1.77974,9.830925 v 10.05675 h -11.55381 v -30.00127 h 10.76316 v 4.915463 c 1.03583,-2.12815 2.09973,-3.587551 3.19206,-4.378544 1.11116,-0.809827 2.47674,-1.214913 4.09639,-1.214913 z m 24.18147,0 c 6.00778,0 10.54693,1.741898 13.61674,5.226037 2.46715,2.806145 3.70055,6.262209 3.70055,10.367843 0,4.61413 -1.53508,8.399603 -4.60489,11.356413 -3.05097,2.937976 -7.27886,4.406966 -12.68398,4.406966 -4.82129,0 -8.71977,-1.22433 -11.69541,-3.672644 -3.65364,-3.032143 -5.48029,-7.005775 -5.48029,-11.921236 0,-4.576464 1.54415,-8.343276 4.6328,-11.300086 3.08864,-2.975643 7.26002,-4.463293 12.51448,-4.463293 z m 57.62956,0 c 4.29396,0 7.68394,0.649745 10.16992,1.949235 2.48598,1.299489 4.37871,3.182637 5.6782,5.649784 1.29949,2.467147 1.94924,5.678552 1.94924,9.633521 v 1.299145 h -23.05182 c 0.20716,1.845652 0.70659,3.22082 1.49758,4.124813 1.11116,1.29949 2.56097,1.949235 4.35012,1.949235 1.12999,0 2.20348,-0.282498 3.22048,-0.847494 0.62149,-0.35783 1.29041,-0.988914 2.00608,-1.892907 l 11.32799,1.045414 c -1.73266,3.013309 -3.82314,5.178955 -6.27146,6.497278 -2.44831,1.299489 -5.96087,1.949235 -10.53734,1.949235 -3.9738,0 -7.09994,-0.555407 -9.37875,-1.666565 -2.27882,-1.129991 -4.17155,-2.909728 -5.67821,-5.339209 -1.48782,-2.448314 -2.2319,-5.320721 -2.2319,-8.616528 0,-4.689463 1.49724,-8.484008 4.49171,-11.384318 3.01331,-2.900311 7.16603,-4.350639 12.45816,-4.350639 z m 39.18262,0 c 4.89662,0 8.6256,0.875743 11.18691,2.62723 2.58015,1.751486 4.38813,4.312628 5.42396,7.683768 l -10.8195,1.440739 c -0.33899,-1.280656 -0.96049,-2.241149 -1.86448,-2.881478 -0.88516,-0.659161 -2.08124,-0.98857 -3.5879,-0.98857 -1.90215,0 -3.4463,0.687584 -4.63279,2.062407 -1.16765,1.355989 -1.75183,3.418224 -1.75183,6.186702 0,2.467147 0.58418,4.340706 1.75183,5.621362 1.16766,1.280657 2.65531,1.92133 4.4633,1.92133 1.50665,0 2.7683,-0.386425 3.78529,-1.158586 1.03583,-0.77216 1.80816,-1.958652 2.31666,-3.559472 l 10.93267,1.243335 c -0.60267,2.278815 -1.59141,4.256301 -2.96623,5.932454 -1.37482,1.65732 -3.1359,2.947222 -5.28288,3.870048 -2.12815,0.922826 -4.84013,1.384412 -8.13594,1.384412 -3.18281,0 -5.83829,-0.292087 -7.96644,-0.875916 -2.10932,-0.602662 -3.92638,-1.563155 -5.45186,-2.881478 -1.52549,-1.337156 -2.72157,-2.900483 -3.5879,-4.689636 -0.86632,-1.789152 -1.29966,-4.162135 -1.29966,-7.118945 0,-3.088642 0.52767,-5.659374 1.58233,-7.712191 0.77216,-1.506655 1.82648,-2.853056 3.16363,-4.039547 1.33716,-1.205323 2.71233,-2.099728 4.12482,-2.683557 2.24114,-0.922826 5.11304,-1.384411 8.61601,-1.384411 z m 61.98019,0 c 3.57831,0 6.21513,0.272909 7.91011,0.819071 1.71382,0.546162 3.13539,1.393656 4.26538,2.542481 1.14882,1.148824 2.10024,2.702563 2.85357,4.661214 l -10.90476,1.073836 c -0.2825,-0.960492 -0.75316,-1.666737 -1.41232,-2.118734 -0.90399,-0.602662 -1.99666,-0.904337 -3.27732,-0.904337 -1.29949,0 -2.25039,0.235587 -2.85305,0.706417 -0.58383,0.451996 -0.87592,1.007403 -0.87592,1.666565 0,0.734494 0.37684,1.290418 1.13017,1.667081 0.75332,0.376664 2.39181,0.715662 4.91546,1.016992 3.82313,0.433164 6.66729,1.035482 8.53178,1.807642 1.86448,0.772161 3.28604,1.873903 4.26537,3.305225 0.99816,1.431322 1.49758,3.004238 1.49758,4.718058 0,1.732653 -0.52767,3.418052 -1.58233,5.056539 -1.03583,1.638487 -2.68339,2.947566 -4.94337,3.926892 -2.24115,0.960492 -5.30171,1.440739 -9.18135,1.440739 -5.48046,0 -9.38852,-0.781922 -11.72383,-2.345077 -2.31648,-1.563154 -3.80413,-3.785299 -4.46329,-6.666776 l 11.41274,-1.07332 c 0.47082,1.35599 1.13016,2.325555 1.97765,2.909383 0.8475,0.583829 1.97749,0.875916 3.38998,0.875916 1.54432,0 2.73988,-0.329409 3.58737,-0.98857 0.65917,-0.489663 0.98909,-1.102086 0.98909,-1.836581 0,-0.82866 -0.43333,-1.468816 -1.29966,-1.920813 -0.6215,-0.320164 -2.26957,-0.715661 -4.94389,-1.18649 -3.99263,-0.696828 -6.77018,-1.336985 -8.33334,-1.920813 -1.54432,-0.602662 -2.8534,-1.610583 -3.92689,-3.023072 -1.05466,-1.412488 -1.58181,-3.022727 -1.58181,-4.830713 0,-1.977484 0.57406,-3.681544 1.72289,-5.112866 1.14882,-1.431322 2.73081,-2.495742 4.74596,-3.19257 2.01515,-0.715661 4.71806,-1.073319 8.10803,-1.073319 z m -135.4863,0.677994 h 11.52591 v 29.097449 c 0,3.710137 -0.27291,6.337369 -0.81907,7.88169 -0.52733,1.544321 -1.51607,2.796384 -2.96623,3.756876 -1.45015,0.960493 -3.52198,1.440739 -6.21512,1.440739 -2.22232,0 -4.98121,-0.329408 -8.27702,-0.98857 l 1.72341,-8.361763 c 0.92283,0.188331 1.60082,0.282153 2.03399,0.282153 0.97932,0 1.72289,-0.338998 2.23139,-1.016992 0.50849,-0.659162 0.76274,-1.986902 0.76274,-3.98322 z m 34.80408,6.130376 c -1.82682,0 -3.28674,0.724906 -4.37906,2.175061 -0.69683,0.903993 -1.13924,2.250394 -1.32757,4.039546 h 11.32799 c -0.226,-2.222315 -0.82832,-3.813376 -1.80764,-4.773868 -0.96049,-0.960493 -2.23174,-1.440739 -3.81372,-1.440739 z m -57.94065,1.101741 c -1.67616,0 -3.0604,0.649746 -4.15272,1.949235 -1.09233,1.280657 -1.63814,3.238965 -1.63814,5.875611 0,2.674312 0.53674,4.651798 1.61023,5.932454 1.09233,1.280656 2.45739,1.92133 4.09588,1.92133 1.65732,0 3.01331,-0.631085 4.06797,-1.892908 1.07349,-1.261823 1.61023,-3.28622 1.61023,-6.073531 0,-2.598979 -0.53674,-4.529555 -1.61023,-5.791378 -1.07349,-1.280656 -2.40124,-1.920813 -3.98322,-1.920813 z m -64.38109,0.536402 c -1.46898,0 -2.69331,0.574584 -3.67264,1.723409 -0.97933,1.148824 -1.46916,3.01331 -1.46916,5.593457 0,2.372981 0.49942,4.134057 1.49758,5.282881 0.99816,1.148824 2.25981,1.722893 3.7853,1.722893 1.33716,0 2.45808,-0.545819 3.36207,-1.638143 0.90399,-1.111158 1.35599,-2.985234 1.35599,-5.621879 0,-2.429481 -0.47118,-4.209218 -1.41283,-5.339209 -0.94166,-1.148825 -2.09032,-1.723409 -3.44631,-1.723409 z" />
  </g>
  <g
     inkscape:groupmode="layer"
     id="layer3"
     inkscape:label="contact"
     style="display:none">
    <rect
       style="display:inline;fill:#fafafa;stroke:#85b044;stroke-width:0.1;stroke-linecap:round;stroke-opacity:0"
       id="rect846"
       width="550.4881"
       height="80.738258"
       x="-21.244049"
       y="-13.117045"
       inkscape:label="rect846" />
  </g>
  <g
     inkscape:groupmode="layer"
     id="layer12"
     inkscape:label="about text"
     style="display:none">
    <text
       xml:space="preserve"
       style="font-weight:bold;font-size:57.8556px;font-family:'Arial Black';-inkscape-font-specification:'Arial Black,  Bold';display:inline;fill:#cbcbcb;fill-opacity:1;stroke:#85b044;stroke-width:0.1;stroke-linecap:round;stroke-opacity:0"
       x="163.45937"
       y="47.620193"
       id="text17768"
       inkscape:label="text17768"><tspan
         sodipodi:role="line"
         id="tspan17766"
         style="font-size:57.8556px;stroke:#85b044;stroke-width:0.1;stroke-opacity:0"
         x="163.45937"
         y="47.620193">about</tspan></text>
  </g>
  <g
     inkscape:groupmode="layer"
     id="layer13"
     inkscape:label="projects text"
     style="display:none">
    <text
       xml:space="preserve"
       style="font-weight:bold;font-size:57.8556px;font-family:'Arial Black';-inkscape-font-specification:'Arial Black,  Bold';display:inline;fill:#fafafa;stroke:#85b044;stroke-width:0.1;stroke-linecap:round;stroke-opacity:0"
       x="122.61016"
       y="41.871357"
       id="text17247"><tspan
         sodipodi:role="line"
         id="tspan17245"
         style="font-size:57.8556px;fill:#cbcbcb;fill-opacity:1;stroke-width:0.1"
         x="122.61016"
         y="41.871357">projects</tspan></text>
  </g>
  <g
     inkscape:groupmode="layer"
     id="layer2"
     inkscape:label="contact text"
     style="display:none">
    <text
       xml:space="preserve"
       style="font-weight:bold;font-size:57.8556px;font-family:'Arial Black';-inkscape-font-specification:'Arial Black,  Bold';display:inline;fill:#cbcbcb;fill-opacity:1;stroke:#85b044;stroke-width:0.1;stroke-linecap:round;stroke-opacity:0"
       x="131.5936"
       y="47.606068"
       id="text317"
       inkscape:label="text17768"><tspan
         sodipodi:role="line"
         id="tspan315"
         style="font-size:57.8556px;stroke:#85b044;stroke-width:0.1;stroke-opacity:0"
         x="131.5936"
         y="47.606068">contact</tspan></text>
  </g>
</svg>
