<?xml version="1.0" encoding="UTF-8" standalone="no"?>
<!-- Created with Inkscape (http://www.inkscape.org/) -->

<svg
   width="1920"
   height="206"
   viewBox="0 0 508.00009 54.504162"
   version="1.1"
   id="svg5"
   inkscape:export-filename="../../miliverse-portfolio/assets/desktop/background/desktop-about-background.svg"
   inkscape:export-xdpi="96"
   inkscape:export-ydpi="96"
   sodipodi:docname="desktop-titles-background.svg"
   inkscape:version="1.2.2 (b0a84865, 2022-12-01)"
   xmlns:inkscape="http://www.inkscape.org/namespaces/inkscape"
   xmlns:sodipodi="http://sodipodi.sourceforge.net/DTD/sodipodi-0.dtd"
   xmlns="http://www.w3.org/2000/svg"
   xmlns:svg="http://www.w3.org/2000/svg">
  <sodipodi:namedview
     id="namedview7"
     pagecolor="#ffffff"
     bordercolor="#000000"
     borderopacity="0.25"
     inkscape:showpageshadow="2"
     inkscape:pageopacity="0.0"
     inkscape:pagecheckerboard="0"
     inkscape:deskcolor="#d1d1d1"
     inkscape:document-units="mm"
     showgrid="false"
     inkscape:zoom="0.39652308"
     inkscape:cx="921.76222"
     inkscape:cy="-203.01466"
     inkscape:window-width="1440"
     inkscape:window-height="757"
     inkscape:window-x="0"
     inkscape:window-y="25"
     inkscape:window-maximized="0"
     inkscape:current-layer="layer12" />
  <defs
     id="defs2" />
  <g
     inkscape:label="about"
     inkscape:groupmode="layer"
     id="layer1"
     style="display:inline">
    <path
       id="rect823"
       style="fill:#fafafa;stroke:#85b044;stroke-width:0.1;stroke-linecap:round;stroke-opacity:0"
       d="M -21.244181,-13.117029 V 67.621195 H 529.24418 V -13.117029 Z M 206.14504,6.2058228 H 217.7557 V 20.556885 c 1.14882,-1.205324 2.44832,-2.109318 3.89847,-2.711979 1.46899,-0.602662 3.0883,-0.903821 4.85862,-0.903821 3.65364,0 6.67636,1.318151 9.06818,3.954797 2.39181,2.617813 3.58789,6.384625 3.58789,11.300086 0,3.276974 -0.54633,6.167525 -1.63866,8.672338 -1.09232,2.485981 -2.60822,4.350467 -4.54804,5.593458 -1.92098,1.224156 -4.05838,1.83658 -6.41253,1.83658 -2.01515,0 -3.86097,-0.433336 -5.53713,-1.299662 -1.26182,-0.677995 -2.63647,-1.949236 -4.12429,-3.813721 v 4.435388 h -10.76317 z m 129.58175,0 V 17.61908 h 6.32778 v 8.390185 h -6.32778 v 10.649996 c 0,1.280657 0.12208,2.12815 0.36691,2.542481 0.37666,0.640328 1.03599,0.960664 1.97765,0.960664 0.8475,0 2.03399,-0.245176 3.55948,-0.734838 l 0.84749,7.938533 c -2.84381,0.621495 -5.49929,0.932243 -7.96644,0.932243 -2.86264,0 -4.97179,-0.367247 -6.32778,-1.101742 -1.35599,-0.734494 -2.36391,-1.845825 -3.02307,-3.333646 -0.64033,-1.506655 -0.96015,-3.936138 -0.96015,-7.288444 V 26.009265 h -4.23746 V 17.61908 h 4.23746 V 12.110372 Z M 181.93463,16.941085 c 3.44647,0 6.21495,0.197748 8.30544,0.593245 2.09048,0.376664 3.8329,1.17673 5.22655,2.400887 0.97933,0.847494 1.75114,2.053163 2.31614,3.616317 0.565,1.544321 0.84749,3.022383 0.84749,4.434871 v 13.249321 c 0,1.412489 0.0848,2.52382 0.25425,3.333647 0.18833,0.790993 0.58383,1.807986 1.18649,3.050976 h -10.79107 c -0.43316,-0.77216 -0.71566,-1.356334 -0.84749,-1.751831 -0.13184,-0.41433 -0.26401,-1.054486 -0.39585,-1.920813 -1.50665,1.450155 -3.00389,2.485809 -4.49171,3.107304 -2.03398,0.82866 -4.39738,1.243335 -7.09052,1.243335 -3.57831,0 -6.29988,-0.828833 -8.16436,-2.486153 -1.84566,-1.65732 -2.76831,-3.700895 -2.76831,-6.130375 0,-2.278816 0.66841,-4.152374 2.00556,-5.621363 1.33716,-1.468988 3.80448,-2.561658 7.40162,-3.277319 4.3128,-0.866327 7.10953,-1.468644 8.39018,-1.807642 1.28066,-0.35783 2.63665,-0.819416 4.06797,-1.384411 0,-1.412489 -0.29209,-2.401232 -0.87591,-2.966227 -0.58383,-0.564996 -1.6099,-0.847494 -3.07889,-0.847494 -1.88331,0 -3.2958,0.301159 -4.23746,0.903821 -0.7345,0.470829 -1.32774,1.356162 -1.77974,2.655652 L 166.4255,26.178764 c 0.41433,-1.920985 1.00758,-3.427813 1.77974,-4.520138 0.79099,-1.111158 1.92098,-2.071651 3.38997,-2.881478 1.05466,-0.583828 2.50499,-1.035825 4.35064,-1.355989 1.84565,-0.320164 3.8418,-0.480074 5.98878,-0.480074 z m 78.4779,0 c 6.00778,0 10.54693,1.741898 13.61674,5.226037 2.46715,2.806145 3.70055,6.262209 3.70055,10.367843 0,4.61413 -1.53508,8.399603 -4.60489,11.356413 -3.05097,2.937976 -7.27886,4.406966 -12.68398,4.406966 -4.82129,0 -8.71977,-1.22433 -11.69541,-3.672644 -3.65364,-3.032143 -5.48029,-7.005775 -5.48029,-11.921236 0,-4.576464 1.54415,-8.343276 4.6328,-11.300086 3.08864,-2.975643 7.26002,-4.463293 12.51448,-4.463293 z m 22.74125,0.677995 h 11.55433 v 16.497701 c 0,1.883318 0.34807,3.220647 1.0449,4.011641 0.69682,0.790994 1.6765,1.186491 2.93832,1.186491 1.37482,0 2.49522,-0.527674 3.36155,-1.582332 0.88516,-1.054659 1.32757,-2.947395 1.32757,-5.678207 V 17.61908 h 11.498 v 30.001269 h -10.73526 v -4.859135 c -1.60082,1.996318 -3.22013,3.418396 -4.85862,4.26589 -1.61965,0.847493 -3.61631,1.27124 -5.98929,1.27124 -3.16398,0 -5.64996,-0.941832 -7.45795,-2.825151 -1.78915,-1.902151 -2.68355,-4.821469 -2.68355,-8.757605 z m -22.57175,7.2316 c -1.67616,0 -3.0604,0.649745 -4.15272,1.949235 -1.09233,1.280656 -1.63814,3.239481 -1.63814,5.876127 0,2.674312 0.53674,4.651798 1.61023,5.932454 1.09233,1.280657 2.45739,1.920813 4.09588,1.920813 1.65732,0 3.01331,-0.630568 4.06797,-1.892391 1.07349,-1.261823 1.61023,-3.286737 1.61023,-6.074048 0,-2.598979 -0.53674,-4.529037 -1.61023,-5.790861 -1.07349,-1.280656 -2.40124,-1.921329 -3.98322,-1.921329 z m -37.60029,0.677994 c -1.56316,0 -2.84399,0.584174 -3.84214,1.751831 -0.97933,1.148825 -1.46865,2.900312 -1.46865,5.25446 0,2.580146 0.48025,4.453705 1.44074,5.621362 0.97933,1.148825 2.21273,1.723409 3.70055,1.723409 1.37482,0 2.52347,-0.564996 3.4463,-1.694987 0.94166,-1.148824 1.41283,-3.06981 1.41283,-5.762955 0,-2.372982 -0.46158,-4.11488 -1.38441,-5.226038 -0.90399,-1.111158 -2.00573,-1.667082 -3.30522,-1.667082 z m -35.59473,7.853784 c -1.58199,0.564996 -3.23006,1.063904 -4.94388,1.497067 -2.33532,0.621495 -3.81338,1.233401 -4.43487,1.836063 -0.64033,0.621495 -0.96067,1.32774 -0.96067,2.118734 0,0.903993 0.31075,1.648077 0.93224,2.231905 0.64033,0.564996 1.57258,0.847494 2.79673,0.847494 1.28066,0 2.46715,-0.310748 3.55948,-0.932243 1.11115,-0.621495 1.89256,-1.374651 2.34455,-2.259811 0.47083,-0.903992 0.70642,-2.071823 0.70642,-3.503145 z" />
  </g>
  <g
     inkscape:groupmode="layer"
     id="layer12"
     inkscape:label="about text"
     style="display:none">
    <text
       xml:space="preserve"
       style="font-weight:bold;font-size:57.8556px;font-family:'Arial Black';-inkscape-font-specification:'Arial Black,  Bold';display:inline;fill:#cbcbcb;fill-opacity:1;stroke:#85b044;stroke-width:0.1;stroke-linecap:round;stroke-opacity:0"
       x="163.45937"
       y="47.620193"
       id="text17768"
       inkscape:label="text17768"><tspan
         sodipodi:role="line"
         id="tspan17766"
         style="font-size:57.8556px;stroke:#85b044;stroke-width:0.1;stroke-opacity:0"
         x="163.45937"
         y="47.620193">about</tspan></text>
  </g>
</svg>
