<?xml version="1.0" encoding="UTF-8" standalone="no"?>
<!-- Created with Inkscape (http://www.inkscape.org/) -->

<svg
   width="700"
   height="510.00003"
   viewBox="0 0 185.20833 134.93752"
   version="1.1"
   id="svg4360"
   xml:space="preserve"
   inkscape:export-filename="hero-mobile.svg"
   inkscape:export-xdpi="96"
   inkscape:export-ydpi="96"
   xmlns:inkscape="http://www.inkscape.org/namespaces/inkscape"
   xmlns:sodipodi="http://sodipodi.sourceforge.net/DTD/sodipodi-0.dtd"
   xmlns="http://www.w3.org/2000/svg"
   xmlns:svg="http://www.w3.org/2000/svg"><sodipodi:namedview
     id="namedview4362"
     pagecolor="#ffffff"
     bordercolor="#000000"
     borderopacity="0.25"
     inkscape:showpageshadow="2"
     inkscape:pageopacity="0.0"
     inkscape:pagecheckerboard="0"
     inkscape:deskcolor="#d1d1d1"
     inkscape:document-units="mm"
     showgrid="false" /><defs
     id="defs4357" /><g
     inkscape:label="Layer 1"
     inkscape:groupmode="layer"
     id="layer1"
     style="display:inline"><g
       id="g6577"
       transform="matrix(0.56794318,0,0,0.56794318,14.257481,6.5656081)"><g
         id="layer4"
         inkscape:label="background"><path
           id="rect22252"
           style="display:inline;fill:#ffffff;fill-opacity:1;stroke:#000000;stroke-width:0.3;stroke-linecap:round;stroke-dasharray:none;stroke-opacity:1"
           d="M -20.362582,-12.882418 V 146.69389 H 211.1065 V -12.882418 Z m 118.247564,4.6808516 c 3.573688,0.1001212 7.300648,2.1180186 10.581788,7.77678633 0,0 17.80356,-9.73873593 17.80356,8.82581797 0,0 18.26016,-5.0216376 12.17342,14.1515911 0,0 17.0428,-3.195557 7.91269,18.412313 0,0 10.7072,5.501007 -0.76894,21.7811 0,0 6.93912,3.736394 -2.40192,18.682064 0,0 4.53681,9.074038 -9.6082,11.209135 0,0 6.4053,8.807459 -9.34103,14.945859 0,0 -3.50904,11.81077 -21.92425,7.00681 l -3.85351,-1.41645 -12.042675,0.0103 -2.936772,1.36581 c 0,0 -11.122528,5.60015 -22.965524,-7.40368 0,0 -14.79075,-4.31374 -9.552388,-14.482324 0,0 -12.017353,-0.924644 -9.86038,-11.401372 0,0 -8.93603,-14.790755 -2.156975,-18.180286 0,0 -10.913926,-16.561946 -0.792716,-21.392492 0,0 -8.812054,-22.636654 8.687325,-18.832443 0,0 -1.36984,-22.82501004 14.30352,-16.8904419 0,0 4.717557,-16.8910941 21.760429,-5.32628989 0,0 7.120424,-9.06210441 14.982548,-8.84183761 z"
           transform="matrix(1.7607395,0,0,1.7607395,-25.10371,-11.560326)" /></g><g
         id="layer11"
         inkscape:label="hair shape"
         transform="matrix(0.7860398,0,0,0.7860398,30.431379,-2.5326942)"><path
           style="display:inline;fill:#000000;fill-opacity:0;stroke:#000000;stroke-width:0.818363"
           d="m 122.921,242.04839 -6.578,3.05966 c 0,0 -24.915216,12.54443 -51.443707,-16.58435 0,0 -33.131314,-9.66329 -21.397304,-32.44108 0,0 -26.919203,-2.0707 -22.08755,-25.53873 0,0 -20.0168416,-33.13131 -4.831653,-40.72391 0,0 -24.4465595,-37.100018 -1.774895,-47.920515 0,0 -19.7400306,-50.705732 19.458846,-42.18424 0,0 -3.067748,-51.128955 32.040819,-37.8354312 0,0 10.566649,-37.8354268 48.742944,-11.9300888 0,0 33.74511,-42.948334 57.26443,-2.386009 0,0 39.88059,-21.815033 39.88059,19.7698528 0,0 40.90317,-11.2483694 27.26878,31.6999572 0,0 38.17629,-7.158053 17.72471,41.243908 0,0 23.98369,12.321648 -1.72305,48.789306 0,0 15.54361,8.36963 -5.38048,41.84816 0,0 10.16313,20.32626 -21.52192,25.10891 0,0 14.34795,19.72842 -20.92408,33.47853 0,0 -7.86054,26.4571 -49.11088,15.69614 l -8.63135,-3.17359"
           id="path17315" /></g><g
         id="layer3"
         transform="matrix(0.59392669,0,0,0.56851629,-114.67448,102.28336)"
         style="display:none;fill:#502d16"><path
           style="fill:#502d16;fill-opacity:0;stroke:#000000;stroke-width:0.948992;stroke-dasharray:none"
           d="m 489.50443,185.11098 c -19.42427,-26.76632 -49.81385,11.04111 -49.81385,11.04111 0,0 40.10171,13.04858 49.81385,-11.04111 z"
           id="path2744" /><path
           style="fill:#502d16;fill-opacity:0;stroke:#000000;stroke-width:0.948992;stroke-dasharray:none"
           d="m 489.58242,185.16363 c 0,0 -14.26335,-39.83321 -49.79549,11.1539"
           id="path2748" /><ellipse
           style="fill:#502d16;fill-opacity:1;stroke:#000000;stroke-width:1.04624"
           id="path2816"
           cx="470.30725"
           cy="185.5795"
           rx="9.652832"
           ry="9.2130156" /><path
           style="fill:#502d16;fill-opacity:0;stroke:#000000;stroke-width:0.948992;stroke-dasharray:none"
           d="m 358.43436,185.18106 c 19.42416,-26.76631 49.8136,11.04111 49.8136,11.04111 0,0 -40.10151,13.04858 -49.8136,-11.04111 z"
           id="path3065" /><path
           style="fill:#502d16;fill-opacity:0;stroke:#000000;stroke-width:0.948992;stroke-dasharray:none"
           d="m 358.35637,185.23371 c 0,0 14.26327,-40.01323 49.79524,10.97388"
           id="path3067" /><ellipse
           style="fill:#502d16;fill-opacity:1;stroke:#000000;stroke-width:1.04624"
           id="ellipse3069"
           cx="-377.32196"
           cy="186.21158"
           rx="9.652832"
           ry="9.2130156"
           transform="scale(-1,1)" /></g><g
         id="layer9"
         transform="matrix(0.52311637,0,0,0.52311637,4.6668446,76.701037)"
         style="display:inline"><path
           style="display:inline;fill:#dbb08b;fill-opacity:1;stroke:#000000;stroke-width:0.3;stroke-linecap:round;stroke-dasharray:none;stroke-opacity:0"
           d="m 131.88682,139.7106 -78.823948,0.0108 c -8.040665,-22.42575 30.452916,-20.20029 31.785056,-20.07113 1.332143,0.12916 1.933753,-9.9884 1.933753,-9.9884 0,0 3.039753,1.65863 5.730439,1.71143 2.690686,0.0528 5.724303,-1.71465 5.724303,-1.71465 0,0 -0.09552,9.55428 1.855497,9.83007 1.09861,0.1553 39.6237,-3.25885 31.7949,20.22188 z"
           id="path18610"
           sodipodi:nodetypes="ccscscsc"
           inkscape:label="path18610"
           transform="matrix(3.3658659,0,0,3.3658659,-56.910004,-168.72223)" /><path
           style="display:inline;fill:#d39f71;fill-opacity:1;stroke:#d39f71;stroke-width:4.50001;stroke-dasharray:none;stroke-opacity:0"
           d="m 235.63282,271.52409 c 0,0 -23.1475,-3.55627 -28.96396,-8.4779 -5.81647,-4.92162 30.30622,3.10886 30.30622,3.10886 0,0 4.14223,3.62554 -1.34226,5.36904 z"
           id="path16928" /><path
           style="display:inline;fill:#d39f71;fill-opacity:1;stroke:#d39f71;stroke-width:4.50026;stroke-dasharray:none;stroke-opacity:0"
           d="m 277.65894,271.52536 c 0,0 23.14741,-3.55667 28.96385,-8.47886 5.81645,-4.92218 -30.30611,3.10921 -30.30611,3.10921 0,0 -4.14222,3.62596 1.34226,5.36965 z"
           id="path17227" /><path
           style="display:inline;fill:#030201;fill-opacity:0;stroke:#000000;stroke-width:0.595727;stroke-dasharray:none;stroke-opacity:1"
           d="m 305.64575,263.96648 c 0,0 -14.67217,7.57504 -29.34435,7.57504"
           id="path14608" /><path
           style="display:inline;fill:#030201;fill-opacity:0;stroke:#000000;stroke-width:0.600001;stroke-dasharray:none;stroke-opacity:1"
           d="m 207.64848,263.27069 c 0,0 14.67092,7.68477 29.34185,7.68477"
           id="path14595" /><path
           style="display:inline;fill:#d39f71;fill-opacity:1;stroke:#101010;stroke-width:1;stroke-linecap:round;stroke-linejoin:miter;stroke-miterlimit:4;stroke-dasharray:none;stroke-opacity:0"
           d="m 234.75354,200.62957 c 0,0 12.82674,6.9579 20.8132,5.74783 0,0 5.80833,0.78655 17.60652,-5.86884 l 0.85423,12.09817 c 0,0 -15.56364,7.58973 -39.97341,0.47021 z"
           id="path12010"
           inkscape:label="path12010" /><path
           style="display:none;fill:#dbb08b;fill-opacity:0;stroke:#000000;stroke-width:1;stroke-opacity:0"
           d="m 273.46823,200.54785 c 0,0 0.62455,30.36222 6.46081,32.30764 0,0 118.99499,-7.45745 109.91636,53.17488 l -271.71063,0.32423 c 0,0 -13.61795,-57.38995 111.2133,-53.17487 0,0 4.87617,-8.81137 5.3404,-32.7192 0,0 9.86487,5.91893 19.38158,6.15105 9.51671,0.23211 19.39818,-6.06373 19.39818,-6.06373 z"
           id="path2111-8"
           inkscape:label="old skin" /><path
           style="display:none;fill:#000000;fill-opacity:0;stroke:#000000;stroke-width:1;stroke-dasharray:none;stroke-opacity:1"
           d="m 273.67521,200.103 c 0,0 1.06779,30.74384 6.17557,33.44796 0,0 117.99384,-8.72955 110.27384,52.25846"
           id="path1285"
           inkscape:label="old black-line" /><path
           style="display:none;fill:#000000;fill-opacity:0;stroke:#000000;stroke-width:1;stroke-dasharray:none;stroke-opacity:1"
           d="m 234.88478,200.19316 c 0,0 -0.90137,30.27828 -6.00915,32.9824 0,0 -118.16026,-7.73101 -110.44026,53.257"
           id="path1263"
           inkscape:label="old black-line" /></g><g
         id="layer2"
         transform="matrix(0.52311637,0,0,0.52311637,4.6668446,76.701037)"
         style="display:inline"><g
           id="layer10"
           style="display:inline"><path
             id="path1165"
             style="display:none;fill:#dbb08b;fill-opacity:1;stroke:#000000;stroke-width:1;stroke-dasharray:none;stroke-opacity:0.0303031"
             d="m 456.48599,296.27098 c 17.51358,-14.92019 34.87302,-36.57714 26.60333,-73.08808 -13.76783,-60.78539 -1.8032,-72.49549 -34.13437,-89.36338 -7.99723,-4.17234 -17.26055,-6.32369 -26.67412,-7.19852 h -5e-4 v 0 c -5.64811,-0.52491 -11.35028,-0.5905 -16.86569,-0.35715 l 1.6e-4,0.0669 c -15.12894,-0.70827 -31.84168,0.7543 -45.04562,7.74226 -32.22483,17.05445 -20.1873,28.69515 -33.57384,89.55896 -7.77038,35.32915 8.3069,56.64822 25.2868,71.41559 0,0 33.22675,29.32501 53.60986,28.97358 20.38311,-0.35143 50.81224,-27.74883 50.81224,-27.74883"
             transform="translate(-151,-117.96163)" /><path
             id="path14357"
             style="display:inline;fill:#dbb08b;fill-opacity:1;stroke:#151515;stroke-width:1;stroke-dasharray:none;stroke-opacity:0"
             d="m 365.89954,138.28184 c -2.07013,0.0421 -1.51825,4.29844 -1.51825,4.29844 6.2223,34.27788 0.0873,24.53442 0.0873,24.53442 0,0 -21.31465,-15.83405 -10.65723,4.26279 10.65742,20.09683 -13.39815,22.22862 -13.39815,22.22862 0,0 11.26634,10.0484 2.74041,12.78888 -8.52597,2.74049 -18.87865,16.13854 -9.43922,23.75101 9.43941,7.61243 7.61241,26.4911 0,23.44611 -7.00258,-2.80104 -3.46589,12.47698 -2.84789,14.97015 5.19799,10.86597 13.10007,19.42702 21.21576,26.4852 0,0 33.22662,29.32486 53.60965,28.97343 20.38303,-0.35143 50.8124,-27.7487 50.8124,-27.7487 l -0.0186,-0.001 c 14.10322,-12.01485 27.56465,-27.04852 28.16482,-52.03953 l -0.004,0.003 c 0,0 -8.56323,-1.55101 -3.01762,-18.89119 -0.87347,-1.33824 -1.82718,-2.77854 -2.87682,-4.33566 -4.67353,-6.93302 0.0367,-17.2129 0.0367,-17.2129 l 0.24908,0.0584 c -2.09515,-2.15728 -4.2083,-5.47676 -3.27629,-9.61905 1.68067,-7.4697 -2.38119,-8.55299 -2.45928,-8.57312 -13.35406,-3.41529 -8.21293,-17.30747 -8.21293,-17.30747 4.56744,-17.05185 -21.14652,-8.54728 -21.14652,-8.54728 -23.75077,2.43599 -22.22861,-16.7473 -22.22861,-16.7473 l -5.75004,-1.82728 c 5.78543,5.78547 2.70526,14.92054 2.70526,14.92054 22.53282,16.13836 5.17643,22.83737 5.17643,22.83737 -14.3114,8.22143 2.13165,13.70252 2.13165,13.70252 -9.43943,9.74392 -0.60926,14.92054 -0.60926,14.92054 -14.92041,3.95845 -9.43922,-10.96213 -9.43922,-10.96213 -10.93727,-4.05476 -8.71168,-12.68765 -8.71168,-12.68765 5.78549,-29.53626 -10.77654,-22.63422 -10.77654,-22.63422 7.30797,-31.36325 -21.01008,-13.70252 -21.01008,-13.70252 -5.14472,-7.11241 -7.93312,-9.27844 -9.43044,-9.34362 -0.0342,-10e-4 -0.0679,-0.002 -0.10077,-10e-4 z"
             transform="translate(-151,-117.96163)" /><path
             style="display:inline;fill:#d39f71;fill-opacity:1;stroke:#151515;stroke-width:1;stroke-linecap:round;stroke-linejoin:miter;stroke-miterlimit:4;stroke-dasharray:none;stroke-opacity:0"
             d="m 179.66289,150.04658 c 0,0 -1.276,-17.16132 3.91738,-11.40649 5.19338,5.75482 15.20662,-14.12183 3.81544,-25.14871 -7.35216,-7.11702 -8.50037,-15.021136 5.09135,-21.484261 11.12065,-5.288086 2.24919,-14.480075 2.24919,-14.480075 0,0 22.20769,-4.654624 10.27695,-24.445614 0,0 -7.93653,-14.163804 6.50776,-1.132071 12.4854,11.264401 4.56792,-25.398632 4.56792,-25.398632 0,0 -1.31941,-7.269581 5.44784,4.478339 3.65278,6.341218 10.43046,-3.127158 15.60744,-3.238502 11.38046,-0.244765 4.87162,19.213368 4.87162,19.213368 0,0 18.23615,-5.993477 12.00722,14.471246 -5.00029,16.42812 7.94964,18.823949 7.94964,18.823949 0,0 -5.44065,14.062676 9.75045,11.803806 12.14259,-1.805564 -5.44546,-6.444588 5.38101,-17.821265 0,0 -15.31477,-5.574333 -2.37604,-10.947131 10.76826,-4.471511 7.60322,-20.822723 -3.68522,-25.986587 0,0 6.27108,9.956766 20.34491,8.216611 11.89564,-1.470834 14.78223,-5.171968 19.49057,-0.239194 4.34003,4.546903 -8.33484,16.071103 6.49318,23.869599 7.54355,1.334508 1.49457,5.139629 6.42857,17.287457 0,0 -3.41146,13.522487 3.31358,21.088157 0,0 -5.19989,13.97936 3.68676,21.54502 l 2.69604,1.94261 0.1362,-4.81631 c 0,0 -8.19874,-0.83851 -2.98136,-18.81983 0,0 -8.75774,-7.26706 -2.79503,-21.521679 0,0 -4.37887,-4.472038 -2.79502,-11.086927 1.58385,-6.614889 -3.91303,-7.732899 -5.86955,-8.105568 -1.95652,-0.37267 -8.38507,-7.267062 -5.40371,-14.534123 2.98136,-7.267061 0.2795,-13.88195 -12.29811,-12.111769 l -9.59624,1.956517 c 0,0 -16.95648,3.074526 -20.68318,-12.111769 l -0.559,-4.937875 -5.21738,-1.211177 c 0,0 2.99908,3.149781 2.99908,8.646661 0,0 -0.012,5.02622 -0.85507,5.700645 0,0 22.76184,14.921651 4.55236,23.099053 0,0 -13.01497,7.807886 2.74971,13.709104 0,0 -8.56662,8.125402 -0.89504,14.785348 0,0 -13.40419,4.636671 -9.44195,-10.875102 0,0 -10.44299,-4.29849 -8.41592,-13.12224 2.02708,-8.823751 3.33872,-25.755812 -10.25463,-22.536336 0,0 7.86984,-29.809967 -21.34393,-13.712585 0,0 -15.14347,-21.7016564 -10.01615,2.146318 5.12731,23.847974 -0.83468,18.12446 -0.83468,18.12446 0,0 -18.48218,-15.501183 -12.52019,0.953919 0,0 9.41995,12.281707 0.23848,20.390018 0,0 -2.14632,2.623277 -11.92398,4.650355 0,0 11.32778,10.016149 1.55011,12.997146 0,0 -16.33586,7.392872 -10.61235,21.105456 0,0 14.42803,10.85083 5.84276,25.87505 0,0 -0.81848,1.09972 -5.66356,-0.5992 0,0 -3.99185,0.83118 -0.92623,14.95081 z"
             id="path14567" /><path
             id="path13021"
             style="display:inline;fill:#dbb08b;fill-opacity:0;stroke:#101010;stroke-width:1;stroke-dasharray:none;stroke-opacity:1"
             d="m 365.89954,138.28184 c -2.07013,0.0421 -1.51825,4.29844 -1.51825,4.29844 6.2223,34.27788 0.0873,24.53442 0.0873,24.53442 0,0 -21.31465,-15.83405 -10.65723,4.26279 10.65742,20.09683 -13.39815,22.22862 -13.39815,22.22862 0,0 11.26634,10.0484 2.74041,12.78888 -8.52597,2.74049 -18.87865,16.13854 -9.43922,23.75101 9.43941,7.61243 7.61241,26.4911 0,23.44611 -7.00258,-2.80104 -3.46589,12.47698 -2.84789,14.97015 5.19799,10.86597 13.10007,19.42702 21.21576,26.4852 0,0 33.22662,29.32486 53.60965,28.97343 20.38303,-0.35143 50.8124,-27.7487 50.8124,-27.7487 l -0.0186,-0.001 c 14.10322,-12.01485 27.56465,-27.04852 28.16482,-52.03953 l -0.004,0.003 c 0,0 -8.56323,-1.55101 -3.01762,-18.89119 -0.87347,-1.33824 -1.82718,-2.77854 -2.87682,-4.33566 -4.67353,-6.93302 0.0367,-17.2129 0.0367,-17.2129 l 0.24908,0.0584 c -2.09515,-2.15728 -4.2083,-5.47676 -3.27629,-9.61905 1.68067,-7.4697 -2.38119,-8.55299 -2.45928,-8.57312 -13.35406,-3.41529 -8.21293,-17.30747 -8.21293,-17.30747 4.56744,-17.05185 -21.14652,-8.54728 -21.14652,-8.54728 -23.75077,2.43599 -22.22861,-16.7473 -22.22861,-16.7473 l -5.75004,-1.82728 c 5.78543,5.78547 2.70526,14.92054 2.70526,14.92054 22.53282,16.13836 5.17643,22.83737 5.17643,22.83737 -14.3114,8.22143 2.13165,13.70252 2.13165,13.70252 -9.43943,9.74392 -0.60926,14.92054 -0.60926,14.92054 -14.92041,3.95845 -9.43922,-10.96213 -9.43922,-10.96213 -10.93727,-4.05476 -8.71168,-12.68765 -8.71168,-12.68765 5.78549,-29.53626 -10.77654,-22.63422 -10.77654,-22.63422 7.30797,-31.36325 -21.01008,-13.70252 -21.01008,-13.70252 -5.14472,-7.11241 -7.93312,-9.27844 -9.43044,-9.34362 -0.0342,-10e-4 -0.0679,-0.002 -0.10077,-10e-4 z"
             transform="translate(-151,-117.96163)" /><path
             id="path14219"
             style="display:none;fill:#dbb08b;fill-opacity:1;stroke:#000000;stroke-width:1;stroke-dasharray:none;stroke-opacity:0.0303031"
             d="m 456.48599,296.27098 c 17.51358,-14.92019 34.87302,-36.57714 26.60333,-73.08808 -13.76783,-60.78539 -1.8032,-72.49549 -34.13437,-89.36338 -7.99723,-4.17234 -17.26055,-6.32369 -26.67412,-7.19852 h -5e-4 v 0 c -5.64811,-0.52491 -11.35028,-0.5905 -16.86569,-0.35715 l 1.6e-4,0.0669 c -15.12894,-0.70827 -31.84168,0.7543 -45.04562,7.74226 -32.22483,17.05445 -20.1873,28.69515 -33.57384,89.55896 -7.77038,35.32915 8.3069,56.64822 25.2868,71.41559 0,0 33.22675,29.32501 53.60986,28.97358 20.38311,-0.35143 50.81224,-27.74883 50.81224,-27.74883"
             transform="translate(-151,-117.96163)" /></g><g
           id="layer5"><path
             style="display:inline;fill:#d39f71;fill-opacity:1;stroke:#000000;stroke-width:0.600001;stroke-dasharray:none;stroke-opacity:0"
             d="m 261.60558,129.68482 c -6.70783,-8.94378 -15.97104,0.0346 -15.97104,0.0346 z"
             id="path12837" /><path
             style="display:inline;fill:#ffffff;fill-opacity:0;stroke:#000000;stroke-width:0.6;stroke-dasharray:none;stroke-opacity:1"
             d="m 245.53724,129.64641 c 0,0 9.9728,-9.28502 16.16281,0"
             id="path6092" /></g><g
           id="layer6"><path
             style="fill:#ffffff;fill-opacity:1;stroke:#000000;stroke-width:0.992658;stroke-dasharray:none;stroke-opacity:0"
             d="m 230.18783,149.67498 h 47.76631 c 0,0 -23.05959,41.31844 -47.76631,0 z"
             id="path5261" /><path
             style="display:inline;fill:#ffffff;fill-opacity:1;stroke:#000000;stroke-width:0.6;stroke-dasharray:none;stroke-opacity:1"
             d="m 230.17521,149.76749 47.80205,-0.26261"
             id="path5317" /><path
             style="fill:#f0f0f0;fill-opacity:1;stroke:#000000;stroke-width:0.600001;stroke-dasharray:none;stroke-opacity:0"
             d="m 277.88794,149.82313 -47.60727,0.21332 2.86587,4.21451 c 0,0 17.97283,3.30032 41.71242,0.0731"
             id="path15197" /></g><g
           id="layer7"><path
             style="display:inline;fill:#ffffff;fill-opacity:0;stroke:#000000;stroke-width:0.895674;stroke-dasharray:none;stroke-opacity:1"
             d="m 235.86339,98.954635 c 0,0 -19.56723,-13.039602 -30.89851,1.168625"
             id="path5319" /><path
             style="display:inline;fill:#ffffff;fill-opacity:0;stroke:#000000;stroke-width:0.893259;stroke-dasharray:none;stroke-opacity:1"
             d="m 272.35006,98.929257 c 0,0 19.56936,-12.967966 30.90187,1.162213"
             id="path5363" /></g><g
           id="layer8"><path
             style="display:none;fill:#502d16;fill-opacity:0.963731;stroke:#000000;stroke-width:5.94046;stroke-opacity:0"
             d="m 466.06827,195.68816 c -25.10321,1.06148 -40.8622,12.78337 -45.44437,11.23875 -4.58217,-1.54462 -9.79796,-6.40744 8.43739,-12.11297 18.23535,-5.70553 37.17416,0.63233 37.17416,0.63233"
             id="path5154"
             transform="matrix(0.92067052,0,0,0.92067052,-116.73569,-104.5323)" /><path
             style="display:inline;fill:#502d16;fill-opacity:0.963731;stroke:#000000;stroke-width:5.94046;stroke-opacity:0"
             d="m 339.29191,195.91056 c 25.1031,1.06148 40.862,12.78337 45.44415,11.23875 4.58214,-1.54462 9.7979,-6.40744 -8.43735,-12.11297 -18.23524,-5.70553 -37.17398,0.63233 -37.17398,0.63233"
             id="path5171"
             transform="matrix(0.92067052,0,0,0.92067052,-116.73569,-104.5323)" /><path
             style="display:none;fill:#502d16;fill-opacity:0.963731;stroke:#000000;stroke-width:5.94046;stroke-opacity:0"
             d="m 466.06827,195.68816 c -25.10321,1.06148 -40.8622,12.78337 -45.44437,11.23875 -4.58217,-1.54462 -9.79796,-6.40744 8.43739,-12.11297 18.23535,-5.70553 37.17416,0.63233 37.17416,0.63233"
             id="path13041"
             transform="matrix(0.92067052,0,0,0.92067052,-116.73569,-104.5323)" /><path
             style="display:inline;fill:#55311a;fill-opacity:1;stroke:#981616;stroke-width:1.00164;stroke-linecap:round;stroke-linejoin:miter;stroke-miterlimit:4;stroke-dasharray:none;stroke-opacity:0"
             d="m 274.42967,76.063067 c 0,0 -5.07836,5.161888 -2.6824,10.030096 0,0 3.70927,-1.091588 9.06964,-3.042506 5.62655,-2.047793 20.01349,-7.16656 31.59748,-7.613987 0,0 -17.24131,-6.532444 -37.98472,0.626397 z"
             id="path13460" /><path
             style="display:inline;fill:#512f18;fill-opacity:1;stroke:#151515;stroke-width:1;stroke-linecap:round;stroke-linejoin:miter;stroke-miterlimit:4;stroke-dasharray:none;stroke-opacity:0"
             d="m 274.42278,76.060147 1.50932,-0.484943 c 0,0 -5.02475,7.016565 -1.76546,9.755291 l -2.39659,0.753826 c 0,0 -2.6892,-3.921933 2.65273,-10.024174 z"
             id="path16719" /></g></g></g><path
       style="display:none;fill:#ffffff;fill-opacity:0.0580205;stroke:#000000;stroke-width:0.386001;stroke-linecap:round;stroke-dasharray:none;stroke-opacity:1"
       d="m 85.220893,119.11783 c 0,0 -35.193928,-1.77747 -33.060963,15.99724 2.132965,17.77471 9.242849,48.7027 9.242849,48.7027"
       id="path17728" /><path
       style="display:none;fill:#ffffff;fill-opacity:0;stroke:#000000;stroke-width:0.371778;stroke-linecap:round;stroke-dasharray:none;stroke-opacity:1"
       d="m 99.657826,119.43534 c 0,0 35.196974,-1.64875 33.063814,14.83876 -2.13314,16.48751 -9.24365,45.17578 -9.24365,45.17578"
       id="path17739" /><path
       id="path18572"
       style="display:none;fill:#ffffff;fill-opacity:0.0580205;stroke:#000000;stroke-width:0.386153;stroke-linecap:round;stroke-dasharray:none;stroke-opacity:1"
       d="m 121.98808,198.13418 c -2.36809,-10.45102 -6.28137,-16.29555 -6.28137,-16.29555 0,0 -11.05057,-15.24799 -1.51218,-24.32694 9.53838,-9.07895 4.65286,-21.41702 4.65286,-21.41702 0,0 -5.00184,-11.4069 -26.521356,5.12146 m -29.51682,56.87073 c 2.367925,-10.44354 6.280923,-16.28387 6.280923,-16.28387 0,0 10.313123,-14.9915 1.512075,-24.3095 -9.038734,-9.56965 -4.652536,-21.40165 -4.652536,-21.40165 0,0 5.001476,-11.39871 26.519448,5.11779"
       sodipodi:nodetypes="ccsccccscc" /><path
       style="display:inline;fill:#ffffff;fill-opacity:0;stroke:#000000;stroke-width:0.3;stroke-linecap:round;stroke-dasharray:none;stroke-opacity:1"
       d="m 86.781681,109.66187 c 0,0 -0.711447,10.04434 -2.04359,9.91518 -1.33214,-0.12916 -39.715884,-2.2814 -31.675219,20.14435"
       id="path18591"
       sodipodi:nodetypes="csc" /><path
       style="display:none;fill:#ffffff;fill-opacity:0.0580205;stroke:#000000;stroke-width:0.3;stroke-linecap:round;stroke-dasharray:none;stroke-opacity:1"
       d="m 98.227022,109.66176 c 0,0 0.601826,10.10213 1.934448,9.97316 1.33262,-0.12896 39.84006,-2.35103 31.7965,20.04052"
       id="path18621" /><path
       style="display:inline;fill:#ffffff;fill-opacity:0.0170648;stroke:#000000;stroke-width:0.3;stroke-linecap:round;stroke-dasharray:none;stroke-opacity:1"
       d="m 98.227022,109.66176 c 0,0 0.496541,9.90911 1.829158,9.78014 1.33262,-0.12896 40.0774,-2.62019 31.90179,20.23354"
       id="path18580"
       sodipodi:nodetypes="csc" /></g><path
     style="display:none;fill:#ffffff;fill-opacity:1;stroke:#000000;stroke-width:0.0529874;stroke-dasharray:none;stroke-opacity:1"
     d="m 62.971045,130.73919 30.508693,8.87859 28.757402,-8.98103 -7.08731,34.7541 -15.907101,7.24481 2.047461,-10.34223 -8.767282,4.82988 -8.589483,-4.803 2.051755,10.37069 -15.939941,-7.2175 z"
     id="path160179-9"
     sodipodi:nodetypes="ccccccccccc" /></svg>
