<?xml version="1.0" encoding="UTF-8" standalone="no"?>
<!-- Created with Inkscape (http://www.inkscape.org/) -->

<svg
   width="432"
   height="63"
   viewBox="0 0 114.3 16.668751"
   version="1.1"
   id="svg5"
   inkscape:export-filename="mobile-projects-background.svg"
   inkscape:export-xdpi="96"
   inkscape:export-ydpi="96"
   sodipodi:docname="mobile-titles-words-background.svg"
   xml:space="preserve"
   inkscape:version="1.2.2 (b0a84865, 2022-12-01)"
   xmlns:inkscape="http://www.inkscape.org/namespaces/inkscape"
   xmlns:sodipodi="http://sodipodi.sourceforge.net/DTD/sodipodi-0.dtd"
   xmlns="http://www.w3.org/2000/svg"
   xmlns:svg="http://www.w3.org/2000/svg"><sodipodi:namedview
     id="namedview7"
     pagecolor="#ffffff"
     bordercolor="#000000"
     borderopacity="0.25"
     inkscape:showpageshadow="2"
     inkscape:pageopacity="0.0"
     inkscape:pagecheckerboard="0"
     inkscape:deskcolor="#d1d1d1"
     inkscape:document-units="mm"
     showgrid="false"
     inkscape:zoom="1.0426233"
     inkscape:cx="158.73422"
     inkscape:cy="-35.966969"
     inkscape:window-width="1440"
     inkscape:window-height="695"
     inkscape:window-x="0"
     inkscape:window-y="25"
     inkscape:window-maximized="0"
     inkscape:current-layer="layer10" /><defs
     id="defs2" /><g
     inkscape:label="about"
     inkscape:groupmode="layer"
     id="layer1"
     style="display:none"><rect
       style="fill:#f1f3f4;fill-opacity:1;stroke:#ffffff;stroke-width:0.2;stroke-linecap:round"
       id="rect373"
       width="117.24033"
       height="20.047588"
       x="-1.5226016"
       y="-1.0150678" /></g><g
     inkscape:groupmode="layer"
     id="layer2"
     inkscape:label="projects"
     style="display:inline"><path
       id="rect2028"
       style="display:inline;fill:#f1f3f4;fill-opacity:1;stroke:#ffffff;stroke-width:0.2;stroke-linecap:round"
       d="M -1.4701945,-1.6893026 V 18.358053 H 115.77019 V -1.6893026 Z M 50.79845,1.1456665 h 3.092317 V 3.2675008 H 50.79845 Z m 29.47572,0 v 3.0618286 h 1.697571 V 6.4585205 H 80.27417 v 2.8571899 c 0,0.3435901 0.03302,0.5709675 0.0987,0.682129 0.101056,0.1717946 0.27756,0.2578656 0.5302,0.2578656 0.227376,0 0.545704,-0.06552 0.954981,-0.196887 l 0.227376,2.129585 c -0.762972,0.166743 -1.475421,0.250114 -2.137337,0.250114 -0.768025,0 -1.33377,-0.09853 -1.697571,-0.295589 C 77.88672,11.945869 77.616565,11.64758 77.439718,11.248409 77.267923,10.844185 77.181852,10.19237 77.181852,9.2929728 V 6.4585205 H 76.044971 V 4.2074951 h 1.136881 V 2.7295492 Z M 28.326436,4.0255941 c 1.076246,0 1.907264,0.411978 2.493388,1.2355835 0.591177,0.8236054 0.886768,1.8414065 0.886768,3.0540771 0,1.3389905 -0.321027,2.3621893 -0.962732,3.0695803 -0.641705,0.702338 -1.452684,1.053682 -2.432927,1.053682 -0.474962,0 -0.909161,-0.08067 -1.303279,-0.242362 -0.389065,-0.16169 -0.737711,-0.402044 -1.045931,-0.72037 v 3.84266 H 22.846667 V 4.2074951 h 2.88768 v 1.1901083 c 0.39917,-0.5002267 0.765156,-0.8391109 1.09864,-1.0159587 0.449699,-0.2374813 0.947748,-0.3560506 1.493449,-0.3560506 z m 9.731706,0 c 0.454752,0 0.952283,0.141307 1.492932,0.4242635 l -0.95498,2.1983154 c -0.363801,-0.1515838 -0.651813,-0.2273763 -0.86403,-0.2273763 -0.404224,0 -0.717672,0.1667435 -0.939995,0.5002279 -0.318326,0.4699098 -0.47749,1.3491025 -0.47749,2.6375651 V 12.256616 H 33.215027 V 4.2074951 h 2.887679 v 1.3187826 c 0.277904,-0.5709658 0.563216,-0.962388 0.856278,-1.1746053 0.298115,-0.2172702 0.664618,-0.3260783 1.099158,-0.3260783 z m 6.487459,0 c 1.611842,0 2.829919,0.4672146 3.653524,1.4019816 0.661916,0.7528663 0.992704,1.6802332 0.992704,2.7817423 0,1.2379346 -0.411978,2.253554 -1.235583,3.046842 -0.818553,0.788236 -1.952741,1.182357 -3.402893,1.182357 -1.293515,0 -2.339452,-0.328606 -3.137793,-0.985469 -0.980242,-0.8135 -1.470195,-1.8794754 -1.470195,-3.1982547 0,-1.227829 0.41416,-2.2385676 1.242819,-3.0318563 0.828658,-0.7983415 1.947688,-1.1973429 3.357417,-1.1973429 z m 15.461589,0 c 1.152037,0 2.061547,0.1743227 2.728516,0.5229655 0.666968,0.3486428 1.174778,0.8537537 1.523421,1.5156697 0.348643,0.6619161 0.522965,1.5237684 0.522965,2.5848552 v 0.3482991 h -6.184635 c 0.05558,0.4951739 0.189825,0.8643751 0.402043,1.1069094 0.298114,0.348643 0.686838,0.522965 1.166853,0.522965 0.303168,0 0.591179,-0.07579 0.86403,-0.227376 0.166743,-0.096 0.346463,-0.265445 0.538469,-0.5079793 l 3.039091,0.2806033 c -0.464857,0.808447 -1.025722,1.38935 -1.682585,1.743046 -0.656863,0.348643 -1.599389,0.522965 -2.827218,0.522965 -1.066139,0 -1.904737,-0.148886 -2.516125,-0.447001 -0.611388,-0.303168 -1.119198,-0.78066 -1.523421,-1.432471 -0.399171,-0.6568628 -0.59893,-1.4277642 -0.59893,-2.3120032 0,-1.2581458 0.4017,-2.2759468 1.205094,-3.0540771 0.808447,-0.7781303 1.922597,-1.1673706 3.342432,-1.1673706 z m 10.512537,0 c 1.313726,0 2.314187,0.2349566 3.001367,0.7048665 0.692233,0.4699099 1.177304,1.1569227 1.455208,2.0613729 L 72.073637,7.1783732 C 71.982687,6.8347832 71.815943,6.5770888 71.573409,6.4052938 71.335928,6.228446 71.014901,6.1401937 70.610677,6.1401937 c -0.510332,0 -0.924492,0.1846006 -1.242818,0.5534546 -0.313273,0.3638012 -0.470256,0.9170862 -0.470256,1.659847 0,0.661916 0.156983,1.1643283 0.470256,1.5079183 0.313273,0.3435904 0.712275,0.5157304 1.197343,0.5157304 0.404223,0 0.742591,-0.103927 1.015442,-0.311092 0.277903,-0.2071643 0.485242,-0.5254927 0.621667,-0.9549802 l 2.933154,0.3338297 c -0.161689,0.6113885 -0.426963,1.1419355 -0.795817,1.5916345 -0.368854,0.444646 -0.841466,0.790592 -1.417484,1.038179 -0.570966,0.247587 -1.298574,0.371554 -2.182813,0.371554 -0.853922,0 -1.566371,-0.07849 -2.137337,-0.235128 -0.565913,-0.161689 -1.053167,-0.419384 -1.462443,-0.773079 -0.409276,-0.358749 -0.730303,-0.778306 -0.962732,-1.258322 -0.232428,-0.4800151 -0.348816,-1.1166718 -0.348816,-1.9099605 0,-0.8286583 0.141824,-1.5183698 0.424781,-2.0691244 0.207164,-0.4042235 0.489778,-0.7653287 0.848527,-1.0836548 0.358748,-0.3233788 0.727949,-0.5632161 1.106909,-0.7198527 0.601282,-0.2475869 1.371667,-0.3715535 2.311487,-0.3715535 z m 16.628959,0 c 0.960031,0 1.667083,0.073094 2.121834,0.2196248 0.459804,0.146531 0.841465,0.3739085 1.144633,0.6821289 0.30822,0.3082205 0.563216,0.7250791 0.765328,1.2505697 L 88.255078,6.466272 C 88.179286,6.2085795 88.053138,6.0190983 87.87629,5.8978312 87.633756,5.7361418 87.340347,5.654952 86.996757,5.654952 c -0.348643,0 -0.603639,0.063333 -0.765328,0.1896525 -0.156637,0.1212671 -0.235128,0.2701533 -0.235128,0.4470011 0,0.197059 0.101229,0.346462 0.303341,0.4475179 0.202112,0.1010559 0.641708,0.1920069 1.318782,0.2728516 1.025718,0.1162143 1.788523,0.2775604 2.28875,0.4847249 0.500226,0.2071646 0.881887,0.5027552 1.144633,0.8867676 0.267798,0.3840124 0.401526,0.8062683 0.401526,1.2660726 0,0.4648568 -0.141308,0.9169128 -0.424264,1.3565068 -0.277904,0.439593 -0.720199,0.790937 -1.326534,1.053682 -0.601283,0.257693 -1.422023,0.38654 -2.462899,0.38654 -1.470363,0 -2.518998,-0.210037 -3.145544,-0.629419 -0.621494,-0.419382 -1.020495,-1.015444 -1.197343,-1.788522 l 3.061828,-0.2878373 c 0.12632,0.3638013 0.303342,0.6236773 0.530717,0.7803143 0.227376,0.156636 0.530546,0.235128 0.909506,0.235128 0.414329,0 0.734839,-0.08825 0.962215,-0.2651 0.176848,-0.131373 0.265617,-0.295935 0.265617,-0.4929936 0,-0.222323 -0.116388,-0.393947 -0.348816,-0.5152141 C 88.111074,9.3967278 87.668779,9.2906184 86.951282,9.1642985 85.880089,8.9773451 85.135141,8.8057211 84.715759,8.6490845 84.30143,8.4873951 83.950086,8.2167241 83.662077,7.8377645 83.37912,7.4588049 83.237813,7.0267878 83.237813,6.5417196 c 0,-0.5305434 0.153767,-0.9874802 0.461988,-1.3714925 0.30822,-0.3840124 0.732658,-0.6698419 1.273307,-0.8567953 0.540649,-0.1920062 1.266075,-0.2878377 2.175578,-0.2878377 z M 50.79845,4.2074951 h 3.092317 v 7.8067589 c 0,0.9954 -0.07309,1.70027 -0.219624,2.114599 -0.141479,0.414329 -0.406752,0.749998 -0.795817,1.007691 -0.389066,0.257692 -0.945049,0.386539 -1.667599,0.386539 -0.59623,0 -1.336297,-0.08825 -2.220536,-0.2651 l 0.462504,-2.243274 c 0.247587,0.05053 0.429489,0.07545 0.545703,0.07545 0.262745,0 0.461988,-0.09095 0.598413,-0.272851 0.136425,-0.176848 0.204639,-0.533073 0.204639,-1.068669 z m 9.337931,1.6448609 c -0.490121,0 -0.88206,0.1943617 -1.175122,0.5834269 -0.186953,0.2425341 -0.305523,0.6036393 -0.356051,1.0836548 h 3.039091 C 61.583666,6.9232079 61.42232,6.4965882 61.159574,6.2388957 60.901882,5.9812032 60.560816,5.852356 60.136381,5.852356 Z M 44.591077,6.1479451 c -0.449699,0 -0.821082,0.1743227 -1.114144,0.5229655 -0.293062,0.3435901 -0.43925,0.86874 -0.43925,1.5761312 0,0.7174968 0.144006,1.2480441 0.432015,1.5916341 0.293062,0.3435901 0.659048,0.5157311 1.098641,0.5157311 0.444646,0 0.80845,-0.169442 1.091406,-0.5079796 0.28801,-0.3385372 0.432015,-0.8815443 0.432015,-1.6293579 0,-0.6972856 -0.144005,-1.2153731 -0.432015,-1.5539103 -0.288009,-0.34359 -0.644234,-0.5152141 -1.068668,-0.5152141 z M 27.318229,6.2916056 c -0.394118,0 -0.722724,0.1542836 -0.985469,0.4625041 -0.262746,0.3082205 -0.393775,0.8084508 -0.393775,1.5006836 0,0.6366521 0.133728,1.1092641 0.401526,1.4174845 0.267798,0.3082205 0.606166,0.4619872 1.015442,0.4619872 0.358748,0 0.659736,-0.1461875 0.90227,-0.4392495 0.242535,-0.2981149 0.363803,-0.8010439 0.363803,-1.5084351 0,-0.6518105 -0.126666,-1.129303 -0.379305,-1.4324707 C 27.990081,6.4458892 27.68203,6.2916056 27.318229,6.2916056 Z" /></g><g
     inkscape:groupmode="layer"
     id="layer3"
     inkscape:label="contacts"
     style="display:none"><rect
       style="display:inline;fill:#f1f3f4;fill-opacity:1;stroke:#ffffff;stroke-width:0.2;stroke-linecap:round"
       id="rect2040"
       width="117.24033"
       height="20.047588"
       x="-1.5226016"
       y="-1.0150678"
       inkscape:label="rect2040" /></g></svg>
