<?xml version="1.0" encoding="UTF-8" standalone="no"?>
<!-- Created with Inkscape (http://www.inkscape.org/) -->

<svg
   width="432"
   height="63"
   viewBox="0 0 114.3 16.668751"
   version="1.1"
   id="svg5"
   inkscape:export-filename="../../miliverse-portfolio/assets/mobile/background/mobile-contact-background.svg"
   inkscape:export-xdpi="96"
   inkscape:export-ydpi="96"
   sodipodi:docname="mobile-titles-words-background.svg"
   xml:space="preserve"
   inkscape:version="1.2.2 (b0a84865, 2022-12-01)"
   xmlns:inkscape="http://www.inkscape.org/namespaces/inkscape"
   xmlns:sodipodi="http://sodipodi.sourceforge.net/DTD/sodipodi-0.dtd"
   xmlns="http://www.w3.org/2000/svg"
   xmlns:svg="http://www.w3.org/2000/svg"><sodipodi:namedview
     id="namedview7"
     pagecolor="#ffffff"
     bordercolor="#000000"
     borderopacity="0.25"
     inkscape:showpageshadow="2"
     inkscape:pageopacity="0.0"
     inkscape:pagecheckerboard="0"
     inkscape:deskcolor="#d1d1d1"
     inkscape:document-units="mm"
     showgrid="false"
     inkscape:zoom="1.030512"
     inkscape:cx="155.74782"
     inkscape:cy="-31.537721"
     inkscape:window-width="1440"
     inkscape:window-height="695"
     inkscape:window-x="0"
     inkscape:window-y="25"
     inkscape:window-maximized="0"
     inkscape:current-layer="layer3" /><defs
     id="defs2" /><g
     inkscape:label="about"
     inkscape:groupmode="layer"
     id="layer1"
     style="display:none"><rect
       style="fill:#f1f3f4;fill-opacity:1;stroke:#ffffff;stroke-width:0.2;stroke-linecap:round"
       id="rect373"
       width="117.24033"
       height="20.047588"
       x="-1.5226016"
       y="-1.0150678" /><text
       xml:space="preserve"
       style="font-weight:bold;font-size:15.5222px;font-family:'Arial Black';-inkscape-font-specification:'Arial Black,  Bold';display:inline;fill:#898989;fill-opacity:1;stroke:#85b044;stroke-width:0.1;stroke-linecap:round;stroke-opacity:0"
       x="32.858665"
       y="13.798978"
       id="text3564"><tspan
         sodipodi:role="line"
         id="tspan3562"
         style="font-size:15.5222px;stroke:#85b044;stroke-width:0.1;stroke-opacity:0"
         x="32.858665"
         y="13.798978">about</tspan></text></g><g
     inkscape:groupmode="layer"
     id="layer2"
     inkscape:label="projects"
     style="display:none"><rect
       style="display:inline;fill:#f1f3f4;fill-opacity:1;stroke:#ffffff;stroke-width:0.2;stroke-linecap:round"
       id="rect2028"
       width="117.24033"
       height="20.047588"
       x="-1.4701668"
       y="-1.6894192" /></g><g
     inkscape:groupmode="layer"
     id="layer3"
     inkscape:label="contacts"
     style="display:inline"><path
       id="rect2040"
       style="display:inline;fill:#fafafa;fill-opacity:1;stroke:#ffffff;stroke-width:0.2;stroke-linecap:round"
       inkscape:label="rect2040"
       d="M -1.5223877,-1.0149251 V 19.03243 H 115.71748 V -1.0149251 Z m 61.5450807,3.698999 v 3.0618286 h 1.697571 v 2.2510254 h -1.697571 v 2.8577071 c 0,0.34359 0.0325,0.570967 0.09819,0.682129 0.101056,0.171795 0.278077,0.257348 0.530717,0.257348 0.227376,0 0.545704,-0.06551 0.954981,-0.196887 l 0.227376,2.129586 c -0.762972,0.166742 -1.475421,0.250114 -2.137337,0.250114 -0.768025,0 -1.33377,-0.09853 -1.697571,-0.29559 -0.363801,-0.197059 -0.634472,-0.494831 -0.81132,-0.894002 C 57.015934,12.38311 56.93038,11.731294 56.93038,10.831897 V 7.9969279 H 55.793494 V 5.7459025 h 1.136881 v -1.477946 z m 27.595731,0 v 3.0618286 h 1.697571 v 2.2510254 h -1.697571 v 2.8577071 c 0,0.34359 0.0325,0.570967 0.09819,0.682129 0.101056,0.171795 0.278077,0.257348 0.530717,0.257348 0.227375,0 0.545704,-0.06551 0.95498,-0.196887 l 0.227376,2.129586 c -0.762972,0.166742 -1.475421,0.250114 -2.137337,0.250114 -0.768025,0 -1.333769,-0.09853 -1.697571,-0.29559 -0.363801,-0.197059 -0.634472,-0.494831 -0.81132,-0.894002 C 84.61166,12.38311 84.526107,11.731294 84.526107,10.831897 V 7.9969279 H 83.389225 V 5.7459025 h 1.136882 V 4.2679565 Z M 29.561503,5.5640015 c 1.313727,0 2.314187,0.2349566 3.001367,0.7048665 0.692233,0.4699099 1.177305,1.1574395 1.455209,2.0618896 L 31.115413,8.7172974 C 31.024463,8.3737074 30.85772,8.1160129 30.615186,7.9442179 30.377704,7.7673701 30.056677,7.6786011 29.652454,7.6786011 c -0.510333,0 -0.924493,0.1846006 -1.242819,0.5534546 -0.313273,0.3638012 -0.469738,0.9170862 -0.469738,1.659847 0,0.6619163 0.156465,1.1648453 0.469738,1.5084353 0.313274,0.34359 0.712275,0.515214 1.197343,0.515214 0.404224,0 0.743108,-0.103411 1.015959,-0.310576 0.277904,-0.207164 0.484725,-0.525493 0.621151,-0.95498 l 2.933154,0.333313 c -0.161689,0.611388 -0.426963,1.141935 -0.795817,1.591634 -0.368854,0.444646 -0.840949,0.790593 -1.416968,1.03818 -0.570966,0.247586 -1.298573,0.371553 -2.182812,0.371553 -0.853923,0 -1.566372,-0.07849 -2.137338,-0.235128 -0.565913,-0.161689 -1.053683,-0.419383 -1.462959,-0.773079 -0.409277,-0.358748 -0.730304,-0.777789 -0.962732,-1.257804 -0.232429,-0.480016 -0.348299,-1.116673 -0.348299,-1.9099614 0,-0.8286583 0.141307,-1.5183698 0.424263,-2.0691243 0.207165,-0.4042236 0.490295,-0.7658455 0.849044,-1.0841716 0.358748,-0.3233788 0.727433,-0.5632161 1.106392,-0.7198527 0.601283,-0.2475869 1.371667,-0.3715535 2.311487,-0.3715535 z m 10.254671,0 c 1.611842,0 2.829919,0.4677314 3.653524,1.4024983 0.661916,0.7528664 0.992704,1.6797165 0.992704,2.7812256 0,1.2379346 -0.411978,2.2535536 -1.235583,3.0468426 -0.818553,0.788236 -1.952741,1.182357 -3.402893,1.182357 -1.293516,0 -2.339452,-0.32809 -3.137793,-0.984953 -0.980242,-0.8135 -1.470195,-1.879992 -1.470195,-3.1987713 0,-1.227829 0.41416,-2.2380508 1.242819,-3.0313395 0.828658,-0.7983415 1.947688,-1.1978597 3.357417,-1.1978597 z m 11.914519,0 c 0.853922,0 1.520896,0.2555125 2.000911,0.7658447 0.485068,0.5052794 0.727604,1.2881238 0.727604,2.3492106 V 13.795024 H 51.359656 V 9.3689372 c 0,-0.5052795 -0.09365,-0.8615041 -0.280603,-1.0686686 -0.186954,-0.2122174 -0.449529,-0.3183269 -0.788066,-0.3183269 -0.373907,0 -0.677077,0.1413071 -0.909505,0.4242635 -0.232429,0.2829565 -0.348816,0.7907661 -0.348816,1.5234213 V 13.795024 H 45.9481 V 5.7459025 h 2.872176 v 1.3115479 c 0.429487,-0.5355962 0.864203,-0.9172573 1.303796,-1.144633 0.439593,-0.2324286 0.975021,-0.3488159 1.606621,-0.3488159 z m 15.484326,0 c 0.924661,0 1.667427,0.053055 2.228287,0.1591634 0.560861,0.1010559 1.028592,0.3159735 1.402499,0.6444051 0.262745,0.2273757 0.469567,0.5505847 0.621151,0.9699666 0.151583,0.4143292 0.227376,0.8111487 0.227376,1.1901083 v 3.5548221 c 0,0.378959 0.02274,0.676732 0.06821,0.894002 0.05053,0.212217 0.156637,0.48507 0.318327,0.818555 h -2.894914 c -0.116214,-0.207165 -0.192007,-0.36363 -0.227376,-0.469739 -0.03537,-0.111162 -0.07108,-0.282786 -0.106454,-0.515214 -0.404223,0.389065 -0.805924,0.666798 -1.205094,0.833541 -0.545702,0.222323 -1.17966,0.333313 -1.90221,0.333313 -0.960031,0 -1.690337,-0.22198 -2.190564,-0.666626 -0.495174,-0.444646 -0.74259,-0.993051 -0.74259,-1.644861 0,-0.611388 0.179203,-1.114317 0.537952,-1.508435 0.358748,-0.3941182 1.020841,-0.6870102 1.985925,-0.8790163 1.15709,-0.2324286 1.907435,-0.3942914 2.251025,-0.4852417 0.34359,-0.096003 0.707394,-0.219453 1.091407,-0.3710368 0,-0.3789596 -0.07849,-0.6442333 -0.235128,-0.7958171 -0.156637,-0.1515838 -0.431672,-0.2273763 -0.82579,-0.2273763 -0.505279,0 -0.884241,0.080673 -1.136881,0.2423625 -0.197059,0.1263198 -0.356223,0.3639752 -0.47749,0.712618 L 63.054032,8.0424032 C 63.165194,7.5270181 63.324358,7.1231361 63.531523,6.8300741 63.74374,6.5319592 64.04691,6.2742648 64.441028,6.0569946 64.723984,5.900358 65.113225,5.77909 65.608398,5.6931925 66.103572,5.607295 66.639,5.5640015 67.215019,5.5640015 Z m 10.648962,0 c 1.313727,0 2.314187,0.2349566 3.001367,0.7048665 0.692233,0.4699099 1.177305,1.1574395 1.455209,2.0618896 L 79.417891,8.7172974 C 79.326941,8.3737074 79.160198,8.1160129 78.917664,7.9442179 78.680182,7.7673701 78.359155,7.6786011 77.954932,7.6786011 c -0.510333,0 -0.924493,0.1846006 -1.242819,0.5534546 -0.313273,0.3638012 -0.470255,0.9170862 -0.470255,1.659847 0,0.6619163 0.156982,1.1648453 0.470255,1.5084353 0.313274,0.34359 0.712275,0.515214 1.197343,0.515214 0.404224,0 0.742591,-0.103411 1.015442,-0.310576 0.277904,-0.207164 0.485242,-0.525493 0.621668,-0.95498 l 2.933154,0.333313 c -0.161689,0.611388 -0.426963,1.141935 -0.795817,1.591634 -0.368854,0.444646 -0.841466,0.790593 -1.417485,1.03818 -0.570965,0.247586 -1.298573,0.371553 -2.182812,0.371553 -0.853922,0 -1.566372,-0.07849 -2.137337,-0.235128 -0.565913,-0.161689 -1.053167,-0.419383 -1.462443,-0.773079 -0.409277,-0.358748 -0.730304,-0.777789 -0.962732,-1.257804 -0.232429,-0.480016 -0.348816,-1.116673 -0.348816,-1.9099614 0,-0.8286583 0.141824,-1.5183698 0.42478,-2.0691243 0.207165,-0.4042236 0.489779,-0.7658455 0.848527,-1.0841716 0.358749,-0.3233788 0.72795,-0.5632161 1.106909,-0.7198527 0.601283,-0.2475869 1.371667,-0.3715535 2.311487,-0.3715535 z M 39.86165,7.6863525 c -0.449699,0 -0.821082,0.1743227 -1.114144,0.5229655 -0.293062,0.34359 -0.43925,0.8692568 -0.43925,1.576648 0,0.717497 0.144006,1.248044 0.432015,1.591634 0.293062,0.34359 0.659048,0.515214 1.098641,0.515214 0.444646,0 0.80845,-0.169442 1.091406,-0.507979 0.288009,-0.338537 0.432015,-0.881545 0.432015,-1.6293581 0,-0.6972856 -0.144006,-1.2153731 -0.432015,-1.5539103 -0.288009,-0.34359 -0.644234,-0.5152141 -1.068668,-0.5152141 z m 28.816329,2.2887492 c -0.424435,0.1515843 -0.86673,0.2858283 -1.326535,0.4020423 -0.626546,0.166743 -1.022849,0.330787 -1.189591,0.492477 -0.171795,0.166742 -0.257865,0.356223 -0.257865,0.568441 0,0.242534 0.08337,0.442293 0.250114,0.598929 0.171795,0.151584 0.42191,0.227377 0.750341,0.227377 0.34359,0 0.661919,-0.08337 0.954981,-0.250114 0.298115,-0.166742 0.507635,-0.3692 0.628902,-0.606682 0.12632,-0.242534 0.189653,-0.555465 0.189653,-0.939477 z" /></g><g
     inkscape:groupmode="layer"
     id="layer10"
     inkscape:label="text"
     style="display:none"><text
       xml:space="preserve"
       style="font-weight:bold;font-size:15.5222px;font-family:'Arial Black';-inkscape-font-specification:'Arial Black,  Bold';display:inline;fill:#898989;fill-opacity:1;stroke:#85b044;stroke-width:0.1;stroke-linecap:round;stroke-opacity:0"
       x="24.309282"
       y="13.795188"
       id="text5957"><tspan
         sodipodi:role="line"
         id="tspan5955"
         style="font-size:15.5222px;stroke:#85b044;stroke-width:0.1;stroke-opacity:0"
         x="24.309282"
         y="13.795188">contact</tspan></text></g></svg>
