<?xml version="1.0" encoding="UTF-8" standalone="no"?>
<!-- Created with Inkscape (http://www.inkscape.org/) -->

<svg
   width="600"
   height="600"
   viewBox="0 0 158.75 158.75"
   version="1.1"
   id="svg5"
   xmlns:inkscape="http://www.inkscape.org/namespaces/inkscape"
   xmlns:sodipodi="http://sodipodi.sourceforge.net/DTD/sodipodi-0.dtd"
   xmlns="http://www.w3.org/2000/svg"
   xmlns:svg="http://www.w3.org/2000/svg">
  <sodipodi:namedview
     id="namedview7"
     pagecolor="#ffffff"
     bordercolor="#000000"
     borderopacity="0.25"
     inkscape:showpageshadow="2"
     inkscape:pageopacity="0.0"
     inkscape:pagecheckerboard="0"
     inkscape:deskcolor="#d1d1d1"
     inkscape:document-units="mm"
     showgrid="false" />
  <defs
     id="defs2">
    <inkscape:path-effect
       effect="spiro"
       id="path-effect1264"
       is_visible="true"
       lpeversion="1" />
  </defs>
  <g
     inkscape:label="Layer 1"
     inkscape:groupmode="layer"
     id="layer1">
    <path
       id="rect2947"
       style="fill:#fafafa;fill-opacity:1;stroke:#85b044;stroke-width:0.1;stroke-linecap:round;stroke-opacity:0"
       d="M -16.404167,-12.676229 V 175.97324 H 178.95549 V -12.676229 Z M 67.792761,5.6714884 c 3.628717,-0.022455 7.226984,0.6728048 10.736296,1.596285 7.018624,1.8469606 13.946061,4.6387406 21.203357,4.5754316 5.110936,-0.04459 10.098536,-1.512363 15.182016,-2.0432864 2.54175,-0.2654614 5.12831,-0.2943889 7.63468,0.2046384 2.50637,0.499028 4.93747,1.548052 6.84299,3.250965 2.11684,1.891759 3.4944,4.508121 4.26176,7.241418 0.76735,2.733297 0.96027,5.594827 0.99425,8.433594 0.034,2.838766 -0.0864,5.681288 0.0734,8.515759 0.15976,2.834471 0.60967,5.686151 1.73271,8.293551 1.98642,4.611921 5.8751,8.068965 9.33225,11.710913 1.72857,1.820974 3.38266,3.735585 4.65708,5.898865 1.27442,2.163279 2.16098,4.597454 2.25258,7.106543 0.10736,2.941039 -0.88338,5.843381 -2.37764,8.378816 -1.49426,2.535435 -3.47697,4.744843 -5.5087,6.873999 -2.03174,2.129157 -4.13319,4.204673 -5.91851,6.544304 -1.78532,2.339631 -3.2588,4.979435 -3.84937,7.862566 -0.53241,2.59919 -0.32872,5.30179 0.19172,7.9034 0.52043,2.60161 1.35096,5.12941 2.08101,7.68015 0.73004,2.55073 1.36417,5.15128 1.47536,7.80211 0.11119,2.65082 -0.32756,5.37481 -1.62988,7.68635 -0.92191,1.63634 -2.25618,3.02552 -3.80132,4.09329 -1.54513,1.06777 -3.29773,1.8193 -5.11441,2.29598 -3.63337,0.95336 -7.46699,0.81265 -11.19415,0.3452 -3.72716,-0.46745 -7.41356,-1.25409 -11.15591,-1.5782 -3.74235,-0.3241 -7.60495,-0.16553 -11.104747,1.1989 -4.714802,1.8381 -8.318894,5.65224 -12.095386,9.02063 -1.888245,1.6842 -3.869632,3.28979 -6.091101,4.50102 -2.221469,1.21123 -4.706037,2.01847 -7.236251,2.01435 -3.900583,-0.006 -7.608062,-1.95188 -10.442773,-4.63124 -2.834712,-2.67937 -4.905993,-6.05444 -6.808887,-9.45937 -1.902893,-3.40494 -3.685039,-6.90335 -6.068363,-9.99113 -2.383324,-3.08777 -5.454509,-5.78526 -9.164299,-6.99027 -4.392905,-1.4269 -9.14653,-0.6381 -13.755232,-0.33228 -2.304352,0.15291 -4.636641,0.17896 -6.903972,-0.25993 -2.267331,-0.43889 -4.480988,-1.36905 -6.175334,-2.93832 -2.2358911,-2.07084 -3.4032156,-5.11992 -3.6276851,-8.15919 -0.2244694,-3.03928 0.4212649,-6.08353 1.3663249,-8.98085 0.94506,-2.897317 2.1893052,-5.687964 3.2153072,-8.557617 1.026003,-2.869653 1.838734,-5.858013 1.870687,-8.9054 0.06164,-5.878693 -2.741725,-11.341505 -4.7661171,-16.860986 -1.012196,-2.759741 -1.8455787,-5.616399 -2.0257161,-8.550382 -0.1801374,-2.933984 0.329474,-5.968651 1.848466,-8.485271 1.3352625,-2.212221 3.3901322,-3.928484 5.6601192,-5.162992 2.269988,-1.234507 4.758129,-2.015013 7.263123,-2.648934 5.009988,-1.267842 10.310829,-2.042676 14.617712,-4.898926 2.554654,-1.694201 4.620256,-4.045033 6.324679,-6.592879 1.704422,-2.547846 3.070129,-5.303785 4.448307,-8.041886 1.378178,-2.738102 2.7806,-5.477828 4.55011,-7.980908 1.76951,-2.50308 3.930046,-4.7777775 6.568591,-6.3381149 3.123498,-1.8471197 6.802172,-2.6182108 10.430888,-2.6406657 z" />
    <path
       style="display:none;fill:#ababab;fill-opacity:1;stroke:#85b044;stroke-width:0.0947068;stroke-linecap:round;stroke-opacity:0"
       d="M 12.872523,83.873572 C 12.934165,77.994873 10.130773,72.531997 8.1063789,67.01251 7.0941819,64.252766 6.2606494,61.396202 6.0805118,58.462215 5.9003742,55.528229 6.4102714,52.49356 7.9292649,49.976938 c 1.3352638,-2.212224 3.3899841,-3.928675 5.6599741,-5.163184 2.269989,-1.234509 4.758407,-2.014728 7.263404,-2.648649 5.009993,-1.267843 10.310751,-2.043151 14.617639,-4.899403 2.554656,-1.694203 4.620155,-4.044814 6.324579,-6.592663 1.704424,-2.547848 3.069966,-5.303512 4.448146,-8.041616 1.378179,-2.738104 2.78053,-5.478228 4.550041,-7.98131 1.769512,-2.503083 3.930261,-4.7774478 6.568809,-6.3377867 3.123501,-1.8471216 6.802029,-2.618563 10.430749,-2.6410179 3.62872,-0.022455 7.227006,0.6730248 10.736322,1.596506 7.018631,1.8469623 13.946427,4.6387196 21.20373,4.5754106 5.110942,-0.04458 10.098032,-1.512607 15.181522,-2.0435301 2.54174,-0.2654618 5.12846,-0.2939255 7.63484,0.2051021 2.50637,0.499029 4.93767,1.547873 6.84319,3.250788 2.11684,1.891761 3.49448,4.508081 4.26184,7.241381 0.76735,2.7333 0.95985,5.594954 0.99383,8.433723 0.034,2.83877 -0.0863,5.680876 0.0735,8.51535 0.15976,2.834474 0.60959,5.686418 1.73263,8.29382 1.98642,4.611926 5.8754,8.068849 9.33255,11.7108 1.72858,1.820976 3.38274,3.735646 4.65716,5.898928 1.27442,2.163282 2.16082,4.597475 2.25242,7.106566 0.10737,2.941042 -0.88327,5.843447 -2.37753,8.378885 -1.49426,2.535437 -3.47705,4.744768 -5.50878,6.873927 -2.03174,2.129158 -4.1332,4.204917 -5.91852,6.544551 -1.78532,2.339633 -3.25908,4.979047 -3.84966,7.862184 -0.53241,2.59919 -0.32848,5.30215 0.19195,7.90377 0.52043,2.60161 1.35092,5.12903 2.08097,7.67977 0.73005,2.55074 1.36406,5.15125 1.47525,7.80208 0.11119,2.65082 -0.32732,5.37476 -1.62964,7.6863 -0.92192,1.63635 -2.2561,3.026 -3.80123,4.09377 -1.54514,1.06777 -3.29786,1.81893 -5.11454,2.29561 -3.63337,0.95336 -7.46707,0.81297 -11.19423,0.34552 -3.72717,-0.46745 -7.41355,-1.25435 -11.15591,-1.57846 -3.74235,-0.32411 -7.60508,-0.16525 -11.104881,1.19918 -4.714806,1.83811 -8.318965,5.652 -12.09546,9.0204 -1.888247,1.6842 -3.869499,3.28995 -6.09097,4.50118 -2.221471,1.21123 -4.705831,2.0185 -7.236047,2.01438 -3.900587,-0.006 -7.60814,-1.95202 -10.442855,-4.63138 -2.834714,-2.67937 -4.906054,-6.05448 -6.808949,-9.45942 -1.902895,-3.40494 -3.685014,-6.90318 -6.068341,-9.99096 -2.383326,-3.08778 -5.454333,-5.78515 -9.164126,-6.99016 -4.39291,-1.4269 -9.146858,-0.6385 -13.755565,-0.33268 -2.304353,0.15291 -4.636506,0.17934 -6.903839,-0.25955 -2.267334,-0.43889 -4.481087,-1.36939 -6.175434,-2.93866 -2.2358938,-2.07084 -3.4029868,-5.1198 -3.6274565,-8.15907 -0.2244697,-3.03928 0.4209808,-6.0837 1.3660418,-8.98102 0.9450609,-2.897318 2.1893453,-5.687759 3.2153487,-8.557414 1.026004,-2.869656 1.838832,-5.857924 1.870786,-8.905314 z"
       id="path1262"
       inkscape:path-effect="#path-effect1264"
       inkscape:original-d="M 12.872523,83.873572 C 12.401486,74.692983 9.5772677,61.276065 7.9292649,49.976938 6.2812611,38.677811 26.290192,41.503032 35.470282,37.265702 44.650368,33.028371 50.064917,17.9637 57.361857,8.3123263 64.6588,-1.3390505 85.609301,10.666509 99.732658,11.843225 c 14.123342,1.176716 17.890132,1.412611 29.659552,1.41236 11.76942,-2.5e-4 6.59126,21.185646 7.0618,32.484274 0.47053,11.298628 10.82833,16.477781 16.24213,24.716294 5.41379,8.238522 -11.76941,19.773294 -17.65449,29.659547 -5.88509,9.88627 1.41261,20.71487 2.11853,31.07192 0.70594,10.35705 -28.24694,4.23733 -42.370791,6.35562 -14.123847,2.11829 -16.948069,10.35755 -25.422477,15.53596 -8.474407,5.1784 -21.655928,-20.71436 -32.484271,-31.07192 -10.828344,-10.35756 -19.302,2.6e-4 -26.834838,-3.53089 -7.5328347,-3.53115 3.295758,-25.422228 2.82472,-34.602818 z"
       sodipodi:nodetypes="sssssssssssssss" />
  </g>
</svg>
