<?xml version="1.0" encoding="UTF-8" standalone="no"?>
<!-- Created with Inkscape (http://www.inkscape.org/) -->

<svg
   width="432"
   height="63"
   viewBox="0 0 114.3 16.668751"
   version="1.1"
   id="svg5"
   inkscape:export-filename="mobile-projects-background.svg"
   inkscape:export-xdpi="96"
   inkscape:export-ydpi="96"
   sodipodi:docname="mobile-titles-words-background.svg"
   xml:space="preserve"
   inkscape:version="1.2.2 (b0a84865, 2022-12-01)"
   xmlns:inkscape="http://www.inkscape.org/namespaces/inkscape"
   xmlns:sodipodi="http://sodipodi.sourceforge.net/DTD/sodipodi-0.dtd"
   xmlns="http://www.w3.org/2000/svg"
   xmlns:svg="http://www.w3.org/2000/svg"><sodipodi:namedview
     id="namedview7"
     pagecolor="#ffffff"
     bordercolor="#000000"
     borderopacity="0.25"
     inkscape:showpageshadow="2"
     inkscape:pageopacity="0.0"
     inkscape:pagecheckerboard="0"
     inkscape:deskcolor="#d1d1d1"
     inkscape:document-units="mm"
     showgrid="false"
     inkscape:zoom="1.0426233"
     inkscape:cx="158.73422"
     inkscape:cy="-35.966969"
     inkscape:window-width="1440"
     inkscape:window-height="695"
     inkscape:window-x="0"
     inkscape:window-y="25"
     inkscape:window-maximized="0"
     inkscape:current-layer="layer10" /><defs
     id="defs2" /><g
     inkscape:label="about"
     inkscape:groupmode="layer"
     id="layer1"
     style="display:inline"><path
       id="rect373"
       style="fill:#fafafa;fill-opacity:1;stroke:#ffffff;stroke-width:0.2;stroke-linecap:round;stroke-opacity:0"
       d="M -1.5223877,-1.0149251 V 19.03243 H 115.71748 V -1.0149251 Z M 44.31099,2.6876912 h 3.115056 v 3.850411 c 0.30822,-0.3233788 0.656866,-0.5659147 1.045931,-0.7276042 0.394118,-0.1616894 0.828317,-0.2423624 1.303279,-0.2423624 0.980242,0 1.791222,0.3535259 2.432927,1.0609171 0.641705,0.7023384 0.962732,1.713077 0.962732,3.0318563 0,0.879186 -0.146705,1.654451 -0.439767,2.326473 -0.293062,0.666969 -0.699642,1.167199 -1.22008,1.500684 -0.515385,0.328431 -1.088709,0.492993 -1.720309,0.492993 -0.540649,0 -1.035998,-0.116388 -1.485697,-0.348816 -0.338537,-0.181901 -0.707222,-0.522967 -1.106393,-1.023194 v 1.190109 H 44.31099 Z m 34.765837,0 v 3.0623454 h 1.697571 V 8.001062 h -1.697571 v 2.85719 c 0,0.34359 0.0325,0.570967 0.09819,0.682129 0.101056,0.171795 0.278077,0.257865 0.530717,0.257865 0.227376,0 0.545704,-0.06603 0.954981,-0.197404 l 0.227376,2.130103 c -0.762972,0.166742 -1.475421,0.250114 -2.137337,0.250114 -0.768025,0 -1.33377,-0.09853 -1.697571,-0.295589 -0.363801,-0.197059 -0.634472,-0.495349 -0.81132,-0.894519 -0.171795,-0.404224 -0.257349,-1.056039 -0.257349,-1.955437 V 8.001062 H 74.847628 V 5.7500366 h 1.136881 V 4.2720907 Z M 37.815263,5.5681356 c 0.924661,0 1.667427,0.053055 2.228288,0.1591634 0.56086,0.1010559 1.028591,0.3154567 1.402498,0.6438883 0.262745,0.2273758 0.469567,0.5511015 0.621151,0.9704834 0.151584,0.4143292 0.227376,0.8106319 0.227376,1.1895915 v 3.5548218 c 0,0.37896 0.02274,0.677249 0.06821,0.894519 0.05053,0.212217 0.156637,0.48507 0.318327,0.818555 h -2.894914 c -0.116214,-0.207165 -0.192007,-0.364147 -0.227376,-0.470256 -0.03537,-0.111161 -0.07108,-0.282785 -0.106454,-0.515214 -0.404223,0.389065 -0.805923,0.666799 -1.205094,0.833541 -0.545702,0.222323 -1.17966,0.33383 -1.90221,0.33383 -0.960031,0 -1.690337,-0.222497 -2.190564,-0.667143 -0.495173,-0.444646 -0.74259,-0.99305 -0.74259,-1.644861 0,-0.611388 0.179203,-1.1138 0.537952,-1.507918 0.358748,-0.3941181 1.020841,-0.6875268 1.985925,-0.879533 1.15709,-0.2324285 1.907435,-0.3937746 2.251025,-0.4847249 0.34359,-0.096003 0.707394,-0.2199697 1.091407,-0.3715536 0,-0.3789596 -0.07849,-0.6442332 -0.235128,-0.795817 -0.156637,-0.1515839 -0.431672,-0.2273763 -0.825789,-0.2273763 -0.50528,0 -0.884242,0.080673 -1.136882,0.2423624 -0.197059,0.1263199 -0.356223,0.3639752 -0.47749,0.712618 L 33.654277,8.0465373 c 0.111161,-0.515385 0.270325,-0.9197838 0.47749,-1.2128459 0.212217,-0.2981149 0.515387,-0.5558093 0.909505,-0.7730794 0.282956,-0.1566366 0.672197,-0.2779046 1.167371,-0.3638021 0.495173,-0.085897 1.030601,-0.1286743 1.60662,-0.1286743 z m 21.055045,0 c 1.611842,0 2.829919,0.4672146 3.653524,1.4019816 0.661916,0.7528663 0.992704,1.6802332 0.992704,2.7817423 0,1.2379345 -0.411978,2.2535535 -1.235583,3.0468425 -0.818553,0.788236 -1.952741,1.182357 -3.402893,1.182357 -1.293515,0 -2.339452,-0.328607 -3.137793,-0.98547 -0.980242,-0.8135 -1.470195,-1.879475 -1.470195,-3.1982542 0,-1.227829 0.41416,-2.2385676 1.242819,-3.0318563 0.828658,-0.7983415 1.947688,-1.1973429 3.357417,-1.1973429 z m 6.101437,0.181901 h 3.100069 v 4.4260864 c 0,0.505279 0.09313,0.864203 0.280086,1.07642 0.186954,0.212217 0.450045,0.318327 0.788583,0.318327 0.368854,0 0.669325,-0.141824 0.901753,-0.42478 0.237482,-0.282957 0.356051,-0.790766 0.356051,-1.5234215 V 5.7500366 h 3.085083 v 8.0491214 h -2.880444 v -1.303797 c -0.429488,0.535597 -0.863687,0.917258 -1.30328,1.144633 -0.43454,0.227376 -0.970485,0.341065 -1.607137,0.341065 -0.848869,0 -1.515843,-0.252814 -2.000912,-0.758094 -0.480015,-0.510332 -0.719852,-1.293693 -0.719852,-2.349727 z m -6.055961,1.9399333 c -0.449699,0 -0.821082,0.1743227 -1.114144,0.5229655 -0.293062,0.34359 -0.43925,0.8692567 -0.43925,1.5766479 0,0.7174967 0.144006,1.2480437 0.432015,1.5916337 0.293062,0.34359 0.659048,0.515214 1.098641,0.515214 0.444646,0 0.80845,-0.168925 1.091406,-0.507462 0.28801,-0.338537 0.432015,-0.882061 0.432015,-1.6298748 0,-0.6972856 -0.144005,-1.2148563 -0.432015,-1.5533935 -0.288009,-0.34359 -0.644234,-0.5157308 -1.068668,-0.5157308 z m -10.087757,0.181901 c -0.419382,0 -0.763146,0.1569823 -1.030944,0.4702556 -0.262746,0.3082204 -0.393775,0.7781337 -0.393775,1.409733 0,0.6922325 0.128847,1.1946455 0.38654,1.5079185 0.262745,0.30822 0.593533,0.462504 0.992704,0.462504 0.368854,0 0.676905,-0.151585 0.924491,-0.454753 0.25264,-0.30822 0.379305,-0.823609 0.379305,-1.5461586 0,-0.636652 -0.123966,-1.1038667 -0.371553,-1.4019816 C 49.472261,8.021274 49.17667,7.8718709 48.828027,7.8718709 Z m -9.549804,2.1073649 c -0.424435,0.1515842 -0.86673,0.2853112 -1.326534,0.4015262 -0.626547,0.166742 -1.02285,0.330787 -1.189592,0.492476 -0.171795,0.166742 -0.257865,0.356224 -0.257865,0.568441 0,0.242534 0.08337,0.442293 0.250114,0.59893 0.171795,0.151584 0.42191,0.227376 0.750341,0.227376 0.343591,0 0.661919,-0.08337 0.954981,-0.250114 0.298115,-0.166742 0.507635,-0.368683 0.628902,-0.606164 0.12632,-0.242535 0.189653,-0.555982 0.189653,-0.939995 z" /></g><g
     inkscape:groupmode="layer"
     id="layer2"
     inkscape:label="projects"
     style="display:none"><rect
       style="display:inline;fill:#f1f3f4;fill-opacity:1;stroke:#ffffff;stroke-width:0.2;stroke-linecap:round"
       id="rect2028"
       width="117.24033"
       height="20.047588"
       x="-1.4701668"
       y="-1.6894192" /></g><g
     inkscape:groupmode="layer"
     id="layer3"
     inkscape:label="contacts"
     style="display:none"><rect
       style="display:inline;fill:#f1f3f4;fill-opacity:1;stroke:#ffffff;stroke-width:0.2;stroke-linecap:round"
       id="rect2040"
       width="117.24033"
       height="20.047588"
       x="-1.5226016"
       y="-1.0150678"
       inkscape:label="rect2040" /></g><g
     inkscape:groupmode="layer"
     id="layer10"
     inkscape:label="text"
     style="display:none"><text
       xml:space="preserve"
       style="font-weight:bold;font-size:15.5222px;font-family:'Arial Black';-inkscape-font-specification:'Arial Black,  Bold';display:inline;fill:#898989;fill-opacity:1;stroke:#85b044;stroke-width:0.1;stroke-linecap:round;stroke-opacity:0"
       x="32.858665"
       y="13.798978"
       id="text14107"><tspan
         sodipodi:role="line"
         id="tspan14105"
         style="font-size:15.5222px;stroke:#85b044;stroke-width:0.1;stroke-opacity:0"
         x="32.858665"
         y="13.798978">about</tspan></text></g></svg>
