<?xml version="1.0" encoding="UTF-8" standalone="no"?>
<!-- Created with Inkscape (http://www.inkscape.org/) -->

<svg
   width="600"
   height="600"
   viewBox="0 0 158.75 158.75"
   version="1.1"
   id="svg5"
   xml:space="preserve"
   inkscape:version="1.2.2 (b0a84865, 2022-12-01)"
   sodipodi:docname="left-hand.svg"
   inkscape:export-filename="../../miliverse-portfolio/assets/mobile/animation/shaking-hands/right-hand.svg"
   inkscape:export-xdpi="96"
   inkscape:export-ydpi="96"
   xmlns:inkscape="http://www.inkscape.org/namespaces/inkscape"
   xmlns:sodipodi="http://sodipodi.sourceforge.net/DTD/sodipodi-0.dtd"
   xmlns="http://www.w3.org/2000/svg"
   xmlns:svg="http://www.w3.org/2000/svg"><sodipodi:namedview
     id="namedview7"
     pagecolor="#ffffff"
     bordercolor="#000000"
     borderopacity="0.25"
     inkscape:showpageshadow="2"
     inkscape:pageopacity="0.0"
     inkscape:pagecheckerboard="0"
     inkscape:deskcolor="#d1d1d1"
     inkscape:document-units="mm"
     showgrid="false"
     showguides="false"
     inkscape:zoom="0.48378141"
     inkscape:cx="555.00273"
     inkscape:cy="288.35337"
     inkscape:window-width="1440"
     inkscape:window-height="759"
     inkscape:window-x="0"
     inkscape:window-y="25"
     inkscape:window-maximized="0"
     inkscape:current-layer="svg5" /><defs
     id="defs2"><inkscape:path-effect
       effect="spiro"
       id="path-effect1167"
       is_visible="true"
       lpeversion="1" /></defs><g
     id="layer5"
     inkscape:label="lefthand"
     style="display:inline"
     transform="matrix(0.91675077,0,0,0.91675077,33.152911,33.844219)"><g
       inkscape:groupmode="layer"
       id="layer4"
       inkscape:label="fingers lines 2"
       style="display:inline"><path
         style="display:inline;fill:#555555;fill-opacity:0;stroke:#ffffff;stroke-width:0.1;stroke-linecap:square;stroke-dasharray:none;stroke-opacity:1"
         d="m 50.140534,52.2566 c 0,0 12.559285,1.742803 17.917489,-4.245234"
         id="path4307"
         sodipodi:nodetypes="cc" /><path
         style="fill:#555555;fill-opacity:0;stroke:#ffffff;stroke-width:0.1;stroke-linecap:square;stroke-dasharray:none;stroke-opacity:1"
         d="m 60.089991,68.60274 c 0,0 -9.263875,-11.016498 -10.140188,-11.141686"
         id="path4311" /><path
         style="fill:#555555;fill-opacity:0;stroke:#ffffff;stroke-width:0.1;stroke-linecap:square;stroke-dasharray:none;stroke-opacity:1"
         d="m 45.818618,49.19868 c 0,0 2.128186,5.383062 12.393559,9.138685"
         id="path4313" /><path
         style="fill:#555555;fill-opacity:0;stroke:#ffffff;stroke-width:0.0876278;stroke-linecap:square;stroke-dasharray:none;stroke-opacity:1"
         d="m 41.487741,43.776887 c 0,0 1.281863,-1.474843 1.480764,-2.401578"
         id="path4315"
         sodipodi:nodetypes="cc" /><path
         style="fill:#555555;fill-opacity:0;stroke:#ffffff;stroke-width:0.1;stroke-linecap:square;stroke-dasharray:none;stroke-opacity:1"
         d="m 40.88022,50.449426 c 0,0 -1.407237,1.970133 0.140721,5.136415"
         id="path4327" /><path
         style="fill:#555555;fill-opacity:0;stroke:#ffffff;stroke-width:0.1;stroke-linecap:square;stroke-dasharray:none;stroke-opacity:1"
         d="m 41.583837,58.822483 c 0,0 0.211085,2.321941 1.196152,3.166282"
         id="path4331" /><path
         style="fill:#555555;fill-opacity:0;stroke:#ffffff;stroke-width:0.1;stroke-linecap:square;stroke-dasharray:none;stroke-opacity:1"
         d="m 44.468671,64.45143 c 0,0 1.055428,0.351809 2.251578,3.025558"
         id="path4333" /><path
         style="fill:#555555;fill-opacity:0;stroke:#ffffff;stroke-width:0.1;stroke-linecap:square;stroke-dasharray:none;stroke-opacity:1"
         d="m 50.238342,69.16567 c 0,0 2.329772,0.699197 3.51809,2.462665"
         id="path4335"
         sodipodi:nodetypes="cc" /><path
         style="fill:#555555;fill-opacity:0;stroke:#ffffff;stroke-width:0.1;stroke-linecap:square;stroke-dasharray:none;stroke-opacity:1"
         d="m 26.878216,55.304393 c 0,0 0.21286,1.968357 0.554025,2.818021"
         id="path4339"
         sodipodi:nodetypes="cc" /><path
         style="fill:#555555;fill-opacity:0;stroke:#ffffff;stroke-width:0.1;stroke-linecap:square;stroke-dasharray:none;stroke-opacity:1"
         d="m 32.324678,54.214694 c 0,0 0.384087,2.041749 0.85814,2.812056"
         id="path4343"
         sodipodi:nodetypes="cc" /><path
         style="fill:#555555;fill-opacity:0;stroke:#ffffff;stroke-width:0.1;stroke-linecap:square;stroke-dasharray:none;stroke-opacity:1"
         d="m 33.070056,54.108241 c 0,0 0.246595,2.316291 1.125789,3.377369"
         id="path4347"
         sodipodi:nodetypes="cc" /><path
         style="fill:#555555;fill-opacity:0;stroke:#ffffff;stroke-width:0.1;stroke-linecap:square;stroke-dasharray:none;stroke-opacity:1"
         d="m 32.929332,62.833106 c 0,0 1.375872,2.366794 1.618321,3.025561"
         id="path4349"
         sodipodi:nodetypes="cc" /><path
         style="fill:#555555;fill-opacity:0;stroke:#ffffff;stroke-width:0.1;stroke-linecap:square;stroke-dasharray:none;stroke-opacity:1"
         d="m 25.400618,65.577219 c 0,0 1.688683,2.74411 1.618322,3.588451"
         id="path4351" /><path
         style="fill:#555555;fill-opacity:0;stroke:#ffffff;stroke-width:0.1;stroke-linecap:square;stroke-dasharray:none;stroke-opacity:1"
         d="m 33.36565,62.156436 c 0,0 0.294706,0.77452 0.815658,1.564848"
         id="path4355"
         sodipodi:nodetypes="cc" /><path
         style="fill:#555555;fill-opacity:0;stroke:#ffffff;stroke-width:0.1;stroke-linecap:square;stroke-dasharray:none;stroke-opacity:1"
         d="m 38.487916,67.688073 c 0,0 1.358512,2.59649 1.407236,3.307006"
         id="path4359"
         sodipodi:nodetypes="cc" /><path
         style="fill:#555555;fill-opacity:0;stroke:#ffffff;stroke-width:0.1;stroke-linecap:square;stroke-dasharray:none;stroke-opacity:1"
         d="m 32.403507,72.225345 c 0,0 0.705912,1.242386 0.91191,2.393366"
         id="path4361"
         sodipodi:nodetypes="cc" /><path
         style="fill:#555555;fill-opacity:0;stroke:#ffffff;stroke-width:0.1;stroke-linecap:square;stroke-dasharray:none;stroke-opacity:1"
         d="m 37.854659,67.969521 c 0,0 0.70362,1.220624 1.125792,2.462662"
         id="path4363"
         sodipodi:nodetypes="cc" /><path
         style="fill:#555555;fill-opacity:0;stroke:#ffffff;stroke-width:0.1;stroke-linecap:square;stroke-dasharray:none;stroke-opacity:1"
         d="m 31.331028,71.088499 c 0,0 0.558138,0.890373 0.945296,1.923734"
         id="path4365"
         sodipodi:nodetypes="cc" /><path
         style="fill:#555555;fill-opacity:0;stroke:#ffffff;stroke-width:0.1;stroke-linecap:square;stroke-dasharray:none;stroke-opacity:1"
         d="m 41.843346,74.079815 c 0,0 0.684494,0.618364 1.072437,1.572201"
         id="path4367"
         sodipodi:nodetypes="cc" /><path
         style="fill:#555555;fill-opacity:0;stroke:#ffffff;stroke-width:0.1;stroke-linecap:square;stroke-dasharray:none;stroke-opacity:1"
         d="m 42.158773,75.295779 c 0.05679,0.08554 0.55755,0.778149 0.800363,1.432708"
         id="path4369"
         sodipodi:nodetypes="cc" /><path
         style="display:inline;fill:#555555;fill-opacity:0;stroke:#ffffff;stroke-width:0.0814105;stroke-linecap:square;stroke-dasharray:none;stroke-opacity:1"
         d="m 41.085813,43.548988 c 0,0 0.850024,-1.183759 0.966769,-1.936645"
         id="path4317"
         sodipodi:nodetypes="cc" /><path
         style="display:inline;fill:#555555;fill-opacity:0;stroke:#ffffff;stroke-width:0.1;stroke-linecap:square;stroke-dasharray:none;stroke-opacity:1"
         d="m 46.056743,71.619099 c 0,0 0.823662,0.929941 0.988872,1.582195"
         id="path4373"
         sodipodi:nodetypes="cc" /><path
         style="display:inline;fill:#555555;fill-opacity:0;stroke:#ffffff;stroke-width:0.1;stroke-linecap:square;stroke-dasharray:none;stroke-opacity:1"
         d="m 46.996169,71.767429 c 0,0 0.797668,1.168679 1.161926,2.496905"
         id="path4371"
         sodipodi:nodetypes="cc"
         inkscape:label="path4371" /></g><path
       style="display:inline;fill:#555555;fill-opacity:0;stroke:#fefefe;stroke-width:0.2;stroke-linecap:square;stroke-dasharray:none;stroke-opacity:1"
       d="m 136.35797,46.418416 c -3.11907,1.5818 -15.90246,2.864814 -15.90246,2.864814 0,0 -15.42654,2.106925 -20.818424,2.371016 -5.39191,0.264091 -17.90157,4.003707 -17.90157,4.003707 -1.030224,1.270185 -2.79259,2.568137 -2.79259,2.568137 l -2.285076,1.576787 c -3.300002,4.859959 -18.590833,10.83545 -18.590833,10.83545 -3.214382,0.608978 -4.176567,1.468876 -4.176567,1.468876 l -13.734986,6.801195 c -5.79426,2.996204 -6.320593,0.240639 -6.320593,0.240639 -1.490074,-2.520511 6.03657,-5.072587 6.03657,-5.072587 0,0 7.595241,-4.741394 8.663049,-5.675297 0.261996,-0.799602 -0.475871,-0.680951 -0.475871,-0.680951 l -2.999404,1.324579 c 0,0 -7.469034,3.281915 -11.722927,5.915329 -8.555057,5.296091 -9.520429,2.616386 -9.520429,2.616386 -1.690116,-2.230758 1.59673,-3.864305 1.59673,-3.864305 0,0 7.524674,-3.551023 10.469707,-5.770584 3.919789,-2.954197 7.568418,-3.775616 8.081845,-4.19298 0.36241,-0.294602 -0.145225,-0.386966 -0.145225,-0.386966 l -9.703872,3.388052 c -2.956425,1.429769 -12.983918,5.778402 -12.983918,5.778402 0,0 -2.452912,1.086322 -3.352778,-0.48413 -1.680797,-2.933338 1.409026,-4.232248 1.409026,-4.232248 0,0 8.823256,-4.358471 12.837648,-6.221916 4.618238,-2.143745 8.24897,-3.105926 9.156189,-3.775944 0.880119,-0.650003 0.06866,-0.979085 0.06866,-0.979085 -0.03845,-0.272751 -9.093834,1.737633 -11.666119,2.715662 -11.893253,4.522029 -11.712056,1.216099 -11.712056,1.216099 -1.04287,-2.512199 7.402952,-5.519825 7.402952,-5.519825 l 15.285265,-4.935957 4.804665,-2.22689 c 0,0 4.383163,-1.567013 3.419139,-2.978073 -0.82469,-1.207114 -2.61875,-1.473188 -4.320581,-1.397429 -1.521604,0.06774 -2.852236,0.07518 -2.852236,0.07518 -2.384638,-0.280737 -6.172198,-2.327244 -7.205544,-3.539419 -4.576335,-5.368307 1.657411,-5.060524 1.657411,-5.060524 l 6.341637,1.38171 c 4.188524,0.136655 8.208149,0.155815 8.208149,0.155815 0,0 2.868138,-0.196479 3.940436,0.06989 2.585378,0.75624 10.080293,0.178696 13.527943,0.927602 6.028648,1.309557 11.277225,-0.271995 11.277225,-0.271995 l 38.411533,-8.031191 c 0,0 15.57271,-4.036439 18.56526,-3.718914 z"
       id="path1723"
       sodipodi:nodetypes="ccscscccccscccsccsscccscsscsscccsscsccccscccc" /></g><g
     inkscape:groupmode="layer"
     id="layer1"
     inkscape:label="width and height"><path
       style="fill:#fafafa;stroke:#000000;stroke-width:0.2;stroke-linecap:square;stroke-opacity:0"
       id="path4262"
       sodipodi:type="arc"
       sodipodi:cx="1.054141"
       sodipodi:cy="1.0612165"
       sodipodi:rx="0.82772523"
       sodipodi:ry="0.82772523"
       sodipodi:start="0"
       sodipodi:end="6.2830403"
       sodipodi:arc-type="slice"
       d="M 1.8818663,1.0612165 A 0.82772523,0.82772523 0 0 1 1.0541711,1.8889417 0.82772523,0.82772523 0 0 1 0.22641582,1.0612765 0.82772523,0.82772523 0 0 1 1.054051,0.23349125 0.82772523,0.82772523 0 0 1 1.8818663,1.0610964 L 1.054141,1.0612165 Z"
       inkscape:label="path4262" /><path
       style="fill:#fafafa;stroke:#000000;stroke-width:0.2;stroke-linecap:square;stroke-opacity:0"
       id="path4636"
       sodipodi:type="arc"
       sodipodi:cx="1.054141"
       sodipodi:cy="157.6942"
       sodipodi:rx="0.82772523"
       sodipodi:ry="0.82772523"
       sodipodi:start="0"
       sodipodi:end="6.2830403"
       sodipodi:arc-type="slice"
       d="m 1.8818663,157.6942 a 0.82772523,0.82772523 0 0 1 -0.8276952,0.82772 0.82772523,0.82772523 0 0 1 -0.82775528,-0.82766 0.82772523,0.82772523 0 0 1 0.82763518,-0.82779 0.82772523,0.82772523 0 0 1 0.8278153,0.82761 l -0.8277253,1.2e-4 z" /><path
       style="fill:#fafafa;stroke:#000000;stroke-width:0.2;stroke-linecap:square;stroke-opacity:0"
       id="path4647"
       sodipodi:type="arc"
       sodipodi:cx="157.68715"
       sodipodi:cy="157.6942"
       sodipodi:rx="0.82772523"
       sodipodi:ry="0.82772523"
       sodipodi:start="0"
       sodipodi:end="6.2830403"
       sodipodi:arc-type="slice"
       d="m 158.51487,157.6942 a 0.82772523,0.82772523 0 0 1 -0.82769,0.82772 0.82772523,0.82772523 0 0 1 -0.82776,-0.82766 0.82772523,0.82772523 0 0 1 0.82764,-0.82779 0.82772523,0.82772523 0 0 1 0.82781,0.82761 l -0.82772,1.2e-4 z" /><path
       style="fill:#fafafa;stroke:#000000;stroke-width:0.2;stroke-linecap:square;stroke-opacity:0"
       id="path4658"
       sodipodi:type="arc"
       sodipodi:cx="157.68715"
       sodipodi:cy="1.5903678"
       sodipodi:rx="0.82772523"
       sodipodi:ry="0.82772523"
       sodipodi:start="0"
       sodipodi:end="6.2830403"
       sodipodi:arc-type="slice"
       d="m 158.51487,1.5903678 a 0.82772523,0.82772523 0 0 1 -0.82769,0.8277252 0.82772523,0.82772523 0 0 1 -0.82776,-0.8276652 0.82772523,0.82772523 0 0 1 0.82764,-0.82778523 0.82772523,0.82772523 0 0 1 0.82781,0.82760523 l -0.82772,1.2e-4 z" /></g></svg>
