<?xml version="1.0" encoding="UTF-8" standalone="no"?>
<!-- Created with Inkscape (http://www.inkscape.org/) -->

<svg
   width="600"
   height="600"
   viewBox="0 0 158.75 158.75"
   version="1.1"
   id="svg5"
   xml:space="preserve"
   inkscape:version="1.2.2 (b0a84865, 2022-12-01)"
   sodipodi:docname="right-hand.svg"
   xmlns:inkscape="http://www.inkscape.org/namespaces/inkscape"
   xmlns:sodipodi="http://sodipodi.sourceforge.net/DTD/sodipodi-0.dtd"
   xmlns="http://www.w3.org/2000/svg"
   xmlns:svg="http://www.w3.org/2000/svg"><sodipodi:namedview
     id="namedview7"
     pagecolor="#ffffff"
     bordercolor="#000000"
     borderopacity="0.25"
     inkscape:showpageshadow="2"
     inkscape:pageopacity="0.0"
     inkscape:pagecheckerboard="0"
     inkscape:deskcolor="#d1d1d1"
     inkscape:document-units="mm"
     showgrid="false"
     showguides="false"
     inkscape:zoom="0.80505147"
     inkscape:cx="95.02498"
     inkscape:cy="338.48767"
     inkscape:window-width="1440"
     inkscape:window-height="759"
     inkscape:window-x="0"
     inkscape:window-y="25"
     inkscape:window-maximized="0"
     inkscape:current-layer="svg5" /><defs
     id="defs2"><inkscape:path-effect
       effect="spiro"
       id="path-effect1167"
       is_visible="true"
       lpeversion="1" /></defs><g
     id="layer7"
     inkscape:label="right hand"
     style="display:inline"
     transform="matrix(0.91675077,0,0,0.91675077,33.152911,33.844219)"><path
       style="display:inline;fill:#dbb08b;fill-opacity:1;stroke:#000000;stroke-width:0.1;stroke-linecap:square;stroke-opacity:0"
       d="m -34.457757,51.44537 c 3.282942,1.492246 16.700029,2.872386 16.700029,2.872386 0,0 14.9224605,1.193796 20.2945463,1.492246 5.3720857,0.298449 18.1981317,3.049697 18.1981317,3.049697 1.474733,0.540761 3.072183,1.142129 3.072183,1.142129 l 1.727305,0.894138 c 3.055347,3.491883 9.138273,7.30296 9.138273,7.30296 1.97277,1.537825 9.834008,4.577355 9.834008,4.577355 l 11.40595,5.595525 c 4.548188,2.919229 5.772294,1.186756 5.772294,1.186756 0.999065,-1.796889 -1.758184,-3.36756 -1.758184,-3.36756 0,0 -10.422608,-6.050294 -11.480891,-6.99099 -1.058284,-0.940697 0.543245,-0.660833 0.543245,-0.660833 l 5.44673,2.866118 c 0,0 8.369755,4.54469 12.838065,7.484368 4.46831,2.939678 5.453697,1.657502 5.453697,1.657502 2.120929,-1.8979 -1.596304,-4.589952 -1.596304,-4.589952 0,0 -2.919106,-2.95763 -6.093728,-4.816052 -4.681533,-2.740566 -10.865624,-6.009004 -11.215979,-6.569571 -0.587936,-0.940697 0.411555,-0.470348 0.411555,-0.470348 l 13.114586,7.478391 c 4.235654,2.843807 5.345673,4.05671 5.345673,4.05671 0,0 3.716192,2.91166 5.513741,1.488372 2.496442,-1.976668 -1.085154,-4.897238 -1.085154,-4.897238 0,0 -5.725358,-4.956425 -9.03759,-7.275912 -4.161232,-2.914024 -12.313737,-6.997548 -12.964905,-7.916845 -0.651169,-0.919297 0.224237,-0.494584 0.224237,-0.494584 0.259177,0.24802 11.555468,6.840248 13.651411,8.615283 6.588855,5.580041 7.97593,4.193326 7.97593,4.193326 3.353804,-2.353073 -2.743226,-6.784724 -2.743226,-6.784724 L 57.434576,49.375827 c 0,0 -11.256665,-5.628332 -7.802916,-6.139999 3.45375,-0.511667 4.860833,-3.709583 4.860833,-3.709583 2.68625,0.7675 5.628333,-2.430416 5.628333,-2.430416 4.349166,-5.75625 0.895416,-7.163333 0.895416,-7.163333 l -4.477084,2.68625 c -5.372499,0.511667 -5.756248,1.279165 -5.756248,1.279165 0,0 -1.023334,0.767501 -4.22125,1.790835 -3.197915,1.023331 -5.372499,1.023331 -5.372499,1.023331 0,0 -2.101623,0.306029 -6.796469,2.49318 -2.453584,1.143032 -5.564164,1.597401 -6.453124,1.814279 -2.237641,0.545916 -6.193738,-0.797589 -6.193738,-0.797589 L -17.652498,27.374162 c 0,0 -11.243358,-4.626688 -15.176915,-4.841247 0,0 -4.838315,6.124147 -1.628344,28.912455 z"
       id="path2615"
       sodipodi:nodetypes="ccscscccccscccsccsscccscsscssccscccccscsscccc" /><path
       style="display:inline;fill:#555555;fill-opacity:0;stroke:#000000;stroke-width:0.2;stroke-linecap:square;stroke-dasharray:none;stroke-opacity:1"
       d="m -34.457757,51.44537 c 3.282942,1.492246 16.700029,2.872386 16.700029,2.872386 0,0 14.9224605,1.193796 20.2945463,1.492246 5.3720857,0.298449 18.1981317,3.049697 18.1981317,3.049697 1.474733,0.540761 3.072183,1.142129 3.072183,1.142129 l 1.727305,0.894138 c 3.055347,3.491883 9.138273,7.30296 9.138273,7.30296 1.97277,1.537825 9.834008,4.577355 9.834008,4.577355 l 11.40595,5.595525 c 4.548188,2.919229 5.772294,1.186756 5.772294,1.186756 0.999065,-1.796889 -1.758184,-3.36756 -1.758184,-3.36756 0,0 -10.422608,-6.050294 -11.480891,-6.99099 -1.058284,-0.940697 0.543245,-0.660833 0.543245,-0.660833 l 5.44673,2.866118 c 0,0 8.369755,4.54469 12.838065,7.484368 4.46831,2.939678 5.453697,1.657502 5.453697,1.657502 2.120929,-1.8979 -1.596304,-4.589952 -1.596304,-4.589952 0,0 -2.919106,-2.95763 -6.093728,-4.816052 -4.681533,-2.740566 -10.865624,-6.009004 -11.215979,-6.569571 -0.587936,-0.940697 0.411555,-0.470348 0.411555,-0.470348 l 13.114586,7.478391 c 4.235654,2.843807 5.345673,4.05671 5.345673,4.05671 0,0 3.716192,2.91166 5.513741,1.488372 2.496442,-1.976668 -1.085154,-4.897238 -1.085154,-4.897238 0,0 -5.725358,-4.956425 -9.03759,-7.275912 -4.161232,-2.914024 -12.313737,-6.997548 -12.964905,-7.916845 -0.651169,-0.919297 0.224237,-0.494584 0.224237,-0.494584 0.259177,0.24802 11.555468,6.840248 13.651411,8.615283 6.588855,5.580041 7.97593,4.193326 7.97593,4.193326 3.353804,-2.353073 -2.743226,-6.784724 -2.743226,-6.784724 L 57.434576,49.375827 c 0,0 -11.256665,-5.628332 -7.802916,-6.139999 3.45375,-0.511667 4.860833,-3.709583 4.860833,-3.709583 2.68625,0.7675 5.628333,-2.430416 5.628333,-2.430416 4.349166,-5.75625 0.895416,-7.163333 0.895416,-7.163333 l -4.477084,2.68625 c -5.372499,0.511667 -5.756248,1.279165 -5.756248,1.279165 0,0 -1.023334,0.767501 -4.22125,1.790835 -3.197915,1.023331 -5.372499,1.023331 -5.372499,1.023331 0,0 -2.101623,0.306029 -6.796469,2.49318 -2.453584,1.143032 -5.564164,1.597401 -6.453124,1.814279 -2.237641,0.545916 -6.193738,-0.797589 -6.193738,-0.797589 L -17.652498,27.374162 c 0,0 -11.243358,-4.626688 -15.176915,-4.841247 0,0 -4.838315,6.124147 -1.628344,28.912455 z"
       id="path2495"
       sodipodi:nodetypes="ccscscccccscccsccsscccscsscssccscccccscsscccc" /><g
       inkscape:groupmode="layer"
       id="layer6"
       inkscape:label="shadows"
       style="display:inline"><path
         style="display:inline;fill:#d6a77d;fill-opacity:1;stroke:#ffffff;stroke-width:0.2;stroke-linecap:square;stroke-opacity:0"
         d="m -29.207238,43.999054 c 0,0 4.722296,3.793001 14.140375,6.122901 13.3510112,3.302851 39.158341,4.579271 46.454424,8.591065 11.248449,8.987416 16.850263,12.763614 24.395505,16.438487 1.005261,0.489607 3.880018,1.974977 4.762706,2.562456 0.82208,0.547141 0.912567,0.793537 0.912567,0.793537 L 50.60376,73.205562 c 0,0 -12.173162,-4.041091 -19.008093,-11.873822 l -1.844616,-0.895795 -2.950857,-1.075833 c 0,0 -17.7804071,-3.608242 -25.92066814,-3.523447 -8.14026106,0.08479 -27.78592786,-3.395451 -29.28191986,-4.042274 -0.313519,-2.621065 -0.768518,-5.312869 -0.804844,-7.795337 z"
         id="path415"
         transform="translate(-6.0519834,-0.46593091)"
         sodipodi:nodetypes="cscsscccccscc"
         inkscape:label="path415" /></g><g
       inkscape:groupmode="layer"
       id="layer2"
       inkscape:label="fingers lines"
       style="display:inline"><path
         style="fill:#555555;fill-opacity:0;stroke:#000000;stroke-width:0.1;stroke-linecap:square;stroke-dasharray:none;stroke-opacity:1"
         d="m 62.839616,65.080642 c 0,0 -0.666252,1.029663 -0.969094,1.726197"
         id="path4014"
         sodipodi:nodetypes="cc" /><path
         style="fill:#555555;fill-opacity:0;stroke:#000000;stroke-width:0.1;stroke-linecap:square;stroke-dasharray:none;stroke-opacity:1"
         d="m 64.789738,64.393059 c 0,0 -1.520176,1.847334 -2.089607,3.240405"
         id="path4016"
         sodipodi:nodetypes="cc" /><path
         style="fill:#555555;fill-opacity:0;stroke:#000000;stroke-width:0.1;stroke-linecap:square;stroke-dasharray:none;stroke-opacity:1"
         d="m 64.180055,56.399737 c 0,0 -0.877935,0.908209 -1.513681,1.907238"
         id="path4020"
         sodipodi:nodetypes="cc"
         inkscape:label="path4020" /><path
         style="fill:#555555;fill-opacity:0;stroke:#000000;stroke-width:0.1;stroke-linecap:square;stroke-dasharray:none;stroke-opacity:1"
         d="m 62.817742,56.278641 c 0,0 -0.968756,0.877935 -1.725597,2.209975"
         id="path4018"
         inkscape:label="path4018" /><path
         style="fill:#555555;fill-opacity:0;stroke:#000000;stroke-width:0.1;stroke-linecap:square;stroke-dasharray:none;stroke-opacity:1"
         d="m 55.364764,74.891753 c 0,0 -0.722009,0.984553 -0.820463,1.575287"
         id="path4008"
         sodipodi:nodetypes="cc" /><path
         style="fill:#555555;fill-opacity:0;stroke:#000000;stroke-width:0.1;stroke-linecap:square;stroke-dasharray:none;stroke-opacity:1"
         d="m 59.565528,69.017248 c 0,0 -1.181465,1.345556 -1.739379,2.723933"
         id="path4010"
         sodipodi:nodetypes="cc" /><path
         style="fill:#555555;fill-opacity:0;stroke:#000000;stroke-width:0.1;stroke-linecap:square;stroke-dasharray:none;stroke-opacity:1"
         d="m 59.992167,69.673616 c 0,0 -0.623552,0.853281 -0.984555,1.640924"
         id="path4012" /><path
         style="fill:#555555;fill-opacity:0;stroke:#000000;stroke-width:0.1;stroke-linecap:square;stroke-dasharray:none;stroke-opacity:1"
         d="m 50.012652,34.352126 c 0,0 0.741864,1.436951 1.389243,1.768123"
         id="path4027"
         sodipodi:nodetypes="cc" /><path
         style="fill:#555555;fill-opacity:0;stroke:#000000;stroke-width:0.1;stroke-linecap:square;stroke-dasharray:none;stroke-opacity:1"
         d="m 50.652273,34.017398 c 0,0 0.441563,0.827929 0.883123,1.269492"
         id="path4029" /><path
         style="fill:#555555;fill-opacity:0;stroke:#000000;stroke-width:0.1;stroke-linecap:square;stroke-dasharray:none;stroke-opacity:1"
         d="m 71.173577,61.651332 c 0,0 -1.369334,1.863044 -1.946153,2.224172"
         id="path4031"
         sodipodi:nodetypes="cc" /><path
         style="fill:#555555;fill-opacity:0;stroke:#000000;stroke-width:0.1;stroke-linecap:square;stroke-dasharray:none;stroke-opacity:1"
         d="m 72.627423,70.293869 c 0,0 -0.538557,1.408205 -1.529119,2.085162"
         id="path4033"
         sodipodi:nodetypes="cc" /><path
         style="fill:#555555;fill-opacity:0;stroke:#000000;stroke-width:0.1;stroke-linecap:square;stroke-dasharray:none;stroke-opacity:1"
         d="m 68.45904,75.054535 c 0,0 -0.792424,1.376908 -1.917958,2.0316"
         id="path4035"
         sodipodi:nodetypes="cc" /><path
         style="fill:#555555;fill-opacity:0;stroke:#000000;stroke-width:0.1;stroke-linecap:square;stroke-dasharray:none;stroke-opacity:1"
         d="m 55.790147,75.310539 c 0,0 -0.338683,0.461838 -0.554207,1.046834"
         id="path4037" /></g><g
       inkscape:groupmode="layer"
       id="layer3"
       inkscape:label="fingers nails"
       style="display:inline"><path
         style="display:inline;fill:#e3c2a5;fill-opacity:1;stroke:#000000;stroke-width:0.1;stroke-linecap:square;stroke-opacity:1"
         d="m 77.02134,66.430812 c 0,0 -1.918558,-2.186038 -3.358277,-0.503725 -1.289933,1.507288 1.108758,3.118379 2.425406,3.326271 1.316649,0.207893 2.286812,-1.696535 0.932871,-2.822546 z"
         id="path2503"
         sodipodi:nodetypes="cssc" /><path
         style="display:inline;fill:#e3c2a5;fill-opacity:1;stroke:#000000;stroke-width:0.0940251;stroke-linecap:square;stroke-opacity:1"
         d="m 56.818807,32.509438 c 0,0 -0.656305,1.000714 0.951616,1.717501 1.607922,0.716787 3.768564,-1.648257 3.768564,-1.648257 0,0 0.929836,-1.19246 -0.693155,-2.517308 z"
         id="path2505"
         sodipodi:nodetypes="csccc" /><path
         style="display:inline;fill:#e3c2a5;fill-opacity:1;stroke:#000000;stroke-width:0.1;stroke-linecap:square;stroke-dasharray:none;stroke-opacity:1"
         d="m 72.359824,80.197889 c -0.62979,0.49567 -1.529647,0.0698 -1.529647,0.0698 0.506783,0.308423 -3.090263,-1.519718 -1.281213,-3.074232 1.199874,-0.795209 4.847206,1.611675 2.81086,3.004429 z"
         id="path2509"
         sodipodi:nodetypes="cccc" /><path
         style="display:inline;fill:#e3c2a5;fill-opacity:1;stroke:#000000;stroke-width:0.1;stroke-linecap:square;stroke-dasharray:none;stroke-opacity:1"
         d="m 77.910956,76.799128 c -0.790379,0.622061 -1.91969,0.0876 -1.91969,0.0876 0.636007,0.387067 -3.878246,-1.90723 -1.607908,-3.858128 1.505829,-0.997979 6.08319,2.022635 3.527598,3.770526 z"
         id="path2535"
         sodipodi:nodetypes="cccc" /><path
         style="display:inline;fill:#e3c2a5;fill-opacity:1;stroke:#000000;stroke-width:0.113995;stroke-linecap:square;stroke-dasharray:none;stroke-opacity:1"
         d="m 61.330221,78.22536 c 0,0 -1.351679,-1.880597 -2.468281,-0.411379 -1.116605,1.469214 1.469214,1.880594 1.469214,1.880594 0,0 1.469215,-0.11754 0.999067,-1.469215 z"
         id="path2539" /></g></g><g
     inkscape:groupmode="layer"
     id="layer1"
     inkscape:label="width and height"><path
       style="fill:#fafafa;stroke:#000000;stroke-width:0.2;stroke-linecap:square;stroke-opacity:0"
       id="path4262"
       sodipodi:type="arc"
       sodipodi:cx="1.054141"
       sodipodi:cy="1.0612165"
       sodipodi:rx="0.82772523"
       sodipodi:ry="0.82772523"
       sodipodi:start="0"
       sodipodi:end="6.2830403"
       sodipodi:arc-type="slice"
       d="M 1.8818663,1.0612165 A 0.82772523,0.82772523 0 0 1 1.0541711,1.8889417 0.82772523,0.82772523 0 0 1 0.22641582,1.0612765 0.82772523,0.82772523 0 0 1 1.054051,0.23349125 0.82772523,0.82772523 0 0 1 1.8818663,1.0610964 L 1.054141,1.0612165 Z"
       inkscape:label="path4262" /><path
       style="fill:#fafafa;stroke:#000000;stroke-width:0.2;stroke-linecap:square;stroke-opacity:0"
       id="path4636"
       sodipodi:type="arc"
       sodipodi:cx="1.054141"
       sodipodi:cy="157.6942"
       sodipodi:rx="0.82772523"
       sodipodi:ry="0.82772523"
       sodipodi:start="0"
       sodipodi:end="6.2830403"
       sodipodi:arc-type="slice"
       d="m 1.8818663,157.6942 a 0.82772523,0.82772523 0 0 1 -0.8276952,0.82772 0.82772523,0.82772523 0 0 1 -0.82775528,-0.82766 0.82772523,0.82772523 0 0 1 0.82763518,-0.82779 0.82772523,0.82772523 0 0 1 0.8278153,0.82761 l -0.8277253,1.2e-4 z" /><path
       style="fill:#fafafa;stroke:#000000;stroke-width:0.2;stroke-linecap:square;stroke-opacity:0"
       id="path4647"
       sodipodi:type="arc"
       sodipodi:cx="157.68715"
       sodipodi:cy="157.6942"
       sodipodi:rx="0.82772523"
       sodipodi:ry="0.82772523"
       sodipodi:start="0"
       sodipodi:end="6.2830403"
       sodipodi:arc-type="slice"
       d="m 158.51487,157.6942 a 0.82772523,0.82772523 0 0 1 -0.82769,0.82772 0.82772523,0.82772523 0 0 1 -0.82776,-0.82766 0.82772523,0.82772523 0 0 1 0.82764,-0.82779 0.82772523,0.82772523 0 0 1 0.82781,0.82761 l -0.82772,1.2e-4 z" /><path
       style="fill:#fafafa;stroke:#000000;stroke-width:0.2;stroke-linecap:square;stroke-opacity:0"
       id="path4658"
       sodipodi:type="arc"
       sodipodi:cx="157.68715"
       sodipodi:cy="1.5903678"
       sodipodi:rx="0.82772523"
       sodipodi:ry="0.82772523"
       sodipodi:start="0"
       sodipodi:end="6.2830403"
       sodipodi:arc-type="slice"
       d="m 158.51487,1.5903678 a 0.82772523,0.82772523 0 0 1 -0.82769,0.8277252 0.82772523,0.82772523 0 0 1 -0.82776,-0.8276652 0.82772523,0.82772523 0 0 1 0.82764,-0.82778523 0.82772523,0.82772523 0 0 1 0.82781,0.82760523 l -0.82772,1.2e-4 z" /></g></svg>
