<?xml version="1.0" encoding="UTF-8" standalone="no"?>
<!-- Created with Inkscape (http://www.inkscape.org/) -->

<svg
   width="600"
   height="600"
   viewBox="0 0 158.75 158.75"
   version="1.1"
   id="svg5"
   xml:space="preserve"
   inkscape:version="1.2.2 (b0a84865, 2022-12-01)"
   sodipodi:docname="shaking-hands.svg"
   inkscape:export-filename="shaking-hands.svg"
   inkscape:export-xdpi="96"
   inkscape:export-ydpi="96"
   xmlns:inkscape="http://www.inkscape.org/namespaces/inkscape"
   xmlns:sodipodi="http://sodipodi.sourceforge.net/DTD/sodipodi-0.dtd"
   xmlns="http://www.w3.org/2000/svg"
   xmlns:svg="http://www.w3.org/2000/svg"><sodipodi:namedview
     id="namedview7"
     pagecolor="#ffffff"
     bordercolor="#000000"
     borderopacity="0.25"
     inkscape:showpageshadow="2"
     inkscape:pageopacity="0.0"
     inkscape:pagecheckerboard="0"
     inkscape:deskcolor="#d1d1d1"
     inkscape:document-units="mm"
     showgrid="false"
     showguides="false"
     inkscape:zoom="0.81086124"
     inkscape:cx="271.93309"
     inkscape:cy="287.96542"
     inkscape:window-width="1440"
     inkscape:window-height="757"
     inkscape:window-x="0"
     inkscape:window-y="25"
     inkscape:window-maximized="0"
     inkscape:current-layer="svg5" /><defs
     id="defs2"><inkscape:path-effect
       effect="spiro"
       id="path-effect1167"
       is_visible="true"
       lpeversion="1" /></defs><g
     inkscape:groupmode="layer"
     id="layer9"
     inkscape:label="shaking hands - right hand's finger"
     style="display:inline"><path
       style="display:inline;fill:#dbb08b;fill-opacity:0;stroke:#ffffff;stroke-width:0.218162;stroke-linecap:round;stroke-dasharray:none;stroke-opacity:1"
       d="m 30.804513,60.918138 c 0,0 -0.739487,3.340948 1.402118,5.020248 0,0 1.621557,1.70143 2.11748,2.683114 0.495922,0.981685 1.825318,1.802658 3.131844,0.760397 1.306529,-1.042266 0.422708,-2.633252 0.422708,-2.633252 -2.099696,-1.696001 -4.15355,-3.12888 -6.266252,-5.400907 z"
       id="path9589"
       sodipodi:nodetypes="ccssccc"
       transform="matrix(0.91675077,0,0,0.91675077,27.604752,33.417079)" /></g><g
     id="g15566"
     inkscape:label="shaking hands - right hand"
     style="display:inline"
     transform="matrix(0.91675077,0,0,0.91675077,27.604752,33.417079)"
     sodipodi:insensitive="true"><path
       style="display:inline;fill:#dbb08b;fill-opacity:1;stroke:#000000;stroke-width:0.2;stroke-linecap:round;stroke-dasharray:none;stroke-opacity:0"
       d="m -28.42765,51.916076 c 0,0 -3.282127,-20.73062 1.618357,-28.838686 0,0 1.390977,-0.5992 15.197437,4.74803 3.8368255,1.486 33.969955,11.034759 37.845192,12.314913 3.333864,1.101316 6.742269,1.753808 8.091635,1.258033 l 3.873791,-0.996724 8.767012,-3.153731 c 0,0 4.814187,-0.794162 6.817015,-1.474458 0.91807,-0.311838 1.343147,0.650584 2.93956,0.965626 l 4.370311,0.938578 c 0.117646,0.0647 -4.99951,1.672459 -6.729689,1.831836 0.02411,0.132134 -3.62281,-0.970866 -5.593752,4.859926 0,0 -1.060081,1.899311 -1.501781,2.274757 v 0.949656 l -3.224413,4.571599 c 0,0 0.533712,5.457565 7.931741,-1.183185 0,0 1.228283,-0.976215 2.801093,-3.597563 0,0 1.605463,0.137755 2.612357,-0.946592 0,0 0.929581,0.210691 2.405064,-0.287725 0,0 2.571443,0.501709 7.944973,4.626281 2.235202,1.715679 6.074646,5.477876 12.244482,10.063785 0,0 3.563477,2.798488 1.984766,5.054686 -2.12731,3.040223 -7.116956,-1.075224 -7.116956,-1.075224 0,0 0.768017,4.147291 -5.222515,3.430475 0,0 -0.0512,3.020867 -5.427319,3.072068 0,0 1.3308,3.039638 -8.832163,3.02696 0,0 3.007515,-5.728109 0.797055,-6.830092 -1.436199,-0.71599 -2.499791,0.254732 -2.365981,-0.229241 0.386847,-1.399174 -0.478694,-2.179261 -1.252434,-2.554453 -2.823479,-1.369124 -4.729885,1.68644 -4.548728,1.272581 0.86277,-1.971024 -0.04089,-2.886091 -0.716547,-3.301322 -2.254308,-1.385396 -5.091967,1.525216 -5.475947,1.806573 -0.292034,0.224968 -2.853073,2.76976 -2.803999,2.915786 0.115105,0.342505 -6.293885,-4.527989 -7.405567,-6.081172 0,0 -0.903441,-0.504222 -1.682752,-0.868701 -0.52577,-0.2459 -2.863341,-1.062485 -3.078005,-1.107739 -7.7523,-1.634286 -13.077557,-2.612933 -18.2486089,-3.070853 -6.192224,-0.54835 -12.113055,-0.57089 -19.5167061,-1.438307 -9.198515,-1.077704 -12.966915,-1.413745 -17.497978,-2.946381 z"
       id="path2461"
       sodipodi:nodetypes="ccsscccscccccccccccscscccsssssscscssssc"
       inkscape:label="path2707" /><g
       inkscape:groupmode="layer"
       id="g2062"
       inkscape:label="shadows"
       style="display:inline"
       transform="translate(6.0519834,0.46593091)"><path
         style="display:inline;fill:#d6a77d;fill-opacity:1;stroke:#ffffff;stroke-width:0.2;stroke-linecap:square;stroke-opacity:0"
         d="m -29.207238,43.999054 c 0,0 4.722296,3.793001 14.140375,6.122901 13.3510112,3.302851 39.158341,4.579271 46.454424,8.591065 2.003707,1.141038 8.937358,7.108798 8.937358,7.108798 -0.134125,0.07039 -1.411213,1.518862 -1.411213,1.518862 0,0 -3.823645,-2.565519 -7.318039,-6.00894 L 29.850196,60.3368 26.737539,59.337506 C 25.782692,58.97432 10.10167,55.943213 1.7920322,55.77757 -6.6907898,55.608475 -27.698158,53.179886 -28.352822,51.546529 c -0.313519,-2.621065 -0.81809,-5.065007 -0.854416,-7.547475 z"
         id="path2060"
         transform="translate(-6.0519834,-0.46593091)"
         sodipodi:nodetypes="csccccccscc"
         inkscape:label="path415" /><path
         style="display:inline;fill:#d6a77d;fill-opacity:1;stroke:#ffffff;stroke-width:0.2;stroke-linecap:square;stroke-opacity:0"
         d="m 66.204573,54.35783 8.55853,6.826939 c 0,0 2.752204,3.107339 0.852319,4.513254 -1.899885,1.405915 -2.925823,1.025938 -6.725593,-1.405915 0,0 0.484273,4.051871 -5.228228,3.508715 0,0 -0.76791,3.352582 -5.375369,3.015451 0,0 0.539384,3.337449 -8.814207,2.983877 0.596034,-0.330132 2.201634,-5.535609 0.894672,-6.799346 1.483418,2.049329 16.332337,-7.666048 15.837876,-12.642975 z"
         id="path2122"
         sodipodi:nodetypes="ccscccccc" /></g><g
       inkscape:groupmode="layer"
       id="layer8"
       inkscape:label="hand lines"
       transform="translate(6.0519834,0.46593091)"><path
         id="path15558"
         style="display:inline;fill:none;fill-opacity:0;stroke:#000000;stroke-width:0.2;stroke-linecap:round;stroke-dasharray:none;stroke-opacity:1"
         d="m 74.942922,64.766934 c -4.461384,-2.623548 -11.820076,-6.755522 -11.911413,-6.694631 0,0 -1.785314,-1.091026 -1.785314,-1.884498"
         inkscape:label="path15558"
         transform="translate(-6.0519834,-0.46593091)" /><path
         id="path15560"
         style="display:inline;fill:none;fill-opacity:0;stroke:#000000;stroke-width:0.2;stroke-linecap:round;stroke-dasharray:none;stroke-opacity:1"
         d="m 69.712447,68.13771 -7.07108,-2.386488 c 0,0 -1.599355,-0.473884 -2.695208,-1.332795 -1.095852,-0.858911 -3.613355,-2.073237 -3.613355,-2.073237"
         inkscape:label="path15560"
         transform="translate(-6.0519834,-0.46593091)" /><path
         id="path15562"
         style="display:inline;fill:none;fill-opacity:0;stroke:#000000;stroke-width:0.2;stroke-linecap:round;stroke-dasharray:none;stroke-opacity:1"
         d="M 64.372706,71.248479 58.459794,69.656542 56.962382,68.984243"
         inkscape:label="path15562"
         sodipodi:nodetypes="ccc"
         transform="translate(-6.0519834,-0.46593091)" /><path
         style="display:inline;fill:#dbb08b;fill-opacity:0;stroke:#000000;stroke-width:0.2;stroke-linecap:round;stroke-dasharray:none;stroke-opacity:1"
         d="m -28.42765,51.916076 c 0,0 -3.282127,-20.73062 1.618357,-28.838686 0,0 1.390977,-0.5992 15.197437,4.74803 3.8368255,1.486 33.969955,11.034759 37.845192,12.314913 3.333864,1.101316 6.742269,1.753808 8.091635,1.258033 l 3.873791,-0.996724 8.767012,-3.153731 c 0,0 4.814187,-0.794162 6.817015,-1.474458 0.91807,-0.311838 1.343147,0.650584 2.93956,0.965626 l 4.370311,0.938578 c 0.117646,0.0647 -4.99951,1.672459 -6.729689,1.831836 0.02411,0.132134 -3.62281,-0.970866 -5.593752,4.859926 0,0 -1.060081,1.899311 -1.501781,2.274757 v 0.949656 l -3.224413,4.571599 c 0,0 0.533712,5.457565 7.931741,-1.183185 0,0 1.228283,-0.976215 2.801093,-3.597563 0,0 1.605463,0.137755 2.612357,-0.946592 0,0 0.929581,0.210691 2.405064,-0.287725 0,0 2.571443,0.501709 7.944973,4.626281 2.235202,1.715679 6.074646,5.477876 12.244482,10.063785 0,0 3.563477,2.798488 1.984766,5.054686 -2.12731,3.040223 -7.116956,-1.075224 -7.116956,-1.075224 0,0 0.768017,4.147291 -5.222515,3.430475 0,0 -0.0512,3.020867 -5.427319,3.072068 0,0 1.3308,3.039638 -8.832163,3.02696 0,0 3.007515,-5.728109 0.797055,-6.830092 -1.436199,-0.71599 -2.499791,0.254732 -2.365981,-0.229241 0.386847,-1.399174 -0.478694,-2.179261 -1.252434,-2.554453 -2.823479,-1.369124 -4.729885,1.68644 -4.548728,1.272581 0.86277,-1.971024 -0.04089,-2.886091 -0.716547,-3.301322 -2.254308,-1.385396 -5.091967,1.525216 -5.475947,1.806573 -0.292034,0.224968 -2.853073,2.76976 -2.803999,2.915786 0.115105,0.342505 -6.293885,-4.527989 -7.405567,-6.081172 0,0 -0.903441,-0.504222 -1.682752,-0.868701 -0.52577,-0.2459 -2.863341,-1.062485 -3.078005,-1.107739 -7.7523,-1.634286 -13.077557,-2.612933 -18.2486089,-3.070853 -6.192224,-0.54835 -12.113055,-0.57089 -19.5167061,-1.438307 -9.198515,-1.077704 -12.966915,-1.413745 -17.497978,-2.946381 z"
         id="path517"
         sodipodi:nodetypes="ccsscccscccccccccccscscccsssssscscssssc"
         inkscape:label="path2707"
         transform="translate(-6.0519832,-0.46592955)" /></g></g><g
     id="g9613"
     inkscape:label="shaking hands - left hand"
     style="display:inline"
     transform="matrix(0.91675077,0,0,0.91675077,27.604752,33.417079)"><path
       id="path1102"
       style="display:none;fill:#dbb08b;fill-opacity:1;stroke:#000000;stroke-width:0.218162;stroke-linecap:round;stroke-dasharray:none;stroke-opacity:0"
       d="m 59.753008,46.061673 c -1.415481,0.597848 -2.380999,0.310485 -2.380999,0.310485 -1.26058,1.297655 -2.610953,1.047876 -2.610953,1.047876 l -2.28506,3.219767 c -7.823008,7.192719 -8.379146,1.519123 -8.379146,1.519123 l 3.28512,-4.575953 0.112216,-1.052757 1.445959,-2.224553 c 1.965021,-5.376 4.078345,-4.597407 5.969215,-4.856938 1.890869,-0.259531 6.864667,-1.982525 6.864667,-1.982525 0,0 10.732709,0.352876 14.029186,1.041084 3.380236,0.705694 7.968394,-0.137074 7.968394,-0.137074 l 9.34144,-2.007195 c 4.493363,-0.926226 9.470013,-2.299696 13.502333,-3.045624 5.73076,-1.060118 11.53287,-2.103826 17.14544,-3.480708 6.6211,-1.624296 15.90538,-3.9746 19.65924,-3.843126 0,0 0.0972,12.998887 -0.15183,20.756443 M 59.753252,46.060026 c 0,0 3.700085,1.031364 8.697749,5.410761 4.997664,4.379396 12.7381,10.368074 12.7381,10.368074 0,0 0.587859,-0.665706 1.567238,-1.505467 1.427377,-1.223892 3.327511,-2.077244 5.035774,-4.24435 4.865394,-1.377149 9.849937,-2.708997 16.310067,-3.882756 7.07377,-0.449059 12.7788,-1.187201 19.70331,-1.980302 6.58499,-1.006748 13.60918,-1.330289 19.46181,-3.476272"
       sodipodi:nodetypes="ccccccccscsccsscccscscccc"
       inkscape:label="path5472" /><path
       style="display:inline;fill:#dbb08b;fill-opacity:0;stroke:#ffffff;stroke-width:0.218162;stroke-linecap:round;stroke-dasharray:none;stroke-opacity:1"
       d="m 49.775239,73.402647 c -0.634639,2.298693 0.76157,3.122751 0.76157,3.122751 0,0 2.770391,3.0897 5.584836,-3.903437 2.766117,-6.873055 -2.278788,-5.178219 -2.278788,-5.178219 l -0.04442,0.05298"
       id="path9599"
       sodipodi:nodetypes="csccc"
       inkscape:label="path9599" /><path
       style="display:inline;fill:#dbb08b;fill-opacity:0;stroke:#ffffff;stroke-width:0.218162;stroke-linecap:round;stroke-dasharray:none;stroke-opacity:1"
       d="m 47.868166,66.316563 c 0,0 2.07339,-3.24856 5.095524,-1.325383 0,0 2.381078,1.190539 -0.427371,4.609521 -2.80845,3.418982 -4.182148,7.631656 -8.150609,5.220053 0,0 -1.617911,-1.709491 -0.915798,-3.052662"
       id="path9595"
       sodipodi:nodetypes="ccscc"
       inkscape:label="path9595" /><path
       style="display:inline;fill:#dbb08b;fill-opacity:0;stroke:#ffffff;stroke-width:0.218162;stroke-linecap:round;stroke-dasharray:none;stroke-opacity:1"
       d="m 38.444582,68.085607 c 0,0 6.05425,-7.932349 9.061679,-5.19237 0,0 2.936725,1.500553 -2.139522,6.647797 0,0 -3.372332,5.324734 -6.638169,2.591371 0,0 -2.236392,-1.526423 -0.283988,-4.046798 z"
       id="path9591"
       inkscape:label="path9591"
       sodipodi:nodetypes="ccccc" /><g
       inkscape:groupmode="layer"
       id="layer12"
       inkscape:label="hand nails 1"
       style="display:inline"><path
         style="display:inline;fill:#e3c2a5;fill-opacity:0;stroke:#ffffff;stroke-width:0.218162;stroke-linecap:round;stroke-dasharray:none;stroke-opacity:1"
         d="m 55.395931,68.106408 c 0,0 2.310998,0.430482 0.135943,3.285241 0,0 -0.974244,1.246126 -2.175056,0.951587 -1.200811,-0.294538 -0.249225,-2.582878 -0.249225,-2.582878 0,0 0.521104,-2.288343 2.288338,-1.65395 z"
         id="path9601"
         sodipodi:nodetypes="ccscc"
         inkscape:label="path9601" /><path
         style="display:inline;fill:#e3c2a5;fill-opacity:0.0210844;stroke:#ffffff;stroke-width:0.218162;stroke-linecap:round;stroke-dasharray:none;stroke-opacity:1"
         d="m 52.45908,65.705386 c 0,0 2.506895,0.835631 -1.052275,4.209105 0,0 -1.516517,1.42367 -2.506894,0.52614 -0.990378,-0.89753 -0.216646,-2.383097 -0.216646,-2.383097 0,0 0.928477,-3.899614 3.775815,-2.352148 z"
         id="path9597"
         sodipodi:nodetypes="ccscc"
         inkscape:label="path9597" /><path
         style="display:inline;fill:#e3c2a5;fill-opacity:0;stroke:#ffffff;stroke-width:0.218162;stroke-linecap:round;stroke-dasharray:none;stroke-opacity:1"
         d="m 46.325191,63.932312 c 0,0 2.312212,1.112712 -0.780962,3.727316 0,0 -1.38443,1.455427 -2.307384,0.603469 0,0 -1.277936,-0.461477 -0.532474,-2.094395 0.745463,-1.632919 1.645925,-3.627326 3.62082,-2.23639 z"
         id="path9593"
         sodipodi:nodetypes="cccsc"
         inkscape:label="path9593" /><path
         style="display:inline;fill:#e3c2a5;fill-opacity:0;stroke:#ffffff;stroke-width:0.218489;stroke-linecap:round;stroke-dasharray:none;stroke-opacity:1"
         d="m 47.215007,47.704268 c 0,0 2.860445,-1.789903 1.669228,2.159919 -1.191216,3.949819 -4.668141,2.449839 -4.668141,2.449839"
         id="path9587"
         inkscape:label="path9587"
         sodipodi:nodetypes="csc" /></g><g
       inkscape:groupmode="layer"
       id="layer11"
       inkscape:label="hand black lines"
       style="display:inline"><path
         style="display:inline;fill:#ededed;fill-opacity:0;stroke:#ffffff;stroke-width:0.1;stroke-linecap:round;stroke-dasharray:none;stroke-opacity:1"
         d="m 86.415207,45.218054 1.999049,6.422503"
         id="path9611"
         inkscape:label="path14929" /><path
         style="display:inline;fill:#ededed;fill-opacity:0;stroke:#ffffff;stroke-width:0.1;stroke-linecap:round;stroke-dasharray:none;stroke-opacity:1"
         d="m 87.826502,46.120199 1.101376,3.770234"
         id="path9609"
         inkscape:label="path14931" /><path
         style="display:inline;fill:#ededed;fill-opacity:0;stroke:#ffffff;stroke-width:0.1;stroke-linecap:round;stroke-dasharray:none;stroke-opacity:1"
         d="m 88.763753,46.655431 0.625692,2.205287"
         id="path9607"
         inkscape:label="path14933" /><path
         style="display:inline;fill:#ededed;fill-opacity:0;stroke:#ffffff;stroke-width:0.1;stroke-linecap:round;stroke-dasharray:none;stroke-opacity:1"
         d="m 68.748367,51.468035 c 0,0 9.075282,-0.248637 11.685979,-2.11342"
         id="path9605"
         inkscape:label="path14935" /><path
         style="display:inline;fill:#ededed;fill-opacity:0;stroke:#ffffff;stroke-width:0.1;stroke-linecap:round;stroke-dasharray:none;stroke-opacity:1"
         d="m 80.185709,50.597805 c 0,0 -7.832093,1.926942 -10.753587,1.429665"
         id="path9603"
         inkscape:label="path9603" /><path
         id="path5472"
         style="display:inline;fill:#dbb08b;fill-opacity:0;stroke:#ffffff;stroke-width:0.218162;stroke-linecap:round;stroke-dasharray:none;stroke-opacity:1"
         d="m 59.817172,46.151503 c -1.411308,0.489743 -2.424559,0.281646 -2.424559,0.281646 -1.025667,1.09182 -2.603661,0.958989 -2.603661,0.958989 -0.579161,1.069446 -1.465888,2.216378 -2.396643,3.219767 -7.823008,7.192719 -8.346512,1.559782 -8.346512,1.559782 l 3.214383,-4.575953 0.01627,-0.956977 c 0.584297,-0.76543 1.087015,-1.512472 1.491303,-2.307903 2.015683,-5.332192 4.391463,-4.758894 6.141605,-4.882131 0.163601,-0.01152 6.86413,-1.982525 6.864667,-1.982525 0,0 10.732709,0.352876 14.029186,1.041084 3.380236,0.705694 7.968394,-0.137074 7.968394,-0.137074 l 9.34144,-2.007195 c 4.493363,-0.926226 12.094125,-2.664156 16.126445,-3.410084 5.20319,-0.962524 10.07693,-2.085099 14.68541,-3.079287 6.47324,-1.396476 14.77368,-3.909712 18.50329,-3.746328 5.7e-4,0.107463 0.0535,13.11421 -0.0206,20.773903 M 59.817416,46.149856 c 0,0 3.635921,0.941534 8.633585,5.320931 4.997664,4.379396 12.7381,10.368074 12.7381,10.368074 0,0 0.587859,-0.665706 1.567238,-1.505467 1.427377,-1.223892 2.998813,-2.029476 5.065335,-4.172698 4.865394,-1.377149 10.337041,-3.168148 16.883286,-3.954408 7.15988,-0.578225 12.17602,-1.187201 19.10053,-1.980302 6.58499,-1.006748 12.74333,-1.169195 18.59596,-3.315178"
         sodipodi:nodetypes="ccccccccscsccsscccscscccc"
         inkscape:label="path5472" /><path
         style="display:inline;fill:#dbb08b;fill-opacity:0;stroke:#000000;stroke-width:0.25;stroke-linecap:square;stroke-dasharray:none;stroke-opacity:1"
         d="m 82.517516,75.71873 c 2.967281,1.088241 5.604065,2.917791 8.114678,5.116859 3.879456,3.302811 7.864605,6.53784 11.242446,9.146298"
         id="path1128"
         sodipodi:nodetypes="ccc"
         transform="matrix(1.090809,0,0,1.090809,-30.111512,-36.45165)"
         inkscape:label="path1128" /><path
         style="display:inline;fill:#dbb08b;fill-opacity:0;stroke:#ffffff;stroke-width:0.2;stroke-linecap:round;stroke-dasharray:none;stroke-opacity:1"
         d="m 57.387809,46.36884 c 0,0 0.796169,0.318468 3.31206,-0.541393"
         id="path9677"
         inkscape:label="path9677" /></g></g><g
     inkscape:groupmode="layer"
     id="layer1"
     inkscape:label="width and height"><path
       style="fill:#fafafa;stroke:#000000;stroke-width:0.2;stroke-linecap:square;stroke-opacity:0"
       id="path4262"
       sodipodi:type="arc"
       sodipodi:cx="1.054141"
       sodipodi:cy="1.0612165"
       sodipodi:rx="0.82772523"
       sodipodi:ry="0.82772523"
       sodipodi:start="0"
       sodipodi:end="6.2830403"
       sodipodi:arc-type="slice"
       d="M 1.8818663,1.0612165 A 0.82772523,0.82772523 0 0 1 1.0541711,1.8889417 0.82772523,0.82772523 0 0 1 0.22641582,1.0612765 0.82772523,0.82772523 0 0 1 1.054051,0.23349125 0.82772523,0.82772523 0 0 1 1.8818663,1.0610964 L 1.054141,1.0612165 Z"
       inkscape:label="path4262" /><path
       style="fill:#fafafa;stroke:#000000;stroke-width:0.2;stroke-linecap:square;stroke-opacity:0"
       id="path4636"
       sodipodi:type="arc"
       sodipodi:cx="1.054141"
       sodipodi:cy="157.6942"
       sodipodi:rx="0.82772523"
       sodipodi:ry="0.82772523"
       sodipodi:start="0"
       sodipodi:end="6.2830403"
       sodipodi:arc-type="slice"
       d="m 1.8818663,157.6942 a 0.82772523,0.82772523 0 0 1 -0.8276952,0.82772 0.82772523,0.82772523 0 0 1 -0.82775528,-0.82766 0.82772523,0.82772523 0 0 1 0.82763518,-0.82779 0.82772523,0.82772523 0 0 1 0.8278153,0.82761 l -0.8277253,1.2e-4 z" /><path
       style="fill:#fafafa;stroke:#000000;stroke-width:0.2;stroke-linecap:square;stroke-opacity:0"
       id="path4647"
       sodipodi:type="arc"
       sodipodi:cx="157.68715"
       sodipodi:cy="157.6942"
       sodipodi:rx="0.82772523"
       sodipodi:ry="0.82772523"
       sodipodi:start="0"
       sodipodi:end="6.2830403"
       sodipodi:arc-type="slice"
       d="m 158.51487,157.6942 a 0.82772523,0.82772523 0 0 1 -0.82769,0.82772 0.82772523,0.82772523 0 0 1 -0.82776,-0.82766 0.82772523,0.82772523 0 0 1 0.82764,-0.82779 0.82772523,0.82772523 0 0 1 0.82781,0.82761 l -0.82772,1.2e-4 z" /><path
       style="fill:#fafafa;stroke:#000000;stroke-width:0.2;stroke-linecap:square;stroke-opacity:0"
       id="path4658"
       sodipodi:type="arc"
       sodipodi:cx="157.68715"
       sodipodi:cy="1.5903678"
       sodipodi:rx="0.82772523"
       sodipodi:ry="0.82772523"
       sodipodi:start="0"
       sodipodi:end="6.2830403"
       sodipodi:arc-type="slice"
       d="m 158.51487,1.5903678 a 0.82772523,0.82772523 0 0 1 -0.82769,0.8277252 0.82772523,0.82772523 0 0 1 -0.82776,-0.8276652 0.82772523,0.82772523 0 0 1 0.82764,-0.82778523 0.82772523,0.82772523 0 0 1 0.82781,0.82760523 l -0.82772,1.2e-4 z" /></g></svg>
