<?xml version="1.0" encoding="UTF-8" standalone="no"?>
<!-- Created with Inkscape (http://www.inkscape.org/) -->

<svg
   width="230"
   height="205"
   viewBox="0 0 60.854172 54.239584"
   version="1.1"
   id="svg5"
   xml:space="preserve"
   inkscape:export-filename="dialog.svg"
   inkscape:export-xdpi="96"
   inkscape:export-ydpi="96"
   inkscape:version="1.2.2 (b0a84865, 2022-12-01)"
   sodipodi:docname="comics-dialog3.svg"
   xmlns:inkscape="http://www.inkscape.org/namespaces/inkscape"
   xmlns:sodipodi="http://sodipodi.sourceforge.net/DTD/sodipodi-0.dtd"
   xmlns="http://www.w3.org/2000/svg"
   xmlns:svg="http://www.w3.org/2000/svg"><sodipodi:namedview
     id="namedview7"
     pagecolor="#ffffff"
     bordercolor="#000000"
     borderopacity="0.25"
     inkscape:showpageshadow="2"
     inkscape:pageopacity="0.0"
     inkscape:pagecheckerboard="0"
     inkscape:deskcolor="#d1d1d1"
     inkscape:document-units="mm"
     showgrid="false"
     inkscape:zoom="1.4297295"
     inkscape:cx="184.3006"
     inkscape:cy="65.396986"
     inkscape:window-width="1440"
     inkscape:window-height="757"
     inkscape:window-x="0"
     inkscape:window-y="25"
     inkscape:window-maximized="0"
     inkscape:current-layer="svg5" /><defs
     id="defs2" /><path
     id="path3768"
     style="display:inline;fill:#85b044;fill-opacity:1;stroke:#85b044;stroke-width:0.318976;stroke-linecap:round;stroke-dasharray:0.318976, 0.956923;stroke-opacity:0"
     d="M 30.425197,1.7649507 A 29.241211,25.354956 0 0 0 1.1871876,27.121543 29.241211,25.354956 0 0 0 30.429847,52.475035 29.241211,25.354956 0 0 0 55.685153,39.889756 l 3.93051,0.291455 -2.492354,-2.75487 A 29.241211,25.354956 0 0 0 59.669923,27.119993 H 30.428814 l 29.241109,-0.0036 A 29.241211,25.354956 0 0 0 30.425197,1.7649507 Z" /><path
     id="path2257"
     style="display:inline;fill:#b0c66d;fill-opacity:1;stroke:#85b044;stroke-width:0.307591;stroke-linecap:round;stroke-dasharray:0.307591, 0.922766;stroke-opacity:0"
     d="M 30.422777,2.7771134 C 14.781753,2.7785858 2.103388,13.677798 2.1043973,27.12158 2.1053007,40.565712 14.78585,51.463736 30.427281,51.46307 c 10.07347,-0.002 19.773595,-4.795846 24.84696,-12.275936 l 2.552337,0.279827 -1.738436,-2.162391 c 1.619518,-3.113399 2.652851,-6.774062 2.659522,-10.184474 H 30.42628 l 28.321384,-0.0034 C 58.745532,13.672633 46.064122,2.7754965 30.422777,2.7771134 Z"
     sodipodi:nodetypes="cccccccccc" /><path
     id="path27412"
     style="display:inline;fill:#85b044;fill-opacity:0;stroke:#ffffff;stroke-width:0.324698;stroke-linecap:round;stroke-dasharray:0.324698, 0.974095"
     d="m 57.803397,27.166973 c 0,12.841072 -12.291361,23.205334 -27.398203,23.205799 C 15.298351,50.373238 3.0512383,39.964116 3.0501431,27.123045 3.0490475,14.281973 15.294385,3.8713419 30.401227,3.8699453 45.508069,3.8685486 57.801205,14.32253 57.803396,27.163601 l -0.104779,0.0033 z"
     sodipodi:nodetypes="csssccc" /></svg>
