<?xml version="1.0" encoding="UTF-8" standalone="no"?>
<!-- Created with Inkscape (http://www.inkscape.org/) -->

<svg
   width="1920"
   height="1080"
   viewBox="0 0 507.99999 285.75"
   version="1.1"
   id="svg5"
   xml:space="preserve"
   xmlns="http://www.w3.org/2000/svg"
   xmlns:svg="http://www.w3.org/2000/svg"><defs
     id="defs2"><linearGradient
       id="linearGradient3456"><stop
         style="stop-color:#000000;stop-opacity:1;"
         offset="0"
         id="stop3454" /></linearGradient></defs><path
     style="display:none;fill:#000000;fill-opacity:0;stroke:#000000;stroke-width:1.22968"
     d="m 233.95431,212.23946 -9.88416,4.59748 c 0,0 -37.43785,18.84939 -77.29982,-24.91981 0,0 -49.783439,-14.52015 -32.1518,-48.74628 0,0 -40.449058,-3.11145 -33.188969,-38.37475 0,0 -30.077503,-49.783437 -7.260089,-61.192153 0,0 -36.733641,-55.746908 -2.666975,-72.005994 0,0 -29.661564,-76.191123 29.239053,-63.386645 0,0 -4.609629,-76.826888 48.14485,-56.851898 0,0 15.87755,-56.85189 73.24162,-17.92628 0,0 50.70574,-64.53457 86.0461,-3.58524 0,0 59.92497,-32.77948 59.92497,29.70639 0,0 61.4615,-16.90192 40.97433,47.63267 0,0 57.36407,-10.75576 26.63332,61.973687 0,0 36.03813,18.514738 -2.58907,73.311459 0,0 23.35598,12.576297 -8.08475,62.881464 0,0 15.27121,30.54243 -32.33905,37.72889 0,0 21.55937,29.64412 -31.44074,50.30517 0,0 -11.81132,39.7547 -73.79449,23.58517 l -12.96955,-4.76867"
     id="path17315" /><path
     id="rect14142"
     style="display:inline;fill:#ffffff;fill-opacity:1;stroke:#981616;stroke-width:1;stroke-linecap:round;stroke-linejoin:miter;stroke-miterlimit:4;stroke-dasharray:none;stroke-opacity:0"
     d="M -9.9332438,0 V 297.99628 H 528.26646 V 0 h -77.37564 c -0.59197,10.74804 -5.23736,24.689125 -17.77307,42.472343 0,0 23.35592,12.576316 -8.08478,62.881437 0,0 15.2711,30.54199 -32.33911,37.72844 0,0 21.55908,29.64443 -31.44098,50.30546 0,0 -11.81135,39.75464 -73.79446,23.58512 l -12.96923,-4.7687 -40.53499,0.0351 -9.88416,4.59765 c 0,0 -37.43774,18.84923 -77.29967,-24.91992 0,0 -49.783665,-14.51977 -32.15204,-48.74586 0,0 -40.448757,-3.11166 -33.188675,-38.37492 0,0 -30.077413,-49.783429 -7.260022,-61.192133 0,0 -15.057005,-22.882606 -16.931783,-43.604057 z" /><g
     id="layer3"
     transform="matrix(0.89244006,0,0,0.85425814,-123.05898,-59.793455)"
     style="display:none;fill:#502d16"><path
       style="fill:#502d16;fill-opacity:0;stroke:#000000;stroke-width:0.948992;stroke-dasharray:none"
       d="m 489.50443,185.11098 c -19.42427,-26.76632 -49.81385,11.04111 -49.81385,11.04111 0,0 40.10171,13.04858 49.81385,-11.04111 z"
       id="path2744" /><path
       style="fill:#502d16;fill-opacity:0;stroke:#000000;stroke-width:0.948992;stroke-dasharray:none"
       d="m 489.58242,185.16363 c 0,0 -14.26335,-39.83321 -49.79549,11.1539"
       id="path2748" /><ellipse
       style="fill:#502d16;fill-opacity:1;stroke:#000000;stroke-width:1.04624"
       id="path2816"
       cx="470.30725"
       cy="185.5795"
       rx="9.652832"
       ry="9.2130156" /><path
       style="fill:#502d16;fill-opacity:0;stroke:#000000;stroke-width:0.948992;stroke-dasharray:none"
       d="m 358.43436,185.18106 c 19.42416,-26.76631 49.8136,11.04111 49.8136,11.04111 0,0 -40.10151,13.04858 -49.8136,-11.04111 z"
       id="path3065" /><path
       style="fill:#502d16;fill-opacity:0;stroke:#000000;stroke-width:0.948992;stroke-dasharray:none"
       d="m 358.35637,185.23371 c 0,0 14.26327,-40.01323 49.79524,10.97388"
       id="path3067" /><ellipse
       style="fill:#502d16;fill-opacity:1;stroke:#000000;stroke-width:1.04624"
       id="ellipse3069"
       cx="-377.32196"
       cy="186.21158"
       rx="9.652832"
       ry="9.2130156"
       transform="scale(-1,1)" /></g><g
     id="layer9"><path
       style="display:inline;fill:#dbb08b;fill-opacity:1;stroke:#000000;stroke-width:1;stroke-opacity:0"
       d="m 273.46823,200.54785 c 0,0 0.62455,30.36222 6.46081,32.30764 0,0 118.99499,-7.45745 109.91636,53.17488 l -271.71063,0.32423 c 0,0 -13.61795,-57.38995 111.2133,-53.17487 0,0 4.87617,-8.81137 5.3404,-32.7192 0,0 9.86487,5.91893 19.38158,6.15105 9.51671,0.23211 19.39818,-6.06373 19.39818,-6.06373 z"
       id="path2111-8" /><path
       style="display:inline;fill:#d39f71;fill-opacity:1;stroke:#d39f71;stroke-width:4.50001;stroke-dasharray:none;stroke-opacity:0"
       d="m 235.63282,259.05639 c 0,0 -23.1475,-3.55627 -28.96396,-8.4779 -5.81647,-4.92162 30.30622,3.10886 30.30622,3.10886 0,0 4.14223,3.62554 -1.34226,5.36904 z"
       id="path16928" /><path
       style="display:inline;fill:#000000;fill-opacity:0;stroke:#000000;stroke-width:1;stroke-dasharray:none;stroke-opacity:1"
       d="m 273.67521,200.103 c 0,0 1.06779,30.74384 6.17557,33.44796 0,0 117.99384,-8.72955 110.27384,52.25846"
       id="path1285" /><path
       style="display:inline;fill:#d39f71;fill-opacity:1;stroke:#d39f71;stroke-width:4.50026;stroke-dasharray:none;stroke-opacity:0"
       d="m 277.65894,259.05766 c 0,0 23.14741,-3.55667 28.96385,-8.47886 5.81645,-4.92218 -30.30611,3.10921 -30.30611,3.10921 0,0 -4.14222,3.62596 1.34226,5.36965 z"
       id="path17227" /><path
       style="display:inline;fill:#030201;fill-opacity:0;stroke:#000000;stroke-width:0.595727;stroke-dasharray:none;stroke-opacity:1"
       d="m 305.64575,251.49878 c 0,0 -14.67217,7.57504 -29.34435,7.57504"
       id="path14608" /><path
       style="display:inline;fill:#030201;fill-opacity:0;stroke:#000000;stroke-width:0.600001;stroke-dasharray:none;stroke-opacity:1"
       d="m 207.64848,250.80299 c 0,0 14.67092,7.68477 29.34185,7.68477"
       id="path14595" /><path
       style="fill:#d39f71;fill-opacity:1;stroke:#101010;stroke-width:1;stroke-linecap:round;stroke-linejoin:miter;stroke-miterlimit:4;stroke-dasharray:none;stroke-opacity:0"
       d="m 234.75354,200.62957 c 0,0 12.82674,6.9579 20.8132,5.74783 0,0 5.80833,0.78655 17.60652,-5.86884 l 0.85423,12.09817 c 0,0 -15.56364,7.58973 -39.97341,0.47021 z"
       id="path12010" /><path
       style="display:inline;fill:#000000;fill-opacity:0;stroke:#000000;stroke-width:1;stroke-dasharray:none;stroke-opacity:1"
       d="m 234.88478,200.19316 c 0,0 -0.90137,30.27828 -6.00915,32.9824 0,0 -118.16026,-7.73101 -110.44026,53.257"
       id="path1263" /></g><g
     id="layer2"><g
       id="layer10"
       style="display:inline"><path
         id="path1165"
         style="display:none;fill:#dbb08b;fill-opacity:1;stroke:#000000;stroke-width:1;stroke-dasharray:none;stroke-opacity:0.0303031"
         d="m 456.48599,296.27098 c 17.51358,-14.92019 34.87302,-36.57714 26.60333,-73.08808 -13.76783,-60.78539 -1.8032,-72.49549 -34.13437,-89.36338 -7.99723,-4.17234 -17.26055,-6.32369 -26.67412,-7.19852 h -5e-4 v 0 c -5.64811,-0.52491 -11.35028,-0.5905 -16.86569,-0.35715 l 1.6e-4,0.0669 c -15.12894,-0.70827 -31.84168,0.7543 -45.04562,7.74226 -32.22483,17.05445 -20.1873,28.69515 -33.57384,89.55896 -7.77038,35.32915 8.3069,56.64822 25.2868,71.41559 0,0 33.22675,29.32501 53.60986,28.97358 20.38311,-0.35143 50.81224,-27.74883 50.81224,-27.74883"
         transform="translate(-151,-117.96163)" /><path
         id="path14357"
         style="display:inline;fill:#dbb08b;fill-opacity:1;stroke:#151515;stroke-width:1;stroke-dasharray:none;stroke-opacity:0"
         d="m 365.89954,138.28184 c -2.07013,0.0421 -1.51825,4.29844 -1.51825,4.29844 6.2223,34.27788 0.0873,24.53442 0.0873,24.53442 0,0 -21.31465,-15.83405 -10.65723,4.26279 10.65742,20.09683 -13.39815,22.22862 -13.39815,22.22862 0,0 11.26634,10.0484 2.74041,12.78888 -8.52597,2.74049 -18.87865,16.13854 -9.43922,23.75101 9.43941,7.61243 7.61241,26.4911 0,23.44611 -7.00258,-2.80104 -3.46589,12.47698 -2.84789,14.97015 5.19799,10.86597 13.10007,19.42702 21.21576,26.4852 0,0 33.22662,29.32486 53.60965,28.97343 20.38303,-0.35143 50.8124,-27.7487 50.8124,-27.7487 l -0.0186,-0.001 c 14.10322,-12.01485 27.56465,-27.04852 28.16482,-52.03953 l -0.004,0.003 c 0,0 -8.56323,-1.55101 -3.01762,-18.89119 -0.87347,-1.33824 -1.82718,-2.77854 -2.87682,-4.33566 -4.67353,-6.93302 0.0367,-17.2129 0.0367,-17.2129 l 0.24908,0.0584 c -2.09515,-2.15728 -4.2083,-5.47676 -3.27629,-9.61905 1.68067,-7.4697 -2.38119,-8.55299 -2.45928,-8.57312 -13.35406,-3.41529 -8.21293,-17.30747 -8.21293,-17.30747 4.56744,-17.05185 -21.14652,-8.54728 -21.14652,-8.54728 -23.75077,2.43599 -22.22861,-16.7473 -22.22861,-16.7473 l -5.75004,-1.82728 c 5.78543,5.78547 2.70526,14.92054 2.70526,14.92054 22.53282,16.13836 5.17643,22.83737 5.17643,22.83737 -14.3114,8.22143 2.13165,13.70252 2.13165,13.70252 -9.43943,9.74392 -0.60926,14.92054 -0.60926,14.92054 -14.92041,3.95845 -9.43922,-10.96213 -9.43922,-10.96213 -10.93727,-4.05476 -8.71168,-12.68765 -8.71168,-12.68765 5.78549,-29.53626 -10.77654,-22.63422 -10.77654,-22.63422 7.30797,-31.36325 -21.01008,-13.70252 -21.01008,-13.70252 -5.14472,-7.11241 -7.93312,-9.27844 -9.43044,-9.34362 -0.0342,-10e-4 -0.0679,-0.002 -0.10077,-10e-4 z"
         transform="translate(-151,-117.96163)" /><path
         style="display:inline;fill:#d39f71;fill-opacity:1;stroke:#151515;stroke-width:1;stroke-linecap:round;stroke-linejoin:miter;stroke-miterlimit:4;stroke-dasharray:none;stroke-opacity:0"
         d="m 179.66289,150.04658 c 0,0 -1.276,-17.16132 3.91738,-11.40649 5.19338,5.75482 15.20662,-14.12183 3.81544,-25.14871 -7.35216,-7.11702 -8.50037,-15.021136 5.09135,-21.484261 11.12065,-5.288086 2.24919,-14.480075 2.24919,-14.480075 0,0 22.20769,-4.654624 10.27695,-24.445614 0,0 -7.93653,-14.163804 6.50776,-1.132071 12.4854,11.264401 4.56792,-25.398632 4.56792,-25.398632 0,0 -1.31941,-7.269581 5.44784,4.478339 3.65278,6.341218 10.43046,-3.127158 15.60744,-3.238502 11.38046,-0.244765 4.87162,19.213368 4.87162,19.213368 0,0 18.23615,-5.993477 12.00722,14.471246 -5.00029,16.42812 7.94964,18.823949 7.94964,18.823949 0,0 -5.44065,14.062676 9.75045,11.803806 12.14259,-1.805564 -5.44546,-6.444588 5.38101,-17.821265 0,0 -15.31477,-5.574333 -2.37604,-10.947131 10.76826,-4.471511 7.60322,-20.822723 -3.68522,-25.986587 0,0 6.27108,9.956766 20.34491,8.216611 11.89564,-1.470834 14.78223,-5.171968 19.49057,-0.239194 4.34003,4.546903 -8.33484,16.071103 6.49318,23.869599 7.54355,1.334508 1.49457,5.139629 6.42857,17.287457 0,0 -3.41146,13.522487 3.31358,21.088157 0,0 -5.19989,13.97936 3.68676,21.54502 l 2.69604,1.94261 0.1362,-4.81631 c 0,0 -8.19874,-0.83851 -2.98136,-18.81983 0,0 -8.75774,-7.26706 -2.79503,-21.521679 0,0 -4.37887,-4.472038 -2.79502,-11.086927 1.58385,-6.614889 -3.91303,-7.732899 -5.86955,-8.105568 -1.95652,-0.37267 -8.38507,-7.267062 -5.40371,-14.534123 2.98136,-7.267061 0.2795,-13.88195 -12.29811,-12.111769 l -9.59624,1.956517 c 0,0 -16.95648,3.074526 -20.68318,-12.111769 l -0.559,-4.937875 -5.21738,-1.211177 c 0,0 2.99908,3.149781 2.99908,8.646661 0,0 -0.012,5.02622 -0.85507,5.700645 0,0 22.76184,14.921651 4.55236,23.099053 0,0 -13.01497,7.807886 2.74971,13.709104 0,0 -8.56662,8.125402 -0.89504,14.785348 0,0 -13.40419,4.636671 -9.44195,-10.875102 0,0 -10.44299,-4.29849 -8.41592,-13.12224 2.02708,-8.823751 3.33872,-25.755812 -10.25463,-22.536336 0,0 7.86984,-29.809967 -21.34393,-13.712585 0,0 -15.14347,-21.7016564 -10.01615,2.146318 5.12731,23.847974 -0.83468,18.12446 -0.83468,18.12446 0,0 -18.48218,-15.501183 -12.52019,0.953919 0,0 9.41995,12.281707 0.23848,20.390018 0,0 -2.14632,2.623277 -11.92398,4.650355 0,0 11.32778,10.016149 1.55011,12.997146 0,0 -16.33586,7.392872 -10.61235,21.105456 0,0 14.42803,10.85083 5.84276,25.87505 0,0 -0.81848,1.09972 -5.66356,-0.5992 0,0 -3.99185,0.83118 -0.92623,14.95081 z"
         id="path14567" /><path
         id="path13021"
         style="display:inline;fill:#dbb08b;fill-opacity:0;stroke:#101010;stroke-width:1;stroke-dasharray:none;stroke-opacity:1"
         d="m 365.89954,138.28184 c -2.07013,0.0421 -1.51825,4.29844 -1.51825,4.29844 6.2223,34.27788 0.0873,24.53442 0.0873,24.53442 0,0 -21.31465,-15.83405 -10.65723,4.26279 10.65742,20.09683 -13.39815,22.22862 -13.39815,22.22862 0,0 11.26634,10.0484 2.74041,12.78888 -8.52597,2.74049 -18.87865,16.13854 -9.43922,23.75101 9.43941,7.61243 7.61241,26.4911 0,23.44611 -7.00258,-2.80104 -3.46589,12.47698 -2.84789,14.97015 5.19799,10.86597 13.10007,19.42702 21.21576,26.4852 0,0 33.22662,29.32486 53.60965,28.97343 20.38303,-0.35143 50.8124,-27.7487 50.8124,-27.7487 l -0.0186,-0.001 c 14.10322,-12.01485 27.56465,-27.04852 28.16482,-52.03953 l -0.004,0.003 c 0,0 -8.56323,-1.55101 -3.01762,-18.89119 -0.87347,-1.33824 -1.82718,-2.77854 -2.87682,-4.33566 -4.67353,-6.93302 0.0367,-17.2129 0.0367,-17.2129 l 0.24908,0.0584 c -2.09515,-2.15728 -4.2083,-5.47676 -3.27629,-9.61905 1.68067,-7.4697 -2.38119,-8.55299 -2.45928,-8.57312 -13.35406,-3.41529 -8.21293,-17.30747 -8.21293,-17.30747 4.56744,-17.05185 -21.14652,-8.54728 -21.14652,-8.54728 -23.75077,2.43599 -22.22861,-16.7473 -22.22861,-16.7473 l -5.75004,-1.82728 c 5.78543,5.78547 2.70526,14.92054 2.70526,14.92054 22.53282,16.13836 5.17643,22.83737 5.17643,22.83737 -14.3114,8.22143 2.13165,13.70252 2.13165,13.70252 -9.43943,9.74392 -0.60926,14.92054 -0.60926,14.92054 -14.92041,3.95845 -9.43922,-10.96213 -9.43922,-10.96213 -10.93727,-4.05476 -8.71168,-12.68765 -8.71168,-12.68765 5.78549,-29.53626 -10.77654,-22.63422 -10.77654,-22.63422 7.30797,-31.36325 -21.01008,-13.70252 -21.01008,-13.70252 -5.14472,-7.11241 -7.93312,-9.27844 -9.43044,-9.34362 -0.0342,-10e-4 -0.0679,-0.002 -0.10077,-10e-4 z"
         transform="translate(-151,-117.96163)" /><path
         id="path14219"
         style="display:none;fill:#dbb08b;fill-opacity:1;stroke:#000000;stroke-width:1;stroke-dasharray:none;stroke-opacity:0.0303031"
         d="m 456.48599,296.27098 c 17.51358,-14.92019 34.87302,-36.57714 26.60333,-73.08808 -13.76783,-60.78539 -1.8032,-72.49549 -34.13437,-89.36338 -7.99723,-4.17234 -17.26055,-6.32369 -26.67412,-7.19852 h -5e-4 v 0 c -5.64811,-0.52491 -11.35028,-0.5905 -16.86569,-0.35715 l 1.6e-4,0.0669 c -15.12894,-0.70827 -31.84168,0.7543 -45.04562,7.74226 -32.22483,17.05445 -20.1873,28.69515 -33.57384,89.55896 -7.77038,35.32915 8.3069,56.64822 25.2868,71.41559 0,0 33.22675,29.32501 53.60986,28.97358 20.38311,-0.35143 50.81224,-27.74883 50.81224,-27.74883"
         transform="translate(-151,-117.96163)" /></g><g
       id="layer5"><path
         style="display:inline;fill:#d39f71;fill-opacity:1;stroke:#000000;stroke-width:0.600001;stroke-dasharray:none;stroke-opacity:0"
         d="m 261.60558,129.68482 c -6.70783,-8.94378 -15.97104,0.0346 -15.97104,0.0346 z"
         id="path12837" /><path
         style="display:inline;fill:#ffffff;fill-opacity:0;stroke:#000000;stroke-width:0.6;stroke-dasharray:none;stroke-opacity:1"
         d="m 245.53724,129.64641 c 0,0 9.9728,-9.28502 16.16281,0"
         id="path6092" /></g><g
       id="layer6"><path
         style="fill:#ffffff;fill-opacity:1;stroke:#000000;stroke-width:0.992658;stroke-dasharray:none;stroke-opacity:0"
         d="m 230.18783,149.67498 h 47.76631 c 0,0 -23.05959,41.31844 -47.76631,0 z"
         id="path5261" /><path
         style="display:inline;fill:#ffffff;fill-opacity:1;stroke:#000000;stroke-width:0.6;stroke-dasharray:none;stroke-opacity:1"
         d="m 230.17521,149.76749 47.80205,-0.26261"
         id="path5317" /><path
         style="fill:#f0f0f0;fill-opacity:1;stroke:#000000;stroke-width:0.600001;stroke-dasharray:none;stroke-opacity:0"
         d="m 277.88794,149.82313 -47.60727,0.21332 2.86587,4.21451 c 0,0 17.97283,3.30032 41.71242,0.0731"
         id="path15197" /></g><g
       id="layer7"><path
         style="display:inline;fill:#ffffff;fill-opacity:0;stroke:#000000;stroke-width:0.895674;stroke-dasharray:none;stroke-opacity:1"
         d="m 235.86339,98.954635 c 0,0 -19.56723,-13.039602 -30.89851,1.168625"
         id="path5319" /><path
         style="display:inline;fill:#ffffff;fill-opacity:0;stroke:#000000;stroke-width:0.893259;stroke-dasharray:none;stroke-opacity:1"
         d="m 272.35006,98.929257 c 0,0 19.56936,-12.967966 30.90187,1.162213"
         id="path5363" /></g><g
       id="layer8"><path
         style="display:none;fill:#502d16;fill-opacity:0.963731;stroke:#000000;stroke-width:5.94046;stroke-opacity:0"
         d="m 466.06827,195.68816 c -25.10321,1.06148 -40.8622,12.78337 -45.44437,11.23875 -4.58217,-1.54462 -9.79796,-6.40744 8.43739,-12.11297 18.23535,-5.70553 37.17416,0.63233 37.17416,0.63233"
         id="path5154"
         transform="matrix(0.92067052,0,0,0.92067052,-116.73569,-104.5323)" /><path
         style="display:inline;fill:#502d16;fill-opacity:0.963731;stroke:#000000;stroke-width:5.94046;stroke-opacity:0"
         d="m 339.29191,195.91056 c 25.1031,1.06148 40.862,12.78337 45.44415,11.23875 4.58214,-1.54462 9.7979,-6.40744 -8.43735,-12.11297 -18.23524,-5.70553 -37.17398,0.63233 -37.17398,0.63233"
         id="path5171"
         transform="matrix(0.92067052,0,0,0.92067052,-116.73569,-104.5323)" /><path
         style="display:none;fill:#502d16;fill-opacity:0.963731;stroke:#000000;stroke-width:5.94046;stroke-opacity:0"
         d="m 466.06827,195.68816 c -25.10321,1.06148 -40.8622,12.78337 -45.44437,11.23875 -4.58217,-1.54462 -9.79796,-6.40744 8.43739,-12.11297 18.23535,-5.70553 37.17416,0.63233 37.17416,0.63233"
         id="path13041"
         transform="matrix(0.92067052,0,0,0.92067052,-116.73569,-104.5323)" /><path
         style="display:inline;fill:#55311a;fill-opacity:1;stroke:#981616;stroke-width:1.00164;stroke-linecap:round;stroke-linejoin:miter;stroke-miterlimit:4;stroke-dasharray:none;stroke-opacity:0"
         d="m 274.42967,76.063067 c 0,0 -5.07836,5.161888 -2.6824,10.030096 0,0 3.70927,-1.091588 9.06964,-3.042506 5.62655,-2.047793 20.01349,-7.16656 31.59748,-7.613987 0,0 -17.24131,-6.532444 -37.98472,0.626397 z"
         id="path13460" /><path
         style="display:inline;fill:#512f18;fill-opacity:1;stroke:#151515;stroke-width:1;stroke-linecap:round;stroke-linejoin:miter;stroke-miterlimit:4;stroke-dasharray:none;stroke-opacity:0"
         d="m 274.42278,76.060147 1.50932,-0.484943 c 0,0 -5.02475,7.016565 -1.76546,9.755291 l -2.39659,0.753826 c 0,0 -2.6892,-3.921933 2.65273,-10.024174 z"
         id="path16719" /></g></g><path
     id="path1582"
     style="display:none;fill:#ffffff;fill-opacity:0;stroke:#000000;stroke-width:1;stroke-dasharray:none;stroke-opacity:1"
     d="m 305.48599,178.30935 c 17.51358,-14.92019 34.87302,-36.57714 26.60333,-73.08808 C 318.32149,44.43588 330.28612,32.72578 297.95495,15.85789 289.95772,11.68555 280.6944,9.5342 271.28083,8.65937 h -5e-4 v 0 C 265.63222,8.13446 259.93005,8.06887 254.41464,8.30222 l 1.6e-4,0.0669 c -15.12894,-0.70827 -31.84168,0.7543 -45.04562,7.74226 -32.22483,17.05445 -20.1873,28.69515 -33.57384,89.55896 -7.77038,35.32915 8.3069,56.64822 25.2868,71.41559 0,0 33.22675,29.32501 53.60986,28.97358 20.38311,-0.35143 50.81224,-27.74883 50.81224,-27.74883" /><path
     style="display:none;fill:#000000;fill-opacity:1;stroke:#0e0e0e;stroke-width:1.66433;stroke-linecap:round;stroke-linejoin:miter;stroke-miterlimit:4;stroke-dasharray:none;stroke-opacity:1"
     d="m 179.99155,151.10692 c 0,0 -4.88965,-18.52136 2.72282,-15.47638 7.61245,3.04499 9.43945,-15.83393 0,-23.4464 -9.43947,-7.61247 0.91348,-21.010416 9.43945,-23.750906 8.52597,-2.74048 -2.74048,-12.78894 -2.74048,-12.78894 0,0 24.0554,-2.1315 13.39794,-22.22841 -10.65746,-20.096919 10.65746,-4.26298 10.65746,-4.26298 0,0 6.13474,9.74396 -0.0876,-24.534041 0,0 -1.6144,-12.461367 11.04953,5.046119 0,0 28.31838,-17.660927 21.01041,13.702444 0,0 14.61595,-6.089975 8.83046,23.446408 0,0 2.13149,8.83046 10.65746,11.87545 0,0 -5.48098,14.92044 9.43947,10.96195 0,0 -8.83048,-5.17648 0.60899,-14.92044 0,0 -16.44293,-5.48097 -2.13149,-13.70244 0,0 17.35643,-6.69897 -5.17647,-22.837406 0,0 3.07998,-9.134964 -2.70549,-14.92044 l 5.75047,1.826993 c 0,0 -1.52249,19.183421 22.2284,16.747431 0,0 25.71388,-8.504342 21.1464,8.547588 0,0 -7.25891,19.59639 17.82666,17.966813 0,0 1.71141,-11.791381 -2.08216,7.580151 -3.49503,17.847049 14.63755,13.75043 14.63755,13.75043 l 27.94441,-25.7266 -77.62336,-90.486662 -108.67271,12.8633 -67.42143,49.67895 34.59784,102.462838 z"
     id="path9522" /><path
     style="display:none;fill:#000000;fill-opacity:0.96633;stroke:#ffffff;stroke-width:1;stroke-linecap:round;stroke-linejoin:miter;stroke-miterlimit:4;stroke-dasharray:none;stroke-opacity:0"
     d="m 322.28905,67.694969 c 0,0 4.16933,1.036131 2.47243,8.577999 -1.69693,7.541869 6.70362,12.380452 6.70362,12.380452 l 7.89951,-23.601809 z"
     id="path9530" /><path
     style="display:none;fill:#000000;fill-opacity:0.96633;stroke:#ffffff;stroke-width:1;stroke-linecap:round;stroke-linejoin:miter;stroke-miterlimit:4;stroke-dasharray:none;stroke-opacity:0"
     d="m 327.78872,85.833317 c 0,0 -4.71023,10.280317 -0.0367,17.213353 9.0567,13.43543 11.34875,18.61196 11.34875,18.61196 l 13.6185,-29.960707 z"
     id="path9589" /><path
     style="display:none;fill:#000000;fill-opacity:0.96633;stroke:#ffffff;stroke-width:1;stroke-linecap:round;stroke-linejoin:miter;stroke-miterlimit:4;stroke-dasharray:none;stroke-opacity:0"
     d="m 330.8228,106.76843 c -5.95446,17.92603 2.83748,19.58692 2.83748,19.58692 l 7.05344,-19.09362 z"
     id="path10317" /></svg>
