<?xml version="1.0" encoding="UTF-8" standalone="no"?>
<!-- Created with Inkscape (http://www.inkscape.org/) -->

<svg
   width="200"
   height="200"
   viewBox="0 0 52.916665 52.916666"
   version="1.1"
   id="svg5"
   xml:space="preserve"
   inkscape:version="1.2.2 (b0a84865, 2022-12-01)"
   sodipodi:docname="big-rip.svg"
   inkscape:export-filename="../../miliverse-portfolio/assets/mobile/images/big-rip.svg"
   inkscape:export-xdpi="96"
   inkscape:export-ydpi="96"
   xmlns:inkscape="http://www.inkscape.org/namespaces/inkscape"
   xmlns:sodipodi="http://sodipodi.sourceforge.net/DTD/sodipodi-0.dtd"
   xmlns="http://www.w3.org/2000/svg"
   xmlns:svg="http://www.w3.org/2000/svg"><sodipodi:namedview
     id="namedview7"
     pagecolor="#ffffff"
     bordercolor="#000000"
     borderopacity="0.25"
     inkscape:showpageshadow="2"
     inkscape:pageopacity="0.0"
     inkscape:pagecheckerboard="0"
     inkscape:deskcolor="#d1d1d1"
     inkscape:document-units="mm"
     showgrid="false"
     inkscape:zoom="0.8640317"
     inkscape:cx="127.88883"
     inkscape:cy="103.58416"
     inkscape:window-width="1440"
     inkscape:window-height="755"
     inkscape:window-x="0"
     inkscape:window-y="25"
     inkscape:window-maximized="0"
     inkscape:current-layer="g1277" /><defs
     id="defs2"><inkscape:path-effect
       effect="spiro"
       id="path-effect1301"
       is_visible="true"
       lpeversion="1" /><inkscape:path-effect
       effect="spiro"
       id="path-effect1293"
       is_visible="true"
       lpeversion="1" /><inkscape:path-effect
       effect="spiro"
       id="path-effect1285"
       is_visible="true"
       lpeversion="1" /></defs><g
     inkscape:label="Layer 1"
     inkscape:groupmode="layer"
     id="g1277"
     transform="matrix(0.35077329,0,0,0.35077329,-12.370369,-14.72428)"><path
       id="path1267"
       style="fill:#6d6d6d;fill-opacity:1;stroke:#6d6d6d;stroke-width:0.2;stroke-linecap:square;stroke-opacity:1"
       inkscape:path-effect="#path-effect1285"
       inkscape:original-d="m 166.57467,159.55437 c -0.85866,-19.75505 27.17431,-32.31083 4.96519,-48.75287 C 149.33074,94.359459 112.8872,34.602197 104.91172,61.474585 96.936239,88.346975 66.505174,141.35447 80.984483,142.09096 c 14.47931,0.73648 49.572057,16.93285 43.437137,2.20867 -6.13493,-14.72419 -14.03866,-29.44864 -19.91564,-44.517201 9.58422,16.712251 19.17968,34.455751 28.75031,51.511311 9.57063,17.05556 -32.14813,4.4176 -48.222581,6.626 C 68.95925,160.12815 74.972264,99.0222 69.941145,69.573033 c -5.031118,-29.449167 66.260295,2.945157 99.390045,4.417335 33.12975,1.472182 -5.80698,52.836092 -2.24884,85.106922"
       d="m 166.57467,159.55437 c 6.91732,-15.12383 8.69157,-32.54504 4.96519,-48.75287 -3.41992,-14.874914 -11.57145,-28.812827 -23.60837,-38.197465 -12.03693,-9.384638 -28.01275,-13.912999 -43.01977,-11.12945 -8.578272,1.591124 -16.721536,5.510072 -23.274829,11.269654 -6.553293,5.759583 -11.492623,13.348942 -14.044238,21.692064 -2.551616,8.343127 -2.699535,17.415467 -0.3597,25.820437 2.339836,8.40498 7.167242,16.1101 13.75153,21.83422 5.993463,5.21048 13.527893,8.79186 21.443807,9.43144 7.91591,0.63957 16.17092,-1.82182 21.99333,-7.22277 3.91296,-3.62972 6.65291,-8.5048 7.71919,-13.73444 1.06628,-5.22965 0.45367,-10.78828 -1.72588,-15.66021 -2.17955,-4.87193 -5.91539,-9.03332 -10.52489,-11.7238 -4.6095,-2.69047 -10.07011,-3.896871 -15.38406,-3.398751 6.30592,-1.004165 12.91288,-0.02592 18.65727,2.762461 5.74438,2.78837 10.60017,7.37424 13.71217,12.94994 3.112,5.5757 4.46611,12.11598 3.82385,18.46897 -0.64226,6.35299 -3.27799,12.48991 -7.44298,17.32994 -5.7048,6.6294 -14.14551,10.66413 -22.83876,11.6239 -8.69325,0.95978 -17.587189,-1.03479 -25.383821,-4.9979 C 69.694999,150.12291 58.690845,134.55586 55.958807,117.56755 53.226768,100.57925 58.657426,82.563193 69.941145,69.573033 82.376374,55.25722 101.6487,47.266002 120.58691,48.226137 c 18.9382,0.960135 37.17642,10.738852 48.74428,25.764231 9.36657,12.16614 14.39438,27.604092 13.98881,42.952812 -0.40557,15.34871 -6.24165,30.4996 -16.23765,42.15411"
       sodipodi:nodetypes="csssscssssc" /><path
       id="path1271"
       style="fill:#6d6d6d;fill-opacity:1;stroke:#6d6d6d;stroke-width:0.2;stroke-linecap:square;stroke-opacity:1"
       inkscape:path-effect="#path-effect1293"
       inkscape:original-d="m 76.845199,177.76238 c 12.900382,-1.48108 28.536401,10.07067 39.933671,-1.36074 11.39727,-11.43142 42.09875,-23.88155 39.06774,-34.96826 -3.03101,-11.08672 5.98143,-33.85736 -2.9045,-39.0061 -8.88593,-5.148755 -36.66777,-12.907668 -39.51805,-25.231088 -9.46727,-40.932529 -36.084906,37.877968 -32.638127,44.106878 3.446775,6.2289 5.309003,18.84774 12.825162,14.36338 7.516155,-4.48435 19.536555,-18.5231 27.310805,-23.15887 -4.35003,6.87013 -8.19197,25.63727 -13.06453,32.48456 -4.87256,6.84728 -24.329482,-9.43586 -27.0951,-10.48959 -2.765621,-1.05373 12.418213,-44.566874 12.022896,-62.344416 -0.395314,-17.777547 46.403974,14.598045 63.785944,18.153236 17.38196,3.555193 -6.57644,55.9916 -6.44502,81.01122 0.13142,25.01961 -33.98092,9.47921 -49.38816,14.74629 -15.407245,5.26707 -15.84333,-5.53045 -23.876292,-8.29607"
       d="m 76.845199,177.76238 c 13.116266,3.09913 27.058791,2.62404 39.933671,-1.36074 8.65999,-2.68027 16.87341,-6.95425 23.73342,-12.88042 6.86001,-5.92617 12.33522,-13.53304 15.33432,-22.08784 4.43334,-12.6459 3.1854,-27.06933 -2.9045,-39.0061 -3.74512,-7.34078 -9.28576,-13.806313 -16.16769,-18.339746 -6.88193,-4.533434 -15.11171,-7.085362 -23.35036,-6.891342 -10.66905,0.251256 -21.231682,5.324175 -27.708902,13.805765 -3.23861,4.240795 -5.454054,9.267203 -6.332976,14.530323 -0.878922,5.26312 -0.412893,10.75355 1.403751,15.77079 2.247858,6.20818 6.752443,11.77177 12.825162,14.36338 3.396611,1.44955 7.198955,1.93387 10.850495,1.38208 3.65153,-0.55179 7.14099,-2.13799 9.95764,-4.52644 2.81664,-2.38844 4.95179,-5.57177 6.09292,-9.08403 1.14112,-3.51226 1.28471,-7.34264 0.40975,-10.93048 3.69445,5.73912 4.41205,13.28709 1.86527,19.61957 -2.54677,6.33249 -8.29051,11.28186 -14.9298,12.86499 -4.9555,1.18164 -10.263666,0.54292 -14.964367,-1.42093 -4.700702,-1.96384 -8.80911,-5.20601 -12.130733,-9.06866 -7.915139,-9.20437 -11.283834,-22.12031 -8.957091,-34.03484 2.326743,-11.914538 10.273388,-22.587811 20.979987,-28.309576 10.628614,-5.680088 23.592494,-6.431138 35.098224,-2.846585 11.50573,3.584553 21.53091,11.303896 28.68772,20.999821 8.81294,11.93963 13.38551,27.01624 12.32819,41.81843 -1.05733,14.80219 -7.81311,29.18784 -18.77321,39.19279 -13.10694,11.96471 -31.8126,17.20512 -49.38816,14.74629 -8.397586,-1.17483 -16.559476,-4.01076 -23.876292,-8.29607"
       sodipodi:nodetypes="csssssscssssssc" /><path
       id="path1275"
       style="fill:#6d6d6d;fill-opacity:1;stroke:#6d6d6d;stroke-width:0.2;stroke-linecap:square;stroke-opacity:1"
       inkscape:path-effect="#path-effect1301"
       inkscape:original-d="m 64.410843,58.991688 c -7.094265,10.455357 -29.218516,5.698936 -21.283583,29.783256 7.934934,24.084316 2.240113,68.797976 15.122546,72.252166 12.882432,3.45417 34.538883,27.63105 48.728204,13.16221 14.18932,-14.46884 56.94265,-32.01899 45.92773,-45.36764 -11.01493,-13.34865 -26.41805,-51.808982 -35.84604,-44.807538 -9.42798,7.001443 -32.485729,16.802558 -31.645322,21.843678 0.840404,5.04111 -2.443017,16.73715 2.878142,17.57755 5.32116,0.84041 10.642055,1.49385 15.26257,2.24038 -4.993911,-6.72087 -8.058751,-12.34974 -12.259723,-18.69774 -4.200972,-6.348 9.148473,-7.841057 13.722313,-11.761984 4.57384,-3.920924 26.32469,15.869604 39.48664,23.804004 13.16196,7.93441 -6.72086,24.73777 -11.48193,38.08642 C 128.26132,170.45509 82.334124,148.3319 58.809901,145.06441 35.285675,141.79694 55.542947,106.88492 53.489005,85.694424 51.43506,64.503926 60.830521,68.500881 64.37752,59.072364"
       d="m 64.410843,58.991688 c -9.374141,8.000277 -16.751007,18.32312 -21.283583,29.783256 -4.824855,12.199136 -6.403276,25.751676 -3.912764,38.631716 2.490512,12.88004 9.130803,25.01819 19.03531,33.62045 13.12326,11.3978 31.585157,16.03377 48.728204,13.16221 11.39825,-1.90927 22.32193,-7.03896 30.67836,-15.02242 8.35644,-7.98345 14.03533,-18.85211 15.24937,-30.34522 1.12745,-10.67337 -1.69866,-21.82178 -8.25142,-30.321976 -6.55277,-8.500195 -16.86755,-14.136094 -27.59462,-14.485562 -6.88556,-0.224319 -13.84959,1.704628 -19.549501,5.574025 -5.699912,3.869397 -10.087107,9.67979 -12.095821,16.269653 -0.907959,2.97868 -1.338364,6.13563 -0.940059,9.22405 0.398306,3.08841 1.66201,6.10677 3.818201,8.3535 1.916446,1.99692 4.509055,3.33302 7.247461,3.73499 2.738405,0.40197 5.605619,-0.13269 8.015109,-1.49461 -4.258902,-0.3987 -8.283676,-2.82163 -10.62914,-6.39879 -2.345465,-3.57715 -2.962892,-8.2342 -1.630583,-12.29895 0.9768,-2.98012 2.936085,-5.592 5.37219,-7.567007 2.436105,-1.97501 5.334613,-3.333599 8.350123,-4.194977 8.23005,-2.350908 17.40529,-0.925329 24.68634,3.574316 7.28105,4.499648 12.61431,11.954308 14.8003,20.229688 1.77607,6.72355 1.5256,13.94367 -0.53978,20.58406 -2.06538,6.64038 -5.92082,12.69125 -10.94215,17.50236 -10.36748,9.93343 -25.679,14.22736 -39.81797,11.7279 -14.138966,-2.49947 -26.859798,-11.5476 -34.394519,-23.76994 -5.364164,-8.7014 -8.178688,-18.84731 -8.832408,-29.04836 -0.653721,-10.20104 0.799217,-20.466063 3.511512,-30.321626 2.550047,-9.266012 6.214248,-18.224861 10.888515,-26.62206"
       sodipodi:nodetypes="cssssssscssssssc" /></g></svg>
