<?xml version="1.0" encoding="UTF-8" standalone="no"?>
<!-- Created with Inkscape (http://www.inkscape.org/) -->

<svg
   width="230"
   height="205"
   viewBox="0 0 60.854172 54.239584"
   version="1.1"
   id="svg5"
   xml:space="preserve"
   inkscape:export-filename="dialog3.svg"
   inkscape:export-xdpi="96"
   inkscape:export-ydpi="96"
   inkscape:version="1.2.2 (b0a84865, 2022-12-01)"
   sodipodi:docname="dialog3.svg"
   xmlns:inkscape="http://www.inkscape.org/namespaces/inkscape"
   xmlns:sodipodi="http://sodipodi.sourceforge.net/DTD/sodipodi-0.dtd"
   xmlns="http://www.w3.org/2000/svg"
   xmlns:svg="http://www.w3.org/2000/svg"><sodipodi:namedview
     id="namedview7"
     pagecolor="#ffffff"
     bordercolor="#000000"
     borderopacity="0.25"
     inkscape:showpageshadow="2"
     inkscape:pageopacity="0.0"
     inkscape:pagecheckerboard="0"
     inkscape:deskcolor="#d1d1d1"
     inkscape:document-units="mm"
     showgrid="false"
     inkscape:zoom="1.4297295"
     inkscape:cx="184.3006"
     inkscape:cy="66.096419"
     inkscape:window-width="1440"
     inkscape:window-height="757"
     inkscape:window-x="0"
     inkscape:window-y="25"
     inkscape:window-maximized="0"
     inkscape:current-layer="svg5" /><defs
     id="defs2" /><path
     id="path22519"
     style="display:inline;fill:#85b044;fill-opacity:1;stroke:#ffffff;stroke-width:0.276665;stroke-linecap:round;stroke-opacity:0"
     d="M 30.427083,0.38343916 A 29.359041,25.012709 0 0 0 1.0681519,25.396382 29.359041,25.012709 0 0 0 29.475203,50.37987 l 1.069703,3.209623 1.015441,-3.215307 A 29.359041,25.012709 0 0 0 59.786015,25.396382 29.359041,25.012709 0 0 0 30.427083,0.38343916 Z" /><path
     id="path26508"
     style="display:inline;fill:#b0c66d;fill-opacity:1;stroke:#ffffff;stroke-width:0.266997;stroke-linecap:round;stroke-opacity:0"
     d="M 30.321177,1.3497557 C 14.630161,1.349805 1.91015,12.127548 1.9102953,25.422471 c 0.00985,12.985 12.5369967,23.623324 27.8541787,24.04437 l 0.754824,2.528299 0.730345,-2.4777 C 46.495341,49.0184 58.72214,38.349711 58.732058,25.422471 58.732203,12.127548 46.012193,1.3498053 30.321177,1.3497557 Z"
     sodipodi:nodetypes="ccccccc" /><path
     id="path27412"
     style="fill:#85b044;fill-opacity:0;stroke:#ffffff;stroke-width:0.323;stroke-linecap:round;stroke-dasharray:0.323, 0.969"
     d="m 57.83296,25.66897 c 0,12.706712 -12.29174,22.96253 -27.399048,22.96299 C 15.326604,48.632421 3.0791135,38.332213 3.0780183,25.625501 3.0769227,12.918789 15.322637,2.6170876 30.429945,2.6157056 45.537253,2.6143235 57.830768,12.958921 57.832959,25.665633 l -0.104782,0.0033 z"
     sodipodi:nodetypes="csssccc" /></svg>
