<?xml version="1.0" encoding="UTF-8" standalone="no"?>
<!-- Created with Inkscape (http://www.inkscape.org/) -->

<svg
   width="432"
   height="926"
   viewBox="0 0 114.3 245.00417"
   version="1.1"
   id="svg5"
   xml:space="preserve"
   inkscape:version="1.2.2 (b0a84865, 2022-12-01)"
   sodipodi:docname="mobile-background-logo.svg"
   inkscape:export-filename="../../miliverse-portfolio/assets/mobile/animation/logo/mobile-background-animation-logo.svg"
   inkscape:export-xdpi="96"
   inkscape:export-ydpi="96"
   xmlns:inkscape="http://www.inkscape.org/namespaces/inkscape"
   xmlns:sodipodi="http://sodipodi.sourceforge.net/DTD/sodipodi-0.dtd"
   xmlns="http://www.w3.org/2000/svg"
   xmlns:svg="http://www.w3.org/2000/svg"><sodipodi:namedview
     id="namedview7"
     pagecolor="#ffffff"
     bordercolor="#000000"
     borderopacity="0.25"
     inkscape:showpageshadow="2"
     inkscape:pageopacity="0.0"
     inkscape:pagecheckerboard="0"
     inkscape:deskcolor="#d1d1d1"
     inkscape:document-units="mm"
     showgrid="false"
     inkscape:zoom="0.46545847"
     inkscape:cx="-11.816307"
     inkscape:cy="403.90284"
     inkscape:window-width="1440"
     inkscape:window-height="756"
     inkscape:window-x="0"
     inkscape:window-y="25"
     inkscape:window-maximized="0"
     inkscape:current-layer="svg5" /><defs
     id="defs2" /><g
     id="layer6"
     inkscape:label="extra-small"
     style="display:inline"
     transform="matrix(0.8654841,0,0,0.8654841,-162.42858,-3.4828046)"
     sodipodi:insensitive="true"><g
       inkscape:groupmode="layer"
       id="layer16"
       inkscape:label="star-in-the-middle"
       style="display:inline"><path
         id="circle11347"
         style="display:inline;fill:#ffffff;fill-opacity:1;stroke:#ffffff;stroke-width:0.00430533;stroke-opacity:0.016835"
         d="M 215.69589 119.53425 A 0.10037542 0.10037542 0 0 0 215.59558 119.63516 A 0.10037542 0.10037542 0 0 0 215.69589 119.73547 A 0.10037542 0.10037542 0 0 0 215.7962 119.63516 A 0.10037542 0.10037542 0 0 0 215.69589 119.53425 z M 288.28246 120.41555 A 0.10037542 0.10037542 0 0 0 288.18215 120.51586 A 0.10037542 0.10037542 0 0 0 288.28246 120.61676 A 0.10037542 0.10037542 0 0 0 288.38277 120.51586 A 0.10037542 0.10037542 0 0 0 288.28246 120.41555 z M 290.7287 124.373 A 0.10037542 0.10037542 0 0 0 290.62839 124.47331 A 0.10037542 0.10037542 0 0 0 290.7287 124.57362 A 0.10037542 0.10037542 0 0 0 290.82901 124.47331 A 0.10037542 0.10037542 0 0 0 290.7287 124.373 z M 225.77761 124.48346 A 0.10037542 0.10037542 0 0 0 225.68566 124.58377 A 0.10037542 0.10037542 0 0 0 225.78597 124.68408 A 0.10037542 0.10037542 0 0 0 225.88628 124.58377 A 0.10037542 0.10037542 0 0 0 225.78597 124.48346 A 0.10037542 0.10037542 0 0 0 225.77761 124.48346 z M 279.32863 125.79585 A 0.10037542 0.10037542 0 0 0 279.22832 125.89616 A 0.10037542 0.10037542 0 0 0 279.32863 125.99647 A 0.10037542 0.10037542 0 0 0 279.42894 125.89616 A 0.10037542 0.10037542 0 0 0 279.32863 125.79585 z M 217.13068 126.14753 A 0.10037542 0.10037542 0 0 0 217.03037 126.24843 A 0.10037542 0.10037542 0 0 0 217.13068 126.34874 A 0.10037542 0.10037542 0 0 0 217.23099 126.24843 A 0.10037542 0.10037542 0 0 0 217.13068 126.14753 z M 230.99192 127.56798 A 0.10037542 0.10037542 0 0 0 230.89161 127.66829 A 0.10037542 0.10037542 0 0 0 230.99192 127.7686 A 0.10037542 0.10037542 0 0 0 231.09223 127.66829 A 0.10037542 0.10037542 0 0 0 230.99192 127.56798 z M 289.06643 131.46155 A 0.10037542 0.10037542 0 0 0 288.96612 131.56246 A 0.10037542 0.10037542 0 0 0 289.06643 131.66277 A 0.10037542 0.10037542 0 0 0 289.16674 131.56246 A 0.10037542 0.10037542 0 0 0 289.06643 131.46155 z M 237.68102 131.91593 A 0.10037542 0.10037542 0 0 0 237.58847 132.01624 A 0.10037542 0.10037542 0 0 0 237.68878 132.11655 A 0.10037542 0.10037542 0 0 0 237.78969 132.01624 A 0.10037542 0.10037542 0 0 0 237.68878 131.91593 A 0.10037542 0.10037542 0 0 0 237.68102 131.91593 z M 266.71409 133.11487 A 0.10037542 0.10037542 0 0 0 266.62214 133.21518 A 0.10037542 0.10037542 0 0 0 266.72245 133.31549 A 0.10037542 0.10037542 0 0 0 266.82276 133.21518 A 0.10037542 0.10037542 0 0 0 266.72245 133.11487 A 0.10037542 0.10037542 0 0 0 266.71409 133.11487 z M 218.68846 133.97526 A 0.10037542 0.10037542 0 0 0 218.59651 134.07557 A 0.10037542 0.10037542 0 0 0 218.69682 134.17588 A 0.10037542 0.10037542 0 0 0 218.79713 134.07557 A 0.10037542 0.10037542 0 0 0 218.69682 133.97526 A 0.10037542 0.10037542 0 0 0 218.68846 133.97526 z M 242.73292 134.42486 A 0.10037542 0.10037542 0 0 0 242.63261 134.52517 A 0.10037542 0.10037542 0 0 0 242.73292 134.62548 A 0.10037542 0.10037542 0 0 0 242.83323 134.52517 A 0.10037542 0.10037542 0 0 0 242.73292 134.42486 z M 259.5933 137.43415 A 0.10037542 0.10037542 0 0 0 259.50135 137.53446 A 0.10037542 0.10037542 0 0 0 259.60166 137.63477 A 0.10037542 0.10037542 0 0 0 259.70197 137.53446 A 0.10037542 0.10037542 0 0 0 259.60166 137.43415 A 0.10037542 0.10037542 0 0 0 259.5933 137.43415 z M 219.7638 139.73113 A 0.10037542 0.10037542 0 0 0 219.66349 139.83143 A 0.10037542 0.10037542 0 0 0 219.7638 139.93174 A 0.10037542 0.10037542 0 0 0 219.86471 139.83143 A 0.10037542 0.10037542 0 0 0 219.7638 139.73113 z M 286.22372 146.22498 A 0.10037542 0.10037542 0 0 0 286.13177 146.32529 A 0.10037542 0.10037542 0 0 0 286.23208 146.4256 A 0.10037542 0.10037542 0 0 0 286.33239 146.32529 A 0.10037542 0.10037542 0 0 0 286.23208 146.22498 A 0.10037542 0.10037542 0 0 0 286.22372 146.22498 z M 221.10306 147.17016 A 0.10037542 0.10037542 0 0 0 221.01111 147.27047 A 0.10037542 0.10037542 0 0 0 221.11142 147.37078 A 0.10037542 0.10037542 0 0 0 221.21173 147.27047 A 0.10037542 0.10037542 0 0 0 221.11142 147.17016 A 0.10037542 0.10037542 0 0 0 221.10306 147.17016 z M 222.30737 152.11877 A 0.10037542 0.10037542 0 0 0 222.21542 152.21908 A 0.10037542 0.10037542 0 0 0 222.31573 152.31939 A 0.10037542 0.10037542 0 0 0 222.41604 152.21908 A 0.10037542 0.10037542 0 0 0 222.31573 152.11877 A 0.10037542 0.10037542 0 0 0 222.30737 152.11877 z M 284.67489 153.60252 A 0.10037542 0.10037542 0 0 0 284.57459 153.70283 A 0.10037542 0.10037542 0 0 0 284.67489 153.80314 A 0.10037542 0.10037542 0 0 0 284.7752 153.70283 A 0.10037542 0.10037542 0 0 0 284.67489 153.60252 z M 283.56731 159.4969 A 0.10037542 0.10037542 0 0 0 283.467 159.59721 A 0.10037542 0.10037542 0 0 0 283.56731 159.69752 A 0.10037542 0.10037542 0 0 0 283.66762 159.59721 A 0.10037542 0.10037542 0 0 0 283.56731 159.4969 z M 224.03891 160.50478 A 0.10037542 0.10037542 0 0 0 223.94696 160.60509 A 0.10037542 0.10037542 0 0 0 224.04727 160.70539 A 0.10037542 0.10037542 0 0 0 224.14757 160.60509 A 0.10037542 0.10037542 0 0 0 224.04727 160.50478 A 0.10037542 0.10037542 0 0 0 224.03891 160.50478 z M 246.11181 160.73883 A 0.10037542 0.10037542 0 0 0 246.0115 160.83914 A 0.10037542 0.10037542 0 0 0 246.11181 160.94005 A 0.10037542 0.10037542 0 0 0 246.21212 160.83914 A 0.10037542 0.10037542 0 0 0 246.11181 160.73883 z M 263.8684 162.38439 A 0.10037542 0.10037542 0 0 0 263.77645 162.4847 A 0.10037542 0.10037542 0 0 0 263.87676 162.58501 A 0.10037542 0.10037542 0 0 0 263.97707 162.4847 A 0.10037542 0.10037542 0 0 0 263.87676 162.38439 A 0.10037542 0.10037542 0 0 0 263.8684 162.38439 z M 259.61599 164.40312 A 0.10037542 0.10037542 0 0 0 259.51568 164.50343 A 0.10037542 0.10037542 0 0 0 259.61599 164.60434 A 0.10037542 0.10037542 0 0 0 259.7163 164.50343 A 0.10037542 0.10037542 0 0 0 259.61599 164.40312 z M 249.15991 164.94885 A 0.10037542 0.10037542 0 0 0 249.059 165.04916 A 0.10037542 0.10037542 0 0 0 249.15991 165.15007 A 0.10037542 0.10037542 0 0 0 249.26022 165.04916 A 0.10037542 0.10037542 0 0 0 249.15991 164.94885 z M 244.51103 165.19724 A 0.10037542 0.10037542 0 0 0 244.41908 165.29755 A 0.10037542 0.10037542 0 0 0 244.51939 165.39786 A 0.10037542 0.10037542 0 0 0 244.6197 165.29755 A 0.10037542 0.10037542 0 0 0 244.51939 165.19724 A 0.10037542 0.10037542 0 0 0 244.51103 165.19724 z M 286.19984 166.55142 A 0.10037542 0.10037542 0 0 0 286.09953 166.65173 A 0.10037542 0.10037542 0 0 0 286.19984 166.75204 A 0.10037542 0.10037542 0 0 0 286.30075 166.65173 A 0.10037542 0.10037542 0 0 0 286.19984 166.55142 z M 244.53253 169.16186 A 0.10037542 0.10037542 0 0 0 244.43222 169.26217 A 0.10037542 0.10037542 0 0 0 244.53253 169.36248 A 0.10037542 0.10037542 0 0 0 244.63284 169.26217 A 0.10037542 0.10037542 0 0 0 244.53253 169.16186 z M 262.96502 169.56727 A 0.10037542 0.10037542 0 0 0 262.86471 169.66758 A 0.10037542 0.10037542 0 0 0 262.96502 169.76849 A 0.10037542 0.10037542 0 0 0 263.06593 169.66758 A 0.10037542 0.10037542 0 0 0 262.96502 169.56727 z M 254.77187 169.73685 A 0.10037542 0.10037542 0 0 0 254.67097 169.83716 A 0.10037542 0.10037542 0 0 0 254.77187 169.93747 A 0.10037542 0.10037542 0 0 0 254.87218 169.83716 A 0.10037542 0.10037542 0 0 0 254.77187 169.73685 z M 217.11873 170.42468 A 0.10037542 0.10037542 0 0 0 217.02678 170.52499 A 0.10037542 0.10037542 0 0 0 217.12709 170.6253 A 0.10037542 0.10037542 0 0 0 217.2274 170.52499 A 0.10037542 0.10037542 0 0 0 217.12709 170.42468 A 0.10037542 0.10037542 0 0 0 217.11873 170.42468 z M 248.52222 172.06666 A 0.10037542 0.10037542 0 0 0 248.42132 172.16697 A 0.10037542 0.10037542 0 0 0 248.52222 172.26728 A 0.10037542 0.10037542 0 0 0 248.62253 172.16697 A 0.10037542 0.10037542 0 0 0 248.52222 172.06666 z M 257.96029 172.09114 A 0.10037542 0.10037542 0 0 0 257.85998 172.19145 A 0.10037542 0.10037542 0 0 0 257.96029 172.29235 A 0.10037542 0.10037542 0 0 0 258.0606 172.19145 A 0.10037542 0.10037542 0 0 0 257.96029 172.09114 z M 213.48609 174.06509 A 0.10037542 0.10037542 0 0 0 213.39414 174.1654 A 0.10037542 0.10037542 0 0 0 213.49445 174.26571 A 0.10037542 0.10037542 0 0 0 213.59476 174.1654 A 0.10037542 0.10037542 0 0 0 213.49445 174.06509 A 0.10037542 0.10037542 0 0 0 213.48609 174.06509 z M 253.81535 174.99653 A 0.10037542 0.10037542 0 0 0 253.71504 175.09684 A 0.10037542 0.10037542 0 0 0 253.81535 175.19715 A 0.10037542 0.10037542 0 0 0 253.82371 175.19715 A 0.10037542 0.10037542 0 0 0 253.91566 175.09684 A 0.10037542 0.10037542 0 0 0 253.91566 175.09446 A 0.10037542 0.10037542 0 0 0 253.91506 175.08849 A 0.10037542 0.10037542 0 0 0 253.91506 175.0861 A 0.10037542 0.10037542 0 0 0 253.91446 175.08013 A 0.10037542 0.10037542 0 0 0 253.91387 175.07774 A 0.10037542 0.10037542 0 0 0 253.91267 175.07236 A 0.10037542 0.10037542 0 0 0 253.91207 175.06938 A 0.10037542 0.10037542 0 0 0 253.91028 175.0646 A 0.10037542 0.10037542 0 0 0 253.90909 175.06162 A 0.10037542 0.10037542 0 0 0 253.9073 175.05684 A 0.10037542 0.10037542 0 0 0 253.9061 175.05385 A 0.10037542 0.10037542 0 0 0 253.90372 175.04908 A 0.10037542 0.10037542 0 0 0 253.90252 175.04669 A 0.10037542 0.10037542 0 0 0 253.89954 175.04191 A 0.10037542 0.10037542 0 0 0 253.89775 175.03952 A 0.10037542 0.10037542 0 0 0 253.89476 175.03534 A 0.10037542 0.10037542 0 0 0 253.89297 175.03296 A 0.10037542 0.10037542 0 0 0 253.88939 175.02878 A 0.10037542 0.10037542 0 0 0 253.887 175.02699 A 0.10037542 0.10037542 0 0 0 253.88342 175.02281 A 0.10037542 0.10037542 0 0 0 253.88103 175.02101 A 0.10037542 0.10037542 0 0 0 253.87685 175.01743 A 0.10037542 0.10037542 0 0 0 253.87506 175.01624 A 0.10037542 0.10037542 0 0 0 253.87028 175.01266 A 0.10037542 0.10037542 0 0 0 253.86789 175.01146 A 0.10037542 0.10037542 0 0 0 253.86311 175.00848 A 0.10037542 0.10037542 0 0 0 253.86073 175.00728 A 0.10037542 0.10037542 0 0 0 253.85535 175.00489 A 0.10037542 0.10037542 0 0 0 253.85296 175.0037 A 0.10037542 0.10037542 0 0 0 253.84819 175.00191 A 0.10037542 0.10037542 0 0 0 253.8452 175.00131 A 0.10037542 0.10037542 0 0 0 253.83983 174.99952 A 0.10037542 0.10037542 0 0 0 253.83744 174.99892 A 0.10037542 0.10037542 0 0 0 253.82908 174.99773 A 0.10037542 0.10037542 0 0 0 253.8261 174.99713 A 0.10037542 0.10037542 0 0 0 253.81535 174.99653 z M 240.95661 175.57809 A 0.10037542 0.10037542 0 0 0 240.8563 175.6784 A 0.10037542 0.10037542 0 0 0 240.95661 175.77931 A 0.10037542 0.10037542 0 0 0 241.05692 175.6784 A 0.10037542 0.10037542 0 0 0 240.95661 175.57809 z M 267.05801 176.25757 A 0.10037542 0.10037542 0 0 0 266.96606 176.35788 A 0.10037542 0.10037542 0 0 0 267.06637 176.45819 A 0.10037542 0.10037542 0 0 0 267.16668 176.35788 A 0.10037542 0.10037542 0 0 0 267.06637 176.25757 A 0.10037542 0.10037542 0 0 0 267.05801 176.25757 z M 257.63368 176.43669 A 0.10037542 0.10037542 0 0 0 257.53337 176.537 A 0.10037542 0.10037542 0 0 0 257.63368 176.63791 A 0.10037542 0.10037542 0 0 0 257.73399 176.537 A 0.10037542 0.10037542 0 0 0 257.63368 176.43669 z M 297.04642 176.46356 A 0.10037542 0.10037542 0 0 0 296.94611 176.56387 A 0.10037542 0.10037542 0 0 0 297.04642 176.66418 A 0.10037542 0.10037542 0 0 0 297.14673 176.56387 A 0.10037542 0.10037542 0 0 0 297.04642 176.46356 z M 247.55734 177.32635 A 0.10037542 0.10037542 0 0 0 247.46539 177.42666 A 0.10037542 0.10037542 0 0 0 247.5657 177.52696 A 0.10037542 0.10037542 0 0 0 247.57406 177.52637 A 0.10037542 0.10037542 0 0 0 247.66601 177.42666 A 0.10037542 0.10037542 0 0 0 247.66601 177.42367 A 0.10037542 0.10037542 0 0 0 247.66541 177.4183 A 0.10037542 0.10037542 0 0 0 247.66541 177.41531 A 0.10037542 0.10037542 0 0 0 247.66481 177.40994 A 0.10037542 0.10037542 0 0 0 247.66422 177.40755 A 0.10037542 0.10037542 0 0 0 247.66302 177.40217 A 0.10037542 0.10037542 0 0 0 247.66243 177.39919 A 0.10037542 0.10037542 0 0 0 247.66063 177.39382 A 0.10037542 0.10037542 0 0 0 247.65944 177.39143 A 0.10037542 0.10037542 0 0 0 247.65765 177.38605 A 0.10037542 0.10037542 0 0 0 247.65645 177.38367 A 0.10037542 0.10037542 0 0 0 247.65407 177.37889 A 0.10037542 0.10037542 0 0 0 247.65228 177.3765 A 0.10037542 0.10037542 0 0 0 247.64989 177.37172 A 0.10037542 0.10037542 0 0 0 247.6481 177.36934 A 0.10037542 0.10037542 0 0 0 247.64511 177.36516 A 0.10037542 0.10037542 0 0 0 247.64332 177.36277 A 0.10037542 0.10037542 0 0 0 247.63974 177.35859 A 0.10037542 0.10037542 0 0 0 247.63735 177.3568 A 0.10037542 0.10037542 0 0 0 247.63377 177.35262 A 0.10037542 0.10037542 0 0 0 247.63138 177.35083 A 0.10037542 0.10037542 0 0 0 247.6272 177.34724 A 0.10037542 0.10037542 0 0 0 247.62481 177.34545 A 0.10037542 0.10037542 0 0 0 247.62063 177.34247 A 0.10037542 0.10037542 0 0 0 247.61824 177.34127 A 0.10037542 0.10037542 0 0 0 247.61346 177.33829 A 0.10037542 0.10037542 0 0 0 247.61108 177.33709 A 0.10037542 0.10037542 0 0 0 247.6057 177.3347 A 0.10037542 0.10037542 0 0 0 247.60331 177.33351 A 0.10037542 0.10037542 0 0 0 247.59794 177.33172 A 0.10037542 0.10037542 0 0 0 247.59555 177.33053 A 0.10037542 0.10037542 0 0 0 247.59018 177.32933 A 0.10037542 0.10037542 0 0 0 247.58779 177.32873 A 0.10037542 0.10037542 0 0 0 247.58242 177.32754 A 0.10037542 0.10037542 0 0 0 247.57943 177.32694 A 0.10037542 0.10037542 0 0 0 247.5657 177.32635 A 0.10037542 0.10037542 0 0 0 247.55734 177.32635 z M 209.4946 178.05658 A 0.10037542 0.10037542 0 0 0 209.39429 178.15689 A 0.10037542 0.10037542 0 0 0 209.4946 178.25779 A 0.10037542 0.10037542 0 0 0 209.59491 178.15689 A 0.10037542 0.10037542 0 0 0 209.4946 178.05658 z M 252.26234 178.74441 A 0.10037542 0.10037542 0 0 0 252.16203 178.84472 A 0.10037542 0.10037542 0 0 0 252.26234 178.94503 A 0.10037542 0.10037542 0 0 0 252.36265 178.84472 A 0.10037542 0.10037542 0 0 0 252.26234 178.74441 z M 264.86075 179.1558 A 0.10037542 0.10037542 0 0 0 264.7688 179.25611 A 0.10037542 0.10037542 0 0 0 264.86911 179.35642 A 0.10037542 0.10037542 0 0 0 264.96942 179.25611 A 0.10037542 0.10037542 0 0 0 264.86911 179.1558 A 0.10037542 0.10037542 0 0 0 264.86075 179.1558 z M 240.68673 179.56062 A 0.10037542 0.10037542 0 0 0 240.58642 179.66093 A 0.10037542 0.10037542 0 0 0 240.68673 179.76124 A 0.10037542 0.10037542 0 0 0 240.78704 179.66093 A 0.10037542 0.10037542 0 0 0 240.68673 179.56062 z M 267.98946 180.38818 A 0.10037542 0.10037542 0 0 0 267.88915 180.48849 A 0.10037542 0.10037542 0 0 0 267.98946 180.58939 A 0.10037542 0.10037542 0 0 0 268.08977 180.48849 A 0.10037542 0.10037542 0 0 0 267.98946 180.38818 z M 258.08567 180.48491 A 0.10037542 0.10037542 0 0 0 257.99372 180.58521 A 0.10037542 0.10037542 0 0 0 258.09403 180.68552 A 0.10037542 0.10037542 0 0 0 258.19434 180.58521 A 0.10037542 0.10037542 0 0 0 258.09403 180.48491 A 0.10037542 0.10037542 0 0 0 258.08567 180.48491 z M 244.50267 181.26111 A 0.10037542 0.10037542 0 0 0 244.41072 181.36142 A 0.10037542 0.10037542 0 0 0 244.51103 181.46173 A 0.10037542 0.10037542 0 0 0 244.61134 181.36142 A 0.10037542 0.10037542 0 0 0 244.51103 181.26111 A 0.10037542 0.10037542 0 0 0 244.50267 181.26111 z M 262.17628 182.17465 A 0.10037542 0.10037542 0 0 0 262.08433 182.27495 A 0.10037542 0.10037542 0 0 0 262.18464 182.37526 A 0.10037542 0.10037542 0 0 0 262.28495 182.27495 A 0.10037542 0.10037542 0 0 0 262.18464 182.17465 A 0.10037542 0.10037542 0 0 0 262.17628 182.17465 z M 302.0828 182.39318 A 0.10037542 0.10037542 0 0 0 301.98249 182.49349 A 0.10037542 0.10037542 0 0 0 302.0828 182.5938 A 0.10037542 0.10037542 0 0 0 302.18311 182.49349 A 0.10037542 0.10037542 0 0 0 302.0828 182.39318 z M 203.94235 183.46912 A 0.10037542 0.10037542 0 0 0 203.8504 183.56943 A 0.10037542 0.10037542 0 0 0 203.9507 183.66974 A 0.10037542 0.10037542 0 0 0 204.05101 183.56943 A 0.10037542 0.10037542 0 0 0 203.9507 183.46912 A 0.10037542 0.10037542 0 0 0 203.94235 183.46912 z M 256.80732 184.58924 A 0.10037542 0.10037542 0 0 0 256.71537 184.68955 A 0.10037542 0.10037542 0 0 0 256.81568 184.78986 A 0.10037542 0.10037542 0 0 0 256.91599 184.68955 A 0.10037542 0.10037542 0 0 0 256.81568 184.58924 A 0.10037542 0.10037542 0 0 0 256.80732 184.58924 z M 252.55013 184.94271 A 0.10037542 0.10037542 0 0 0 252.44982 185.04362 A 0.10037542 0.10037542 0 0 0 252.55013 185.14393 A 0.10037542 0.10037542 0 0 0 252.55849 185.14333 A 0.10037542 0.10037542 0 0 0 252.65044 185.04362 A 0.10037542 0.10037542 0 0 0 252.65044 185.04064 A 0.10037542 0.10037542 0 0 0 252.65044 185.03526 A 0.10037542 0.10037542 0 0 0 252.64985 185.03228 A 0.10037542 0.10037542 0 0 0 252.64925 185.0269 A 0.10037542 0.10037542 0 0 0 252.64865 185.02392 A 0.10037542 0.10037542 0 0 0 252.64746 185.01854 A 0.10037542 0.10037542 0 0 0 252.64686 185.01615 A 0.10037542 0.10037542 0 0 0 252.64507 185.01078 A 0.10037542 0.10037542 0 0 0 252.64447 185.00839 A 0.10037542 0.10037542 0 0 0 252.64208 185.00302 A 0.10037542 0.10037542 0 0 0 252.64089 185.00063 A 0.10037542 0.10037542 0 0 0 252.6385 184.99585 A 0.10037542 0.10037542 0 0 0 252.63731 184.99287 A 0.10037542 0.10037542 0 0 0 252.63432 184.98869 A 0.10037542 0.10037542 0 0 0 252.63253 184.9863 A 0.10037542 0.10037542 0 0 0 252.62954 184.98152 A 0.10037542 0.10037542 0 0 0 252.62775 184.97973 A 0.10037542 0.10037542 0 0 0 252.62417 184.97555 A 0.10037542 0.10037542 0 0 0 252.62238 184.97317 A 0.10037542 0.10037542 0 0 0 252.6182 184.96958 A 0.10037542 0.10037542 0 0 0 252.61641 184.96779 A 0.10037542 0.10037542 0 0 0 252.61163 184.96421 A 0.10037542 0.10037542 0 0 0 252.60984 184.96242 A 0.10037542 0.10037542 0 0 0 252.60506 184.95943 A 0.10037542 0.10037542 0 0 0 252.60268 184.95764 A 0.10037542 0.10037542 0 0 0 252.5979 184.95525 A 0.10037542 0.10037542 0 0 0 252.59551 184.95406 A 0.10037542 0.10037542 0 0 0 252.59073 184.95167 A 0.10037542 0.10037542 0 0 0 252.58775 184.95048 A 0.10037542 0.10037542 0 0 0 252.58297 184.94868 A 0.10037542 0.10037542 0 0 0 252.57999 184.94749 A 0.10037542 0.10037542 0 0 0 252.57461 184.9463 A 0.10037542 0.10037542 0 0 0 252.57222 184.9451 A 0.10037542 0.10037542 0 0 0 252.56685 184.94451 A 0.10037542 0.10037542 0 0 0 252.56387 184.94391 A 0.10037542 0.10037542 0 0 0 252.55013 184.94271 z M 307.19919 187.16923 A 0.10037542 0.10037542 0 0 0 307.10664 187.26954 A 0.10037542 0.10037542 0 0 0 307.20755 187.36985 A 0.10037542 0.10037542 0 0 0 307.30786 187.26954 A 0.10037542 0.10037542 0 0 0 307.20755 187.16923 A 0.10037542 0.10037542 0 0 0 307.19919 187.16923 z M 197.80913 189.2614 A 0.10037542 0.10037542 0 0 0 197.71718 189.36171 A 0.10037542 0.10037542 0 0 0 197.81749 189.46202 A 0.10037542 0.10037542 0 0 0 197.9178 189.36171 A 0.10037542 0.10037542 0 0 0 197.81749 189.2614 A 0.10037542 0.10037542 0 0 0 197.80913 189.2614 z M 251.42583 189.36052 A 0.10037542 0.10037542 0 0 0 251.33328 189.46083 A 0.10037542 0.10037542 0 0 0 251.43359 189.56114 A 0.10037542 0.10037542 0 0 0 251.5345 189.46083 A 0.10037542 0.10037542 0 0 0 251.43359 189.36052 A 0.10037542 0.10037542 0 0 0 251.42583 189.36052 z M 255.85916 189.84833 A 0.10037542 0.10037542 0 0 0 255.75885 189.94864 A 0.10037542 0.10037542 0 0 0 255.85916 190.04955 A 0.10037542 0.10037542 0 0 0 255.86752 190.04895 A 0.10037542 0.10037542 0 0 0 255.95947 189.94864 A 0.10037542 0.10037542 0 0 0 255.95947 189.94625 A 0.10037542 0.10037542 0 0 0 255.95947 189.94088 A 0.10037542 0.10037542 0 0 0 255.95887 189.9379 A 0.10037542 0.10037542 0 0 0 255.95827 189.93252 A 0.10037542 0.10037542 0 0 0 255.95768 189.92954 A 0.10037542 0.10037542 0 0 0 255.95648 189.92416 A 0.10037542 0.10037542 0 0 0 255.95588 189.92177 A 0.10037542 0.10037542 0 0 0 255.95409 189.9164 A 0.10037542 0.10037542 0 0 0 255.9529 189.91401 A 0.10037542 0.10037542 0 0 0 255.95111 189.90864 A 0.10037542 0.10037542 0 0 0 255.94991 189.90625 A 0.10037542 0.10037542 0 0 0 255.94752 189.90088 A 0.10037542 0.10037542 0 0 0 255.94633 189.89849 A 0.10037542 0.10037542 0 0 0 255.94335 189.89431 A 0.10037542 0.10037542 0 0 0 255.94155 189.89192 A 0.10037542 0.10037542 0 0 0 255.93857 189.88714 A 0.10037542 0.10037542 0 0 0 255.93678 189.88535 A 0.10037542 0.10037542 0 0 0 255.93319 189.88117 A 0.10037542 0.10037542 0 0 0 255.9314 189.87878 A 0.10037542 0.10037542 0 0 0 255.92722 189.8752 A 0.10037542 0.10037542 0 0 0 255.92484 189.87341 A 0.10037542 0.10037542 0 0 0 255.92066 189.86983 A 0.10037542 0.10037542 0 0 0 255.91887 189.86804 A 0.10037542 0.10037542 0 0 0 255.91409 189.86505 A 0.10037542 0.10037542 0 0 0 255.9117 189.86326 A 0.10037542 0.10037542 0 0 0 255.90692 189.86087 A 0.10037542 0.10037542 0 0 0 255.90454 189.85908 A 0.10037542 0.10037542 0 0 0 255.89976 189.85729 A 0.10037542 0.10037542 0 0 0 255.89677 189.8561 A 0.10037542 0.10037542 0 0 0 255.892 189.85371 A 0.10037542 0.10037542 0 0 0 255.88901 189.85311 A 0.10037542 0.10037542 0 0 0 255.88364 189.85192 A 0.10037542 0.10037542 0 0 0 255.88125 189.85072 A 0.10037542 0.10037542 0 0 0 255.87588 189.85012 A 0.10037542 0.10037542 0 0 0 255.87289 189.84953 A 0.10037542 0.10037542 0 0 0 255.85916 189.84833 z M 311.42354 190.67947 A 0.10037542 0.10037542 0 0 0 311.32323 190.77978 A 0.10037542 0.10037542 0 0 0 311.42354 190.88009 A 0.10037542 0.10037542 0 0 0 311.52385 190.77978 A 0.10037542 0.10037542 0 0 0 311.42354 190.67947 z M 200.48763 194.86143 A 0.10037542 0.10037542 0 0 0 200.38732 194.96174 A 0.10037542 0.10037542 0 0 0 200.48763 195.06205 A 0.10037542 0.10037542 0 0 0 200.58794 194.96174 A 0.10037542 0.10037542 0 0 0 200.48763 194.86143 z M 210.70131 195.54329 A 0.10037542 0.10037542 0 0 0 210.60876 195.6436 A 0.10037542 0.10037542 0 0 0 210.70966 195.74391 A 0.10037542 0.10037542 0 0 0 210.80997 195.6436 A 0.10037542 0.10037542 0 0 0 210.70966 195.54329 A 0.10037542 0.10037542 0 0 0 210.70131 195.54329 z M 307.78731 195.54389 A 0.10037542 0.10037542 0 0 0 307.687 195.6448 A 0.10037542 0.10037542 0 0 0 307.78731 195.74511 A 0.10037542 0.10037542 0 0 0 307.88762 195.6448 A 0.10037542 0.10037542 0 0 0 307.78731 195.54389 z M 217.19397 196.53982 A 0.10037542 0.10037542 0 0 0 217.10202 196.64013 A 0.10037542 0.10037542 0 0 0 217.20233 196.74044 A 0.10037542 0.10037542 0 0 0 217.30264 196.64013 A 0.10037542 0.10037542 0 0 0 217.20233 196.53982 A 0.10037542 0.10037542 0 0 0 217.19397 196.53982 z M 298.88364 196.54639 A 0.10037542 0.10037542 0 0 0 298.79169 196.6467 A 0.10037542 0.10037542 0 0 0 298.892 196.74701 A 0.10037542 0.10037542 0 0 0 298.99231 196.6467 A 0.10037542 0.10037542 0 0 0 298.892 196.54639 A 0.10037542 0.10037542 0 0 0 298.88364 196.54639 z M 291.40102 196.84195 A 0.10037542 0.10037542 0 0 0 291.30906 196.94226 A 0.10037542 0.10037542 0 0 0 291.40937 197.04257 A 0.10037542 0.10037542 0 0 0 291.50968 196.94226 A 0.10037542 0.10037542 0 0 0 291.40937 196.84195 A 0.10037542 0.10037542 0 0 0 291.40102 196.84195 z M 286.04281 197.39663 A 0.10037542 0.10037542 0 0 0 285.95086 197.49694 A 0.10037542 0.10037542 0 0 0 286.05117 197.59725 A 0.10037542 0.10037542 0 0 0 286.15148 197.49694 A 0.10037542 0.10037542 0 0 0 286.05117 197.39663 A 0.10037542 0.10037542 0 0 0 286.04281 197.39663 z M 228.73555 198.18836 A 0.10037542 0.10037542 0 0 0 228.63524 198.28867 A 0.10037542 0.10037542 0 0 0 228.73555 198.38898 A 0.10037542 0.10037542 0 0 0 228.83586 198.28867 A 0.10037542 0.10037542 0 0 0 228.73555 198.18836 z M 277.42991 198.49885 A 0.10037542 0.10037542 0 0 0 277.3296 198.59916 A 0.10037542 0.10037542 0 0 0 277.42991 198.69947 A 0.10037542 0.10037542 0 0 0 277.53022 198.59916 A 0.10037542 0.10037542 0 0 0 277.42991 198.49885 z M 238.013 204.18127 A 0.10037542 0.10037542 0 0 0 237.92105 204.28158 A 0.10037542 0.10037542 0 0 0 238.02135 204.38189 A 0.10037542 0.10037542 0 0 0 238.12166 204.28158 A 0.10037542 0.10037542 0 0 0 238.02135 204.18127 A 0.10037542 0.10037542 0 0 0 238.013 204.18127 z M 270.73424 206.37375 A 0.10037542 0.10037542 0 0 0 270.63393 206.47406 A 0.10037542 0.10037542 0 0 0 270.73424 206.57437 A 0.10037542 0.10037542 0 0 0 270.83455 206.47406 A 0.10037542 0.10037542 0 0 0 270.73424 206.37375 z M 239.79289 211.31878 A 0.10037542 0.10037542 0 0 0 239.70094 211.41909 A 0.10037542 0.10037542 0 0 0 239.80125 211.5194 A 0.10037542 0.10037542 0 0 0 239.90156 211.41909 A 0.10037542 0.10037542 0 0 0 239.80125 211.31878 A 0.10037542 0.10037542 0 0 0 239.79289 211.31878 z M 268.53818 213.29094 A 0.10037542 0.10037542 0 0 0 268.43787 213.39125 A 0.10037542 0.10037542 0 0 0 268.53818 213.49156 A 0.10037542 0.10037542 0 0 0 268.63849 213.39125 A 0.10037542 0.10037542 0 0 0 268.53818 213.29094 z M 243.97008 221.66858 A 0.10037542 0.10037542 0 0 0 243.86977 221.76889 A 0.10037542 0.10037542 0 0 0 243.97008 221.8692 A 0.10037542 0.10037542 0 0 0 244.07038 221.76889 A 0.10037542 0.10037542 0 0 0 243.97008 221.66858 z M 265.24408 221.78322 A 0.10037542 0.10037542 0 0 0 265.15213 221.88353 A 0.10037542 0.10037542 0 0 0 265.25244 221.98384 A 0.10037542 0.10037542 0 0 0 265.35275 221.88353 A 0.10037542 0.10037542 0 0 0 265.25244 221.78322 A 0.10037542 0.10037542 0 0 0 265.24408 221.78322 z M 247.36209 229.59185 A 0.10037542 0.10037542 0 0 0 247.27014 229.69216 A 0.10037542 0.10037542 0 0 0 247.37045 229.79247 A 0.10037542 0.10037542 0 0 0 247.47076 229.69216 A 0.10037542 0.10037542 0 0 0 247.37045 229.59185 A 0.10037542 0.10037542 0 0 0 247.36209 229.59185 z M 260.93017 231.39384 A 0.10037542 0.10037542 0 0 0 260.82986 231.49475 A 0.10037542 0.10037542 0 0 0 260.93017 231.59506 A 0.10037542 0.10037542 0 0 0 261.03048 231.49475 A 0.10037542 0.10037542 0 0 0 260.93017 231.39384 z M 251.96858 236.56278 A 0.10037542 0.10037542 0 0 0 251.86827 236.66309 A 0.10037542 0.10037542 0 0 0 251.96858 236.7634 A 0.10037542 0.10037542 0 0 0 252.06889 236.66309 A 0.10037542 0.10037542 0 0 0 251.96858 236.56278 z M 257.16975 237.7444 A 0.10037542 0.10037542 0 0 0 257.0778 237.84471 A 0.10037542 0.10037542 0 0 0 257.17811 237.94502 A 0.10037542 0.10037542 0 0 0 257.27842 237.84471 A 0.10037542 0.10037542 0 0 0 257.17811 237.7444 A 0.10037542 0.10037542 0 0 0 257.16975 237.7444 z " /></g></g><g
     id="layer4"
     inkscape:label="medium"
     style="display:inline"
     transform="matrix(0.87034957,0,0,0.82257874,-166.42303,-2.0706659)"><g
       inkscape:groupmode="layer"
       id="layer12"
       inkscape:label="medium-animation"
       transform="matrix(0.99440974,0,0,1.0521596,2.2035271,0.14226663)"
       style="display:inline"
       sodipodi:insensitive="true"><path
         id="circle42469"
         style="display:inline;fill:#ffffff;fill-opacity:1;stroke:#ffffff;stroke-width:0.0126271;stroke-opacity:0.016835"
         inkscape:label="circle42469"
         d="m 294.26013,116.41563 a 0.30281913,0.28619832 0 0 0 -0.30272,0.286 0.30281913,0.28619832 0 0 0 0.30272,0.286 0.30281913,0.28619832 0 0 0 0.30273,-0.286 0.30281913,0.28619832 0 0 0 -0.30273,-0.286 z m -76.29981,0.0555 a 0.30281913,0.28619832 0 0 0 -0.30272,0.2866 0.30281913,0.28619832 0 0 0 0.30272,0.286 0.30281913,0.28619832 0 0 0 0.30272,-0.286 0.30281913,0.28619832 0 0 0 -0.30272,-0.2866 z m 38.21857,22.42517 a 0.30281913,0.28619832 0 0 0 -0.30272,0.28601 0.30281913,0.28619832 0 0 0 0.30272,0.286 0.30281913,0.28619832 0 0 0 0.30332,-0.286 0.30281913,0.28619832 0 0 0 -0.30332,-0.28601 z m 11.20602,18.2683 a 0.30281913,0.28619832 0 0 0 -0.30272,0.286 0.30281913,0.28619832 0 0 0 0.30272,0.2866 0.30281913,0.28619832 0 0 0 0.30272,-0.2866 0.30281913,0.28619832 0 0 0 -0.30272,-0.286 z m -22.36845,0.15644 a 0.30281913,0.28619832 0 0 0 -0.30272,0.286 0.30281913,0.28619832 0 0 0 0.30272,0.286 0.30281913,0.28619832 0 0 0 0.30272,-0.286 0.30281913,0.28619832 0 0 0 -0.30272,-0.286 z m 40.06594,3.85117 a 0.30281913,0.28619832 0 0 0 -0.30272,0.286 0.30281913,0.28619832 0 0 0 0.30272,0.28601 0.30281913,0.28619832 0 0 0 0.30332,-0.28601 0.30281913,0.28619832 0 0 0 -0.30332,-0.286 z m -58.00943,0.0245 a 0.30281913,0.28619832 0 0 0 -0.30272,0.2866 0.30281913,0.28619832 0 0 0 0.30272,0.286 0.30281913,0.28619832 0 0 0 0.30272,-0.286 0.30281913,0.28619832 0 0 0 -0.30272,-0.2866 z m 28.8844,2.13755 a 0.30281913,0.28619832 0 0 0 -0.30272,0.2866 0.30281913,0.28619832 0 0 0 0.30272,0.286 0.30281913,0.28619832 0 0 0 0.30272,-0.286 0.30281913,0.28619832 0 0 0 -0.30272,-0.2866 z m -8.37764,7.1817 a 0.30281913,0.28619832 0 0 0 -0.30272,0.286 0.30281913,0.28619832 0 0 0 0.30272,0.286 0.30281913,0.28619832 0 0 0 0.30272,-0.286 0.30281913,0.28619832 0 0 0 -0.30272,-0.286 z m 17.04667,0 a 0.30281913,0.28619832 0 0 0 -0.30332,0.28659 0.30281913,0.28619832 0 0 0 0.30332,0.28601 0.30281913,0.28619832 0 0 0 0.30272,-0.28601 0.30281913,0.28619832 0 0 0 -0.30272,-0.28659 z m 9.36044,7.57755 a 0.30281913,0.28619832 0 0 0 -0.30272,0.28601 0.30281913,0.28619832 0 0 0 0.30272,0.28659 0.30281913,0.28619832 0 0 0 0.30272,-0.28659 0.30281913,0.28619832 0 0 0 -0.30272,-0.28601 z m -35.99146,0.11464 a 0.30281913,0.28619832 0 0 0 -0.30272,0.28601 0.30281913,0.28619832 0 0 0 0.30272,0.286 0.30281913,0.28619832 0 0 0 0.30331,-0.286 0.30281913,0.28619832 0 0 0 -0.30331,-0.28601 z m 23.47007,1.31478 a 0.30281913,0.28619832 0 0 0 -0.30272,0.286 0.30281913,0.28619832 0 0 0 0.30272,0.286 0.30281913,0.28619832 0 0 0 0.30272,-0.286 0.30281913,0.28619832 0 0 0 -0.30272,-0.286 z m -10.52535,0.11404 a 0.30281913,0.28619832 0 0 0 -0.30272,0.2866 0.30281913,0.28619832 0 0 0 0.30272,0.286 0.30281913,0.28619832 0 0 0 0.30332,-0.286 0.30281913,0.28619832 0 0 0 -0.30332,-0.2866 z m 5.26267,11.60547 a 0.30281913,0.28619832 0 0 0 -0.30272,0.2866 0.30281913,0.28619832 0 0 0 0.30272,0.286 0.30281913,0.28619832 0 0 0 0.30272,-0.286 0.30281913,0.28619832 0 0 0 -0.30272,-0.2866 z m 61.6582,0.56782 a 0.30281913,0.28619832 0 0 0 -0.30272,0.286 0.30281913,0.28619832 0 0 0 0.30272,0.2866 0.30281913,0.28619832 0 0 0 0.30331,-0.2866 0.30281913,0.28619832 0 0 0 -0.30331,-0.286 z m -122.82798,0.42453 a 0.30281913,0.28619832 0 0 0 -0.30272,0.286 0.30281913,0.28619832 0 0 0 0.30272,0.286 0.30281913,0.28619832 0 0 0 0.30272,-0.286 0.30281913,0.28619832 0 0 0 -0.30272,-0.286 z m 80.15816,4.98264 a 0.30281913,0.28619832 0 0 0 -0.30272,0.286 0.30281913,0.28619832 0 0 0 0.30272,0.2866 0.30281913,0.28619832 0 0 0 0.30332,-0.2866 0.30281913,0.28619832 0 0 0 -0.30332,-0.286 z m -36.01415,0.15524 a 0.30281913,0.28619832 0 0 0 -0.30272,0.286 0.30281913,0.28619832 0 0 0 0.30272,0.2866 0.30281913,0.28619832 0 0 0 0.30272,-0.2866 0.30281913,0.28619832 0 0 0 -0.30272,-0.286 z m 18.085,41.52521 a 0.30281913,0.28619832 0 0 0 -0.30273,0.286 0.30281913,0.28619832 0 0 0 0.30273,0.286 0.30281913,0.28619832 0 0 0 0.30272,-0.286 0.30281913,0.28619832 0 0 0 -0.30272,-0.286 z" /></g></g><g
     id="layer15"
     inkscape:label="logo-parts3"
     style="display:inline"
     transform="matrix(0.58863444,0,0,0.58863444,-92.364721,38.386213)"
     sodipodi:insensitive="true"><path
       style="display:inline;fill:#000000;fill-opacity:0.989899;stroke:#85b044;stroke-width:0.3;stroke-opacity:1"
       d="m 266.3951,182.59886 4.10533,-19.78245"
       id="path01"
       sodipodi:nodetypes="cc" /><path
       style="display:inline;fill:#000000;fill-opacity:0.989899;stroke:#85b044;stroke-width:0.3;stroke-opacity:1"
       d="m 270.55114,162.84469 -16.84274,9.27609"
       id="path02"
       sodipodi:nodetypes="cc" /><path
       style="display:inline;fill:#000000;fill-opacity:0.989899;stroke:#85b044;stroke-width:0.3;stroke-opacity:1"
       d="m 253.85407,172.12141 -16.19071,-9.03644"
       id="path03"
       sodipodi:nodetypes="cc" /><path
       style="display:inline;fill:#000000;fill-opacity:0.989899;stroke:#85b044;stroke-width:0.3;stroke-opacity:1"
       d="m 237.71295,163.0594 3.90532,19.54826"
       id="path04"
       sodipodi:nodetypes="cc" /><path
       style="display:inline;fill:#000000;fill-opacity:0.989899;stroke:#85b044;stroke-width:0.3;stroke-opacity:1"
       d="m 241.67079,182.56093 -30.24644,-13.7105"
       id="path05"
       sodipodi:nodetypes="cc" /><path
       style="display:inline;fill:#000000;fill-opacity:0.989899;stroke:#85b044;stroke-width:0.3;stroke-opacity:1"
       d="M 211.50912,168.9571 198.16123,103.30819"
       id="path06"
       sodipodi:nodetypes="cc" /><path
       style="display:inline;fill:#000000;fill-opacity:0.989899;stroke:#85b044;stroke-width:0.3;stroke-opacity:1"
       d="m 198.10676,103.3179 56.09831,32.97427"
       id="path07"
       sodipodi:nodetypes="cc" /><path
       style="display:inline;fill:#000000;fill-opacity:0.989899;stroke:#85b044;stroke-width:0.3;stroke-opacity:1"
       d="m 254.05202,136.28875 55.8277,-33.0572"
       id="path08"
       sodipodi:nodetypes="cc" /><path
       style="display:inline;fill:#000000;fill-opacity:0.989899;stroke:#85b044;stroke-width:0.3;stroke-opacity:1"
       d="m 309.84414,103.19388 -13.41338,65.74598"
       id="path09"
       sodipodi:nodetypes="cc" /><path
       style="display:inline;fill:#000000;fill-opacity:0.989899;stroke:#85b044;stroke-width:0.3;stroke-opacity:1"
       d="M 266.3425,182.55933 296.51583,168.8345"
       id="path10"
       sodipodi:nodetypes="cc" /></g></svg>
