<?xml version="1.0" encoding="UTF-8" standalone="no"?>
<!-- Created with Inkscape (http://www.inkscape.org/) -->

<svg
   width="410"
   height="410"
   viewBox="0 0 108.47917 108.47916"
   version="1.1"
   id="svg5"
   xml:space="preserve"
   inkscape:version="1.2.2 (b0a84865, 2022-12-01)"
   sodipodi:docname="mobile-background-logo.svg"
   inkscape:export-filename="../../miliverse-portfolio/assets/mobile/animation/logo/mobile-background-animation-logo.svg"
   inkscape:export-xdpi="96"
   inkscape:export-ydpi="96"
   xmlns:inkscape="http://www.inkscape.org/namespaces/inkscape"
   xmlns:sodipodi="http://sodipodi.sourceforge.net/DTD/sodipodi-0.dtd"
   xmlns="http://www.w3.org/2000/svg"
   xmlns:svg="http://www.w3.org/2000/svg"><sodipodi:namedview
     id="namedview7"
     pagecolor="#ffffff"
     bordercolor="#000000"
     borderopacity="0.25"
     inkscape:showpageshadow="2"
     inkscape:pageopacity="0.0"
     inkscape:pagecheckerboard="0"
     inkscape:deskcolor="#d1d1d1"
     inkscape:document-units="mm"
     showgrid="false"
     inkscape:zoom="0.46545847"
     inkscape:cx="280.36873"
     inkscape:cy="403.90284"
     inkscape:window-width="1440"
     inkscape:window-height="756"
     inkscape:window-x="0"
     inkscape:window-y="25"
     inkscape:window-maximized="0"
     inkscape:current-layer="layer1" /><defs
     id="defs2" /><g
     inkscape:groupmode="layer"
     id="layer1"
     inkscape:label="container"
     transform="translate(-3.206262,-97.813405)"><g
       id="layer6"
       inkscape:label="extra-small"
       style="display:inline"
       transform="matrix(0.8654841,0,0,0.8654841,-162.42858,-3.4828046)"><g
         inkscape:groupmode="layer"
         id="layer16"
         inkscape:label="star-in-the-middle"
         style="display:inline"><path
           id="circle11347"
           style="display:inline;fill:#ffffff;fill-opacity:1;stroke:#ffffff;stroke-width:0.00430533;stroke-opacity:0.016835"
           d="m 215.69589,119.53425 a 0.10037542,0.10037542 0 0 0 -0.10031,0.10091 0.10037542,0.10037542 0 0 0 0.10031,0.10031 0.10037542,0.10037542 0 0 0 0.10031,-0.10031 0.10037542,0.10037542 0 0 0 -0.10031,-0.10091 z m 72.58657,0.8813 a 0.10037542,0.10037542 0 0 0 -0.10031,0.10031 0.10037542,0.10037542 0 0 0 0.10031,0.1009 0.10037542,0.10037542 0 0 0 0.10031,-0.1009 0.10037542,0.10037542 0 0 0 -0.10031,-0.10031 z m 2.44624,3.95745 a 0.10037542,0.10037542 0 0 0 -0.10031,0.10031 0.10037542,0.10037542 0 0 0 0.10031,0.10031 0.10037542,0.10037542 0 0 0 0.10031,-0.10031 0.10037542,0.10037542 0 0 0 -0.10031,-0.10031 z m -64.95109,0.11046 a 0.10037542,0.10037542 0 0 0 -0.0919,0.10031 0.10037542,0.10037542 0 0 0 0.10031,0.10031 0.10037542,0.10037542 0 0 0 0.10031,-0.10031 0.10037542,0.10037542 0 0 0 -0.10031,-0.10031 0.10037542,0.10037542 0 0 0 -0.008,0 z m 53.55102,1.31239 a 0.10037542,0.10037542 0 0 0 -0.10031,0.10031 0.10037542,0.10037542 0 0 0 0.10031,0.10031 0.10037542,0.10037542 0 0 0 0.10031,-0.10031 0.10037542,0.10037542 0 0 0 -0.10031,-0.10031 z m -62.19795,0.35168 a 0.10037542,0.10037542 0 0 0 -0.10031,0.1009 0.10037542,0.10037542 0 0 0 0.10031,0.10031 0.10037542,0.10037542 0 0 0 0.10031,-0.10031 0.10037542,0.10037542 0 0 0 -0.10031,-0.1009 z m 13.86124,1.42045 a 0.10037542,0.10037542 0 0 0 -0.10031,0.10031 0.10037542,0.10037542 0 0 0 0.10031,0.10031 0.10037542,0.10037542 0 0 0 0.10031,-0.10031 0.10037542,0.10037542 0 0 0 -0.10031,-0.10031 z m 58.07451,3.89357 a 0.10037542,0.10037542 0 0 0 -0.10031,0.10091 0.10037542,0.10037542 0 0 0 0.10031,0.10031 0.10037542,0.10037542 0 0 0 0.10031,-0.10031 0.10037542,0.10037542 0 0 0 -0.10031,-0.10091 z m -51.38541,0.45438 a 0.10037542,0.10037542 0 0 0 -0.0925,0.10031 0.10037542,0.10037542 0 0 0 0.10031,0.10031 0.10037542,0.10037542 0 0 0 0.10091,-0.10031 0.10037542,0.10037542 0 0 0 -0.10091,-0.10031 0.10037542,0.10037542 0 0 0 -0.008,0 z m 29.03307,1.19894 a 0.10037542,0.10037542 0 0 0 -0.0919,0.10031 0.10037542,0.10037542 0 0 0 0.10031,0.10031 0.10037542,0.10037542 0 0 0 0.10031,-0.10031 0.10037542,0.10037542 0 0 0 -0.10031,-0.10031 0.10037542,0.10037542 0 0 0 -0.008,0 z m -48.02563,0.86039 a 0.10037542,0.10037542 0 0 0 -0.0919,0.10031 0.10037542,0.10037542 0 0 0 0.10031,0.10031 0.10037542,0.10037542 0 0 0 0.10031,-0.10031 0.10037542,0.10037542 0 0 0 -0.10031,-0.10031 0.10037542,0.10037542 0 0 0 -0.008,0 z m 24.04446,0.4496 a 0.10037542,0.10037542 0 0 0 -0.10031,0.10031 0.10037542,0.10037542 0 0 0 0.10031,0.10031 0.10037542,0.10037542 0 0 0 0.10031,-0.10031 0.10037542,0.10037542 0 0 0 -0.10031,-0.10031 z m 16.86038,3.00929 a 0.10037542,0.10037542 0 0 0 -0.0919,0.10031 0.10037542,0.10037542 0 0 0 0.10031,0.10031 0.10037542,0.10037542 0 0 0 0.10031,-0.10031 0.10037542,0.10037542 0 0 0 -0.10031,-0.10031 0.10037542,0.10037542 0 0 0 -0.008,0 z m -39.8295,2.29698 a 0.10037542,0.10037542 0 0 0 -0.10031,0.1003 0.10037542,0.10037542 0 0 0 0.10031,0.10031 0.10037542,0.10037542 0 0 0 0.10091,-0.10031 0.10037542,0.10037542 0 0 0 -0.10091,-0.1003 z m 66.45992,6.49385 a 0.10037542,0.10037542 0 0 0 -0.0919,0.10031 0.10037542,0.10037542 0 0 0 0.10031,0.10031 0.10037542,0.10037542 0 0 0 0.10031,-0.10031 0.10037542,0.10037542 0 0 0 -0.10031,-0.10031 0.10037542,0.10037542 0 0 0 -0.008,0 z m -65.12066,0.94518 a 0.10037542,0.10037542 0 0 0 -0.0919,0.10031 0.10037542,0.10037542 0 0 0 0.10031,0.10031 0.10037542,0.10037542 0 0 0 0.10031,-0.10031 0.10037542,0.10037542 0 0 0 -0.10031,-0.10031 0.10037542,0.10037542 0 0 0 -0.008,0 z m 1.20431,4.94861 a 0.10037542,0.10037542 0 0 0 -0.0919,0.10031 0.10037542,0.10037542 0 0 0 0.10031,0.10031 0.10037542,0.10037542 0 0 0 0.10031,-0.10031 0.10037542,0.10037542 0 0 0 -0.10031,-0.10031 0.10037542,0.10037542 0 0 0 -0.008,0 z m 62.36752,1.48375 a 0.10037542,0.10037542 0 0 0 -0.1003,0.10031 0.10037542,0.10037542 0 0 0 0.1003,0.10031 0.10037542,0.10037542 0 0 0 0.10031,-0.10031 0.10037542,0.10037542 0 0 0 -0.10031,-0.10031 z m -1.10758,5.89438 a 0.10037542,0.10037542 0 0 0 -0.10031,0.10031 0.10037542,0.10037542 0 0 0 0.10031,0.10031 0.10037542,0.10037542 0 0 0 0.10031,-0.10031 0.10037542,0.10037542 0 0 0 -0.10031,-0.10031 z m -59.5284,1.00788 a 0.10037542,0.10037542 0 0 0 -0.0919,0.10031 0.10037542,0.10037542 0 0 0 0.10031,0.1003 0.10037542,0.10037542 0 0 0 0.1003,-0.1003 0.10037542,0.10037542 0 0 0 -0.1003,-0.10031 0.10037542,0.10037542 0 0 0 -0.008,0 z m 22.0729,0.23405 a 0.10037542,0.10037542 0 0 0 -0.10031,0.10031 0.10037542,0.10037542 0 0 0 0.10031,0.10091 0.10037542,0.10037542 0 0 0 0.10031,-0.10091 0.10037542,0.10037542 0 0 0 -0.10031,-0.10031 z m 17.75659,1.64556 a 0.10037542,0.10037542 0 0 0 -0.0919,0.10031 0.10037542,0.10037542 0 0 0 0.10031,0.10031 0.10037542,0.10037542 0 0 0 0.10031,-0.10031 0.10037542,0.10037542 0 0 0 -0.10031,-0.10031 0.10037542,0.10037542 0 0 0 -0.008,0 z m -4.25241,2.01873 a 0.10037542,0.10037542 0 0 0 -0.10031,0.10031 0.10037542,0.10037542 0 0 0 0.10031,0.10091 0.10037542,0.10037542 0 0 0 0.10031,-0.10091 0.10037542,0.10037542 0 0 0 -0.10031,-0.10031 z m -10.45608,0.54573 a 0.10037542,0.10037542 0 0 0 -0.10091,0.10031 0.10037542,0.10037542 0 0 0 0.10091,0.10091 0.10037542,0.10037542 0 0 0 0.10031,-0.10091 0.10037542,0.10037542 0 0 0 -0.10031,-0.10031 z m -4.64888,0.24839 a 0.10037542,0.10037542 0 0 0 -0.0919,0.10031 0.10037542,0.10037542 0 0 0 0.10031,0.10031 0.10037542,0.10037542 0 0 0 0.10031,-0.10031 0.10037542,0.10037542 0 0 0 -0.10031,-0.10031 0.10037542,0.10037542 0 0 0 -0.008,0 z m 41.68881,1.35418 a 0.10037542,0.10037542 0 0 0 -0.10031,0.10031 0.10037542,0.10037542 0 0 0 0.10031,0.10031 0.10037542,0.10037542 0 0 0 0.10091,-0.10031 0.10037542,0.10037542 0 0 0 -0.10091,-0.10031 z m -41.66731,2.61044 a 0.10037542,0.10037542 0 0 0 -0.10031,0.10031 0.10037542,0.10037542 0 0 0 0.10031,0.10031 0.10037542,0.10037542 0 0 0 0.10031,-0.10031 0.10037542,0.10037542 0 0 0 -0.10031,-0.10031 z m 18.43249,0.40541 a 0.10037542,0.10037542 0 0 0 -0.10031,0.10031 0.10037542,0.10037542 0 0 0 0.10031,0.10091 0.10037542,0.10037542 0 0 0 0.10091,-0.10091 0.10037542,0.10037542 0 0 0 -0.10091,-0.10031 z m -8.19315,0.16958 a 0.10037542,0.10037542 0 0 0 -0.1009,0.10031 0.10037542,0.10037542 0 0 0 0.1009,0.10031 0.10037542,0.10037542 0 0 0 0.10031,-0.10031 0.10037542,0.10037542 0 0 0 -0.10031,-0.10031 z m -37.65314,0.68783 a 0.10037542,0.10037542 0 0 0 -0.0919,0.10031 0.10037542,0.10037542 0 0 0 0.10031,0.10031 0.10037542,0.10037542 0 0 0 0.10031,-0.10031 0.10037542,0.10037542 0 0 0 -0.10031,-0.10031 0.10037542,0.10037542 0 0 0 -0.008,0 z m 31.40349,1.64198 a 0.10037542,0.10037542 0 0 0 -0.1009,0.10031 0.10037542,0.10037542 0 0 0 0.1009,0.10031 0.10037542,0.10037542 0 0 0 0.10031,-0.10031 0.10037542,0.10037542 0 0 0 -0.10031,-0.10031 z m 9.43807,0.0245 a 0.10037542,0.10037542 0 0 0 -0.10031,0.10031 0.10037542,0.10037542 0 0 0 0.10031,0.1009 0.10037542,0.10037542 0 0 0 0.10031,-0.1009 0.10037542,0.10037542 0 0 0 -0.10031,-0.10031 z m -44.4742,1.97395 a 0.10037542,0.10037542 0 0 0 -0.0919,0.10031 0.10037542,0.10037542 0 0 0 0.10031,0.10031 0.10037542,0.10037542 0 0 0 0.10031,-0.10031 0.10037542,0.10037542 0 0 0 -0.10031,-0.10031 0.10037542,0.10037542 0 0 0 -0.008,0 z m 40.32926,0.93144 a 0.10037542,0.10037542 0 0 0 -0.10031,0.10031 0.10037542,0.10037542 0 0 0 0.10031,0.10031 0.10037542,0.10037542 0 0 0 0.008,0 0.10037542,0.10037542 0 0 0 0.0919,-0.10031 0.10037542,0.10037542 0 0 0 0,-0.002 0.10037542,0.10037542 0 0 0 -6e-4,-0.006 0.10037542,0.10037542 0 0 0 0,-0.002 0.10037542,0.10037542 0 0 0 -6e-4,-0.006 0.10037542,0.10037542 0 0 0 -5.9e-4,-0.002 0.10037542,0.10037542 0 0 0 -10e-4,-0.005 0.10037542,0.10037542 0 0 0 -6e-4,-0.003 0.10037542,0.10037542 0 0 0 -0.002,-0.005 0.10037542,0.10037542 0 0 0 -0.001,-0.003 0.10037542,0.10037542 0 0 0 -0.002,-0.005 0.10037542,0.10037542 0 0 0 -0.001,-0.003 0.10037542,0.10037542 0 0 0 -0.002,-0.005 0.10037542,0.10037542 0 0 0 -0.001,-0.002 0.10037542,0.10037542 0 0 0 -0.003,-0.005 0.10037542,0.10037542 0 0 0 -0.002,-0.002 0.10037542,0.10037542 0 0 0 -0.003,-0.004 0.10037542,0.10037542 0 0 0 -0.002,-0.002 0.10037542,0.10037542 0 0 0 -0.004,-0.004 0.10037542,0.10037542 0 0 0 -0.002,-0.002 0.10037542,0.10037542 0 0 0 -0.004,-0.004 0.10037542,0.10037542 0 0 0 -0.002,-0.002 0.10037542,0.10037542 0 0 0 -0.004,-0.004 0.10037542,0.10037542 0 0 0 -0.002,-10e-4 0.10037542,0.10037542 0 0 0 -0.005,-0.004 0.10037542,0.10037542 0 0 0 -0.002,-0.001 0.10037542,0.10037542 0 0 0 -0.005,-0.003 0.10037542,0.10037542 0 0 0 -0.002,-0.001 0.10037542,0.10037542 0 0 0 -0.005,-0.002 0.10037542,0.10037542 0 0 0 -0.002,-10e-4 0.10037542,0.10037542 0 0 0 -0.005,-0.002 0.10037542,0.10037542 0 0 0 -0.003,-6e-4 0.10037542,0.10037542 0 0 0 -0.005,-0.002 0.10037542,0.10037542 0 0 0 -0.002,-6e-4 0.10037542,0.10037542 0 0 0 -0.008,-0.001 0.10037542,0.10037542 0 0 0 -0.003,-6e-4 0.10037542,0.10037542 0 0 0 -0.0108,-6e-4 z m -12.85874,0.58156 a 0.10037542,0.10037542 0 0 0 -0.10031,0.10031 0.10037542,0.10037542 0 0 0 0.10031,0.10091 0.10037542,0.10037542 0 0 0 0.10031,-0.10091 0.10037542,0.10037542 0 0 0 -0.10031,-0.10031 z m 26.1014,0.67948 a 0.10037542,0.10037542 0 0 0 -0.0919,0.10031 0.10037542,0.10037542 0 0 0 0.10031,0.10031 0.10037542,0.10037542 0 0 0 0.10031,-0.10031 0.10037542,0.10037542 0 0 0 -0.10031,-0.10031 0.10037542,0.10037542 0 0 0 -0.008,0 z m -9.42433,0.17912 a 0.10037542,0.10037542 0 0 0 -0.10031,0.10031 0.10037542,0.10037542 0 0 0 0.10031,0.10091 0.10037542,0.10037542 0 0 0 0.10031,-0.10091 0.10037542,0.10037542 0 0 0 -0.10031,-0.10031 z m 39.41274,0.0269 a 0.10037542,0.10037542 0 0 0 -0.10031,0.10031 0.10037542,0.10037542 0 0 0 0.10031,0.10031 0.10037542,0.10037542 0 0 0 0.10031,-0.10031 0.10037542,0.10037542 0 0 0 -0.10031,-0.10031 z m -49.48908,0.86279 a 0.10037542,0.10037542 0 0 0 -0.0919,0.10031 0.10037542,0.10037542 0 0 0 0.10031,0.1003 0.10037542,0.10037542 0 0 0 0.008,-5.9e-4 0.10037542,0.10037542 0 0 0 0.0919,-0.0997 0.10037542,0.10037542 0 0 0 0,-0.003 0.10037542,0.10037542 0 0 0 -6e-4,-0.005 0.10037542,0.10037542 0 0 0 0,-0.003 0.10037542,0.10037542 0 0 0 -6e-4,-0.005 0.10037542,0.10037542 0 0 0 -5.9e-4,-0.002 0.10037542,0.10037542 0 0 0 -0.001,-0.005 0.10037542,0.10037542 0 0 0 -5.9e-4,-0.003 0.10037542,0.10037542 0 0 0 -0.002,-0.005 0.10037542,0.10037542 0 0 0 -0.001,-0.002 0.10037542,0.10037542 0 0 0 -0.002,-0.005 0.10037542,0.10037542 0 0 0 -0.001,-0.002 0.10037542,0.10037542 0 0 0 -0.002,-0.005 0.10037542,0.10037542 0 0 0 -0.002,-0.002 0.10037542,0.10037542 0 0 0 -0.002,-0.005 0.10037542,0.10037542 0 0 0 -0.002,-0.002 0.10037542,0.10037542 0 0 0 -0.003,-0.004 0.10037542,0.10037542 0 0 0 -0.002,-0.002 0.10037542,0.10037542 0 0 0 -0.004,-0.004 0.10037542,0.10037542 0 0 0 -0.002,-0.002 0.10037542,0.10037542 0 0 0 -0.004,-0.004 0.10037542,0.10037542 0 0 0 -0.002,-0.002 0.10037542,0.10037542 0 0 0 -0.004,-0.004 0.10037542,0.10037542 0 0 0 -0.002,-0.002 0.10037542,0.10037542 0 0 0 -0.004,-0.003 0.10037542,0.10037542 0 0 0 -0.002,-0.001 0.10037542,0.10037542 0 0 0 -0.005,-0.003 0.10037542,0.10037542 0 0 0 -0.002,-0.001 0.10037542,0.10037542 0 0 0 -0.005,-0.002 0.10037542,0.10037542 0 0 0 -0.002,-0.001 0.10037542,0.10037542 0 0 0 -0.005,-0.002 0.10037542,0.10037542 0 0 0 -0.002,-0.001 0.10037542,0.10037542 0 0 0 -0.005,-0.001 0.10037542,0.10037542 0 0 0 -0.002,-6e-4 0.10037542,0.10037542 0 0 0 -0.005,-0.001 0.10037542,0.10037542 0 0 0 -0.003,-6e-4 0.10037542,0.10037542 0 0 0 -0.0137,-5.9e-4 0.10037542,0.10037542 0 0 0 -0.008,0 z m -38.06274,0.73023 a 0.10037542,0.10037542 0 0 0 -0.10031,0.10031 0.10037542,0.10037542 0 0 0 0.10031,0.1009 0.10037542,0.10037542 0 0 0 0.10031,-0.1009 0.10037542,0.10037542 0 0 0 -0.10031,-0.10031 z m 42.76774,0.68783 a 0.10037542,0.10037542 0 0 0 -0.10031,0.10031 0.10037542,0.10037542 0 0 0 0.10031,0.10031 0.10037542,0.10037542 0 0 0 0.10031,-0.10031 0.10037542,0.10037542 0 0 0 -0.10031,-0.10031 z m 12.59841,0.41139 a 0.10037542,0.10037542 0 0 0 -0.0919,0.10031 0.10037542,0.10037542 0 0 0 0.10031,0.10031 0.10037542,0.10037542 0 0 0 0.10031,-0.10031 0.10037542,0.10037542 0 0 0 -0.10031,-0.10031 0.10037542,0.10037542 0 0 0 -0.008,0 z m -24.17402,0.40482 a 0.10037542,0.10037542 0 0 0 -0.10031,0.10031 0.10037542,0.10037542 0 0 0 0.10031,0.10031 0.10037542,0.10037542 0 0 0 0.10031,-0.10031 0.10037542,0.10037542 0 0 0 -0.10031,-0.10031 z m 27.30273,0.82756 a 0.10037542,0.10037542 0 0 0 -0.10031,0.10031 0.10037542,0.10037542 0 0 0 0.10031,0.1009 0.10037542,0.10037542 0 0 0 0.10031,-0.1009 0.10037542,0.10037542 0 0 0 -0.10031,-0.10031 z m -9.90379,0.0967 a 0.10037542,0.10037542 0 0 0 -0.0919,0.1003 0.10037542,0.10037542 0 0 0 0.10031,0.10031 0.10037542,0.10037542 0 0 0 0.10031,-0.10031 0.10037542,0.10037542 0 0 0 -0.10031,-0.1003 0.10037542,0.10037542 0 0 0 -0.008,0 z m -13.583,0.7762 a 0.10037542,0.10037542 0 0 0 -0.0919,0.10031 0.10037542,0.10037542 0 0 0 0.10031,0.10031 0.10037542,0.10037542 0 0 0 0.10031,-0.10031 0.10037542,0.10037542 0 0 0 -0.10031,-0.10031 0.10037542,0.10037542 0 0 0 -0.008,0 z m 17.67361,0.91354 a 0.10037542,0.10037542 0 0 0 -0.0919,0.1003 0.10037542,0.10037542 0 0 0 0.10031,0.10031 0.10037542,0.10037542 0 0 0 0.10031,-0.10031 0.10037542,0.10037542 0 0 0 -0.10031,-0.1003 0.10037542,0.10037542 0 0 0 -0.008,0 z m 39.90652,0.21853 a 0.10037542,0.10037542 0 0 0 -0.10031,0.10031 0.10037542,0.10037542 0 0 0 0.10031,0.10031 0.10037542,0.10037542 0 0 0 0.10031,-0.10031 0.10037542,0.10037542 0 0 0 -0.10031,-0.10031 z m -98.14045,1.07594 a 0.10037542,0.10037542 0 0 0 -0.0919,0.10031 0.10037542,0.10037542 0 0 0 0.1003,0.10031 0.10037542,0.10037542 0 0 0 0.10031,-0.10031 0.10037542,0.10037542 0 0 0 -0.10031,-0.10031 0.10037542,0.10037542 0 0 0 -0.008,0 z m 52.86497,1.12012 a 0.10037542,0.10037542 0 0 0 -0.0919,0.10031 0.10037542,0.10037542 0 0 0 0.10031,0.10031 0.10037542,0.10037542 0 0 0 0.10031,-0.10031 0.10037542,0.10037542 0 0 0 -0.10031,-0.10031 0.10037542,0.10037542 0 0 0 -0.008,0 z m -4.25719,0.35347 a 0.10037542,0.10037542 0 0 0 -0.10031,0.10091 0.10037542,0.10037542 0 0 0 0.10031,0.10031 0.10037542,0.10037542 0 0 0 0.008,-6e-4 0.10037542,0.10037542 0 0 0 0.0919,-0.0997 0.10037542,0.10037542 0 0 0 0,-0.003 0.10037542,0.10037542 0 0 0 0,-0.005 0.10037542,0.10037542 0 0 0 -5.9e-4,-0.003 0.10037542,0.10037542 0 0 0 -6e-4,-0.005 0.10037542,0.10037542 0 0 0 -6e-4,-0.003 0.10037542,0.10037542 0 0 0 -10e-4,-0.005 0.10037542,0.10037542 0 0 0 -6e-4,-0.002 0.10037542,0.10037542 0 0 0 -0.002,-0.005 0.10037542,0.10037542 0 0 0 -6e-4,-0.002 0.10037542,0.10037542 0 0 0 -0.002,-0.005 0.10037542,0.10037542 0 0 0 -0.001,-0.002 0.10037542,0.10037542 0 0 0 -0.002,-0.005 0.10037542,0.10037542 0 0 0 -0.001,-0.003 0.10037542,0.10037542 0 0 0 -0.003,-0.004 0.10037542,0.10037542 0 0 0 -0.002,-0.002 0.10037542,0.10037542 0 0 0 -0.003,-0.005 0.10037542,0.10037542 0 0 0 -0.002,-0.002 0.10037542,0.10037542 0 0 0 -0.004,-0.004 0.10037542,0.10037542 0 0 0 -0.002,-0.002 0.10037542,0.10037542 0 0 0 -0.004,-0.004 0.10037542,0.10037542 0 0 0 -0.002,-0.002 0.10037542,0.10037542 0 0 0 -0.005,-0.004 0.10037542,0.10037542 0 0 0 -0.002,-0.002 0.10037542,0.10037542 0 0 0 -0.005,-0.003 0.10037542,0.10037542 0 0 0 -0.002,-0.002 0.10037542,0.10037542 0 0 0 -0.005,-0.002 0.10037542,0.10037542 0 0 0 -0.002,-0.001 0.10037542,0.10037542 0 0 0 -0.005,-0.002 0.10037542,0.10037542 0 0 0 -0.003,-10e-4 0.10037542,0.10037542 0 0 0 -0.005,-0.002 0.10037542,0.10037542 0 0 0 -0.003,-0.001 0.10037542,0.10037542 0 0 0 -0.005,-0.001 0.10037542,0.10037542 0 0 0 -0.002,-0.001 0.10037542,0.10037542 0 0 0 -0.005,-5.9e-4 0.10037542,0.10037542 0 0 0 -0.003,-6e-4 0.10037542,0.10037542 0 0 0 -0.0137,-0.001 z m 54.64906,2.22652 a 0.10037542,0.10037542 0 0 0 -0.0925,0.10031 0.10037542,0.10037542 0 0 0 0.10091,0.10031 0.10037542,0.10037542 0 0 0 0.10031,-0.10031 0.10037542,0.10037542 0 0 0 -0.10031,-0.10031 0.10037542,0.10037542 0 0 0 -0.008,0 z m -109.39006,2.09217 a 0.10037542,0.10037542 0 0 0 -0.0919,0.10031 0.10037542,0.10037542 0 0 0 0.10031,0.10031 0.10037542,0.10037542 0 0 0 0.10031,-0.10031 0.10037542,0.10037542 0 0 0 -0.10031,-0.10031 0.10037542,0.10037542 0 0 0 -0.008,0 z m 53.6167,0.0991 a 0.10037542,0.10037542 0 0 0 -0.0925,0.10031 0.10037542,0.10037542 0 0 0 0.10031,0.10031 0.10037542,0.10037542 0 0 0 0.10091,-0.10031 0.10037542,0.10037542 0 0 0 -0.10091,-0.10031 0.10037542,0.10037542 0 0 0 -0.008,0 z m 4.43333,0.48781 a 0.10037542,0.10037542 0 0 0 -0.10031,0.10031 0.10037542,0.10037542 0 0 0 0.10031,0.10091 0.10037542,0.10037542 0 0 0 0.008,-6e-4 0.10037542,0.10037542 0 0 0 0.0919,-0.10031 0.10037542,0.10037542 0 0 0 0,-0.002 0.10037542,0.10037542 0 0 0 0,-0.005 0.10037542,0.10037542 0 0 0 -6e-4,-0.003 0.10037542,0.10037542 0 0 0 -6e-4,-0.005 0.10037542,0.10037542 0 0 0 -5.9e-4,-0.003 0.10037542,0.10037542 0 0 0 -0.001,-0.005 0.10037542,0.10037542 0 0 0 -6e-4,-0.002 0.10037542,0.10037542 0 0 0 -0.002,-0.005 0.10037542,0.10037542 0 0 0 -10e-4,-0.002 0.10037542,0.10037542 0 0 0 -0.002,-0.005 0.10037542,0.10037542 0 0 0 -0.001,-0.002 0.10037542,0.10037542 0 0 0 -0.002,-0.005 0.10037542,0.10037542 0 0 0 -10e-4,-0.002 0.10037542,0.10037542 0 0 0 -0.003,-0.004 0.10037542,0.10037542 0 0 0 -0.002,-0.002 0.10037542,0.10037542 0 0 0 -0.003,-0.005 0.10037542,0.10037542 0 0 0 -0.002,-0.002 0.10037542,0.10037542 0 0 0 -0.004,-0.004 0.10037542,0.10037542 0 0 0 -0.002,-0.002 0.10037542,0.10037542 0 0 0 -0.004,-0.004 0.10037542,0.10037542 0 0 0 -0.002,-0.002 0.10037542,0.10037542 0 0 0 -0.004,-0.004 0.10037542,0.10037542 0 0 0 -0.002,-0.002 0.10037542,0.10037542 0 0 0 -0.005,-0.003 0.10037542,0.10037542 0 0 0 -0.002,-0.002 0.10037542,0.10037542 0 0 0 -0.005,-0.002 0.10037542,0.10037542 0 0 0 -0.002,-0.002 0.10037542,0.10037542 0 0 0 -0.005,-0.002 0.10037542,0.10037542 0 0 0 -0.003,-10e-4 0.10037542,0.10037542 0 0 0 -0.005,-0.002 0.10037542,0.10037542 0 0 0 -0.003,-6e-4 0.10037542,0.10037542 0 0 0 -0.005,-0.001 0.10037542,0.10037542 0 0 0 -0.002,-0.001 0.10037542,0.10037542 0 0 0 -0.005,-6e-4 0.10037542,0.10037542 0 0 0 -0.003,-5.9e-4 0.10037542,0.10037542 0 0 0 -0.0137,-0.001 z m 55.56438,0.83114 a 0.10037542,0.10037542 0 0 0 -0.10031,0.10031 0.10037542,0.10037542 0 0 0 0.10031,0.10031 0.10037542,0.10037542 0 0 0 0.10031,-0.10031 0.10037542,0.10037542 0 0 0 -0.10031,-0.10031 z m -110.93591,4.18196 a 0.10037542,0.10037542 0 0 0 -0.10031,0.10031 0.10037542,0.10037542 0 0 0 0.10031,0.10031 0.10037542,0.10037542 0 0 0 0.10031,-0.10031 0.10037542,0.10037542 0 0 0 -0.10031,-0.10031 z m 10.21368,0.68186 a 0.10037542,0.10037542 0 0 0 -0.0926,0.10031 0.10037542,0.10037542 0 0 0 0.1009,0.10031 0.10037542,0.10037542 0 0 0 0.10031,-0.10031 0.10037542,0.10037542 0 0 0 -0.10031,-0.10031 0.10037542,0.10037542 0 0 0 -0.008,0 z m 97.086,6e-4 a 0.10037542,0.10037542 0 0 0 -0.10031,0.10091 0.10037542,0.10037542 0 0 0 0.10031,0.10031 0.10037542,0.10037542 0 0 0 0.10031,-0.10031 0.10037542,0.10037542 0 0 0 -0.10031,-0.10091 z m -90.59334,0.99593 a 0.10037542,0.10037542 0 0 0 -0.0919,0.10031 0.10037542,0.10037542 0 0 0 0.10031,0.10031 0.10037542,0.10037542 0 0 0 0.10031,-0.10031 0.10037542,0.10037542 0 0 0 -0.10031,-0.10031 0.10037542,0.10037542 0 0 0 -0.008,0 z m 81.68967,0.007 a 0.10037542,0.10037542 0 0 0 -0.0919,0.10031 0.10037542,0.10037542 0 0 0 0.10031,0.10031 0.10037542,0.10037542 0 0 0 0.10031,-0.10031 0.10037542,0.10037542 0 0 0 -0.10031,-0.10031 0.10037542,0.10037542 0 0 0 -0.008,0 z m -7.48262,0.29556 a 0.10037542,0.10037542 0 0 0 -0.092,0.10031 0.10037542,0.10037542 0 0 0 0.10031,0.10031 0.10037542,0.10037542 0 0 0 0.10031,-0.10031 0.10037542,0.10037542 0 0 0 -0.10031,-0.10031 0.10037542,0.10037542 0 0 0 -0.008,0 z m -5.35821,0.55468 a 0.10037542,0.10037542 0 0 0 -0.0919,0.10031 0.10037542,0.10037542 0 0 0 0.10031,0.10031 0.10037542,0.10037542 0 0 0 0.10031,-0.10031 0.10037542,0.10037542 0 0 0 -0.10031,-0.10031 0.10037542,0.10037542 0 0 0 -0.008,0 z m -57.30726,0.79173 a 0.10037542,0.10037542 0 0 0 -0.10031,0.10031 0.10037542,0.10037542 0 0 0 0.10031,0.10031 0.10037542,0.10037542 0 0 0 0.10031,-0.10031 0.10037542,0.10037542 0 0 0 -0.10031,-0.10031 z m 48.69436,0.31049 a 0.10037542,0.10037542 0 0 0 -0.10031,0.10031 0.10037542,0.10037542 0 0 0 0.10031,0.10031 0.10037542,0.10037542 0 0 0 0.10031,-0.10031 0.10037542,0.10037542 0 0 0 -0.10031,-0.10031 z M 238.013,204.1817 a 0.10037542,0.10037542 0 0 0 -0.0919,0.10031 0.10037542,0.10037542 0 0 0 0.1003,0.10031 0.10037542,0.10037542 0 0 0 0.10031,-0.10031 0.10037542,0.10037542 0 0 0 -0.10031,-0.10031 0.10037542,0.10037542 0 0 0 -0.008,0 z m 32.72124,2.19248 a 0.10037542,0.10037542 0 0 0 -0.10031,0.10031 0.10037542,0.10037542 0 0 0 0.10031,0.10031 0.10037542,0.10037542 0 0 0 0.10031,-0.10031 0.10037542,0.10037542 0 0 0 -0.10031,-0.10031 z m -30.94135,4.94503 a 0.10037542,0.10037542 0 0 0 -0.0919,0.10031 0.10037542,0.10037542 0 0 0 0.10031,0.10031 0.10037542,0.10037542 0 0 0 0.10031,-0.10031 0.10037542,0.10037542 0 0 0 -0.10031,-0.10031 0.10037542,0.10037542 0 0 0 -0.008,0 z m 28.74529,1.97216 a 0.10037542,0.10037542 0 0 0 -0.10031,0.10031 0.10037542,0.10037542 0 0 0 0.10031,0.10031 0.10037542,0.10037542 0 0 0 0.10031,-0.10031 0.10037542,0.10037542 0 0 0 -0.10031,-0.10031 z m -24.5681,8.37764 a 0.10037542,0.10037542 0 0 0 -0.10031,0.10031 0.10037542,0.10037542 0 0 0 0.10031,0.10031 0.10037542,0.10037542 0 0 0 0.1003,-0.10031 0.10037542,0.10037542 0 0 0 -0.1003,-0.10031 z m 21.274,0.11464 a 0.10037542,0.10037542 0 0 0 -0.0919,0.10031 0.10037542,0.10037542 0 0 0 0.10031,0.10031 0.10037542,0.10037542 0 0 0 0.10031,-0.10031 0.10037542,0.10037542 0 0 0 -0.10031,-0.10031 0.10037542,0.10037542 0 0 0 -0.008,0 z m -17.88199,7.80863 a 0.10037542,0.10037542 0 0 0 -0.0919,0.10031 0.10037542,0.10037542 0 0 0 0.10031,0.10031 0.10037542,0.10037542 0 0 0 0.10031,-0.10031 0.10037542,0.10037542 0 0 0 -0.10031,-0.10031 0.10037542,0.10037542 0 0 0 -0.008,0 z m 13.56808,1.80199 a 0.10037542,0.10037542 0 0 0 -0.10031,0.10091 0.10037542,0.10037542 0 0 0 0.10031,0.10031 0.10037542,0.10037542 0 0 0 0.10031,-0.10031 0.10037542,0.10037542 0 0 0 -0.10031,-0.10091 z m -8.96159,5.16894 a 0.10037542,0.10037542 0 0 0 -0.10031,0.10031 0.10037542,0.10037542 0 0 0 0.10031,0.10031 0.10037542,0.10037542 0 0 0 0.10031,-0.10031 0.10037542,0.10037542 0 0 0 -0.10031,-0.10031 z m 5.20117,1.18162 a 0.10037542,0.10037542 0 0 0 -0.0919,0.10031 0.10037542,0.10037542 0 0 0 0.10031,0.10031 0.10037542,0.10037542 0 0 0 0.10031,-0.10031 0.10037542,0.10037542 0 0 0 -0.10031,-0.10031 0.10037542,0.10037542 0 0 0 -0.008,0 z" /></g></g><g
       id="layer4"
       inkscape:label="medium"
       style="display:inline"
       transform="matrix(0.87034957,0,0,0.82257874,-166.42303,-2.0706659)"><g
         inkscape:groupmode="layer"
         id="layer12"
         inkscape:label="medium-animation"
         transform="matrix(0.99440974,0,0,1.0521596,2.2035271,0.14226663)"
         style="display:inline"
         sodipodi:insensitive="true"><path
           id="circle42469"
           style="display:inline;fill:#ffffff;fill-opacity:1;stroke:#ffffff;stroke-width:0.0126271;stroke-opacity:0.016835"
           inkscape:label="circle42469"
           d="m 294.26013,116.41563 a 0.30281913,0.28619832 0 0 0 -0.30272,0.286 0.30281913,0.28619832 0 0 0 0.30272,0.286 0.30281913,0.28619832 0 0 0 0.30273,-0.286 0.30281913,0.28619832 0 0 0 -0.30273,-0.286 z m -76.29981,0.0555 a 0.30281913,0.28619832 0 0 0 -0.30272,0.2866 0.30281913,0.28619832 0 0 0 0.30272,0.286 0.30281913,0.28619832 0 0 0 0.30272,-0.286 0.30281913,0.28619832 0 0 0 -0.30272,-0.2866 z m 38.21857,22.42517 a 0.30281913,0.28619832 0 0 0 -0.30272,0.28601 0.30281913,0.28619832 0 0 0 0.30272,0.286 0.30281913,0.28619832 0 0 0 0.30332,-0.286 0.30281913,0.28619832 0 0 0 -0.30332,-0.28601 z m 11.20602,18.2683 a 0.30281913,0.28619832 0 0 0 -0.30272,0.286 0.30281913,0.28619832 0 0 0 0.30272,0.2866 0.30281913,0.28619832 0 0 0 0.30272,-0.2866 0.30281913,0.28619832 0 0 0 -0.30272,-0.286 z m -22.36845,0.15644 a 0.30281913,0.28619832 0 0 0 -0.30272,0.286 0.30281913,0.28619832 0 0 0 0.30272,0.286 0.30281913,0.28619832 0 0 0 0.30272,-0.286 0.30281913,0.28619832 0 0 0 -0.30272,-0.286 z m 40.06594,3.85117 a 0.30281913,0.28619832 0 0 0 -0.30272,0.286 0.30281913,0.28619832 0 0 0 0.30272,0.28601 0.30281913,0.28619832 0 0 0 0.30332,-0.28601 0.30281913,0.28619832 0 0 0 -0.30332,-0.286 z m -58.00943,0.0245 a 0.30281913,0.28619832 0 0 0 -0.30272,0.2866 0.30281913,0.28619832 0 0 0 0.30272,0.286 0.30281913,0.28619832 0 0 0 0.30272,-0.286 0.30281913,0.28619832 0 0 0 -0.30272,-0.2866 z m 28.8844,2.13755 a 0.30281913,0.28619832 0 0 0 -0.30272,0.2866 0.30281913,0.28619832 0 0 0 0.30272,0.286 0.30281913,0.28619832 0 0 0 0.30272,-0.286 0.30281913,0.28619832 0 0 0 -0.30272,-0.2866 z m -8.37764,7.1817 a 0.30281913,0.28619832 0 0 0 -0.30272,0.286 0.30281913,0.28619832 0 0 0 0.30272,0.286 0.30281913,0.28619832 0 0 0 0.30272,-0.286 0.30281913,0.28619832 0 0 0 -0.30272,-0.286 z m 17.04667,0 a 0.30281913,0.28619832 0 0 0 -0.30332,0.28659 0.30281913,0.28619832 0 0 0 0.30332,0.28601 0.30281913,0.28619832 0 0 0 0.30272,-0.28601 0.30281913,0.28619832 0 0 0 -0.30272,-0.28659 z m 9.36044,7.57755 a 0.30281913,0.28619832 0 0 0 -0.30272,0.28601 0.30281913,0.28619832 0 0 0 0.30272,0.28659 0.30281913,0.28619832 0 0 0 0.30272,-0.28659 0.30281913,0.28619832 0 0 0 -0.30272,-0.28601 z m -35.99146,0.11464 a 0.30281913,0.28619832 0 0 0 -0.30272,0.28601 0.30281913,0.28619832 0 0 0 0.30272,0.286 0.30281913,0.28619832 0 0 0 0.30331,-0.286 0.30281913,0.28619832 0 0 0 -0.30331,-0.28601 z m 23.47007,1.31478 a 0.30281913,0.28619832 0 0 0 -0.30272,0.286 0.30281913,0.28619832 0 0 0 0.30272,0.286 0.30281913,0.28619832 0 0 0 0.30272,-0.286 0.30281913,0.28619832 0 0 0 -0.30272,-0.286 z m -10.52535,0.11404 a 0.30281913,0.28619832 0 0 0 -0.30272,0.2866 0.30281913,0.28619832 0 0 0 0.30272,0.286 0.30281913,0.28619832 0 0 0 0.30332,-0.286 0.30281913,0.28619832 0 0 0 -0.30332,-0.2866 z m 5.26267,11.60547 a 0.30281913,0.28619832 0 0 0 -0.30272,0.2866 0.30281913,0.28619832 0 0 0 0.30272,0.286 0.30281913,0.28619832 0 0 0 0.30272,-0.286 0.30281913,0.28619832 0 0 0 -0.30272,-0.2866 z m 61.6582,0.56782 a 0.30281913,0.28619832 0 0 0 -0.30272,0.286 0.30281913,0.28619832 0 0 0 0.30272,0.2866 0.30281913,0.28619832 0 0 0 0.30331,-0.2866 0.30281913,0.28619832 0 0 0 -0.30331,-0.286 z m -122.82798,0.42453 a 0.30281913,0.28619832 0 0 0 -0.30272,0.286 0.30281913,0.28619832 0 0 0 0.30272,0.286 0.30281913,0.28619832 0 0 0 0.30272,-0.286 0.30281913,0.28619832 0 0 0 -0.30272,-0.286 z m 80.15816,4.98264 a 0.30281913,0.28619832 0 0 0 -0.30272,0.286 0.30281913,0.28619832 0 0 0 0.30272,0.2866 0.30281913,0.28619832 0 0 0 0.30332,-0.2866 0.30281913,0.28619832 0 0 0 -0.30332,-0.286 z m -36.01415,0.15524 a 0.30281913,0.28619832 0 0 0 -0.30272,0.286 0.30281913,0.28619832 0 0 0 0.30272,0.2866 0.30281913,0.28619832 0 0 0 0.30272,-0.2866 0.30281913,0.28619832 0 0 0 -0.30272,-0.286 z m 18.085,41.52521 a 0.30281913,0.28619832 0 0 0 -0.30273,0.286 0.30281913,0.28619832 0 0 0 0.30273,0.286 0.30281913,0.28619832 0 0 0 0.30272,-0.286 0.30281913,0.28619832 0 0 0 -0.30272,-0.286 z" /></g></g><g
       id="layer15"
       inkscape:label="logo-parts3"
       style="display:inline"
       transform="matrix(0.58863444,0,0,0.58863444,-92.364721,38.386213)"><path
         style="display:inline;fill:#000000;fill-opacity:0.989899;stroke:#85b044;stroke-width:0.3;stroke-opacity:1"
         d="m 266.3951,182.59886 4.10533,-19.78245"
         id="path01"
         sodipodi:nodetypes="cc" /><path
         style="display:inline;fill:#000000;fill-opacity:0.989899;stroke:#85b044;stroke-width:0.3;stroke-opacity:1"
         d="m 270.55114,162.84469 -16.84274,9.27609"
         id="path02"
         sodipodi:nodetypes="cc" /><path
         style="display:inline;fill:#000000;fill-opacity:0.989899;stroke:#85b044;stroke-width:0.3;stroke-opacity:1"
         d="m 253.85407,172.12141 -16.19071,-9.03644"
         id="path03"
         sodipodi:nodetypes="cc" /><path
         style="display:inline;fill:#000000;fill-opacity:0.989899;stroke:#85b044;stroke-width:0.3;stroke-opacity:1"
         d="m 237.71295,163.0594 3.90532,19.54826"
         id="path04"
         sodipodi:nodetypes="cc" /><path
         style="display:inline;fill:#000000;fill-opacity:0.989899;stroke:#85b044;stroke-width:0.3;stroke-opacity:1"
         d="m 241.67079,182.56093 -30.24644,-13.7105"
         id="path05"
         sodipodi:nodetypes="cc" /><path
         style="display:inline;fill:#000000;fill-opacity:0.989899;stroke:#85b044;stroke-width:0.3;stroke-opacity:1"
         d="M 211.50912,168.9571 198.16123,103.30819"
         id="path06"
         sodipodi:nodetypes="cc" /><path
         style="display:inline;fill:#000000;fill-opacity:0.989899;stroke:#85b044;stroke-width:0.3;stroke-opacity:1"
         d="m 198.10676,103.3179 56.09831,32.97427"
         id="path07"
         sodipodi:nodetypes="cc" /><path
         style="display:inline;fill:#000000;fill-opacity:0.989899;stroke:#85b044;stroke-width:0.3;stroke-opacity:1"
         d="m 254.05202,136.28875 55.8277,-33.0572"
         id="path08"
         sodipodi:nodetypes="cc" /><path
         style="display:inline;fill:#000000;fill-opacity:0.989899;stroke:#85b044;stroke-width:0.3;stroke-opacity:1"
         d="m 309.84414,103.19388 -13.41338,65.74598"
         id="path09"
         sodipodi:nodetypes="cc" /><path
         style="display:inline;fill:#000000;fill-opacity:0.989899;stroke:#85b044;stroke-width:0.3;stroke-opacity:1"
         d="M 266.3425,182.55933 296.51583,168.8345"
         id="path10"
         sodipodi:nodetypes="cc" /></g></g></svg>
